<?xml version="1.0" encoding="utf-8"?>
<!-- Generator: Adobe Illustrator 27.5.0, SVG Export Plug-In . SVG Version: 6.00 Build 0)  -->
<svg version="1.1" xmlns="http://www.w3.org/2000/svg" xmlns:xlink="http://www.w3.org/1999/xlink" x="0px" y="0px"
	 viewBox="0 0 1200 675" style="enable-background:new 0 0 1200 675;" xml:space="preserve">
<g id="Background">
	<rect style="fill:#F2F9FF;" width="1200" height="675"/>
</g>
<g id="Graphic_elements">
	<g>
		<defs>
			<rect id="SVGID_1_" transform="matrix(-1 -1.224647e-16 1.224647e-16 -1 1200 675)" width="1200" height="675"/>
		</defs>
		<clipPath id="SVGID_00000152946083370291252570000004365828446037241022_">
			<use xlink:href="#SVGID_1_"  style="overflow:visible;"/>
		</clipPath>
		
			<linearGradient id="SVGID_00000003102004335150830270000000444505719997784470_" gradientUnits="userSpaceOnUse" x1="1030.1819" y1="569.5027" x2="1250.4263" y2="569.5027">
			<stop  offset="0" style="stop-color:#FFFFFF"/>
			<stop  offset="1" style="stop-color:#5494C6"/>
		</linearGradient>
		
			<polygon style="opacity:0.58;clip-path:url(#SVGID_00000152946083370291252570000004365828446037241022_);fill:url(#SVGID_00000003102004335150830270000000444505719997784470_);" points="
			1205.962,209.886 1007.465,434.106 1007.465,929.119 1205.962,704.9 		"/>
		
			<linearGradient id="SVGID_00000042720486574657209420000000991467890019633329_" gradientUnits="userSpaceOnUse" x1="5137.4199" y1="686.3411" x2="5257.4746" y2="686.3411" gradientTransform="matrix(-1 0 0 1 6176.7734 0)">
			<stop  offset="0" style="stop-color:#FFFFFF"/>
			<stop  offset="1" style="stop-color:#5494C6"/>
		</linearGradient>
		
			<polygon style="clip-path:url(#SVGID_00000152946083370291252570000004365828446037241022_);fill:url(#SVGID_00000042720486574657209420000000991467890019633329_);" points="
			943.536,490.316 1051.736,612.537 1051.736,882.367 943.536,760.146 		"/>
		<g style="clip-path:url(#SVGID_00000152946083370291252570000004365828446037241022_);">
			<polygon style="fill:#70B5E0;" points="1129.771,523.515 1130.939,520.701 1130.939,234.432 1129.771,237.246 			"/>
			<polygon style="fill:#76BAE3;" points="1122.677,530.609 1123.845,527.795 1123.845,241.526 1122.677,244.34 			"/>
			<polygon style="fill:#7DBEE5;" points="1115.583,537.703 1116.751,534.889 1116.751,248.62 1115.583,251.434 			"/>
			<polygon style="fill:#83C3E8;" points="1108.489,544.797 1109.657,541.983 1109.657,255.714 1108.489,258.528 			"/>
			<polygon style="fill:#89C8EB;" points="1101.394,551.891 1102.563,549.077 1102.563,262.808 1101.394,265.622 			"/>
			<polygon style="fill:#90CDED;" points="1094.3,558.985 1095.469,556.171 1095.469,269.902 1094.3,272.716 			"/>
			<polygon style="fill:#96D1F0;" points="1087.206,566.079 1088.375,563.265 1088.375,276.996 1087.206,279.81 			"/>
			<polygon style="fill:#9DD6F2;" points="1080.112,573.173 1081.281,570.359 1081.281,284.09 1080.112,286.904 			"/>
			<polygon style="fill:#A3DBF5;" points="1073.018,580.267 1074.186,577.453 1074.186,291.184 1073.018,293.998 			"/>
			<polygon style="fill:#A9E0F8;" points="1065.924,587.361 1067.092,584.547 1067.092,298.278 1065.924,301.092 			"/>
			<polygon style="fill:#B0E4FA;" points="1058.83,594.455 1059.998,591.641 1059.998,305.372 1058.83,308.186 			"/>
			<polygon style="fill:#B6E9FD;" points="1051.736,601.549 1052.904,598.735 1052.904,312.466 1051.736,315.28 			"/>
		</g>
		
			<linearGradient id="SVGID_00000047029559742253089610000014214956852664777372_" gradientUnits="userSpaceOnUse" x1="22.7168" y1="193.7801" x2="242.9612" y2="193.7801">
			<stop  offset="0" style="stop-color:#FFFFFF"/>
			<stop  offset="1" style="stop-color:#5494C6"/>
		</linearGradient>
		
			<polygon style="opacity:0.58;clip-path:url(#SVGID_00000152946083370291252570000004365828446037241022_);fill:url(#SVGID_00000047029559742253089610000014214956852664777372_);" points="
			198.497,-165.836 0,58.383 0,553.396 198.497,329.177 		"/>
		
			<linearGradient id="SVGID_00000038375601035215997840000014280319301622470308_" gradientUnits="userSpaceOnUse" x1="5955.4922" y1="30.0038" x2="6075.5464" y2="30.0038" gradientTransform="matrix(-1 0 0 1 6176.7734 0)">
			<stop  offset="0" style="stop-color:#FFFFFF"/>
			<stop  offset="1" style="stop-color:#5494C6"/>
		</linearGradient>
		
			<polygon style="clip-path:url(#SVGID_00000152946083370291252570000004365828446037241022_);fill:url(#SVGID_00000038375601035215997840000014280319301622470308_);" points="
			125.464,-166.022 233.664,-43.801 233.664,226.029 125.464,103.808 		"/>
		<g style="clip-path:url(#SVGID_00000152946083370291252570000004365828446037241022_);">
			<polygon style="fill:#70B5E0;" points="21.214,201.346 20.046,198.532 20.046,-87.737 21.214,-84.923 			"/>
			<polygon style="fill:#76BAE3;" points="28.308,208.44 27.14,205.626 27.14,-80.643 28.308,-77.829 			"/>
			<polygon style="fill:#7DBEE5;" points="35.402,215.534 34.234,212.72 34.234,-73.549 35.402,-70.735 			"/>
			<polygon style="fill:#83C3E8;" points="42.496,222.628 41.328,219.814 41.328,-66.455 42.496,-63.641 			"/>
			<polygon style="fill:#89C8EB;" points="49.59,229.722 48.422,226.908 48.422,-59.361 49.59,-56.547 			"/>
			<polygon style="fill:#90CDED;" points="56.684,236.816 55.516,234.002 55.516,-52.267 56.684,-49.453 			"/>
			<polygon style="fill:#96D1F0;" points="63.778,243.91 62.61,241.096 62.61,-45.173 63.778,-42.359 			"/>
			<polygon style="fill:#9DD6F2;" points="70.872,251.004 69.704,248.19 69.704,-38.079 70.872,-35.265 			"/>
			<polygon style="fill:#A3DBF5;" points="77.966,258.098 76.798,255.284 76.798,-30.985 77.966,-28.171 			"/>
			<polygon style="fill:#A9E0F8;" points="85.061,265.192 83.892,262.378 83.892,-23.891 85.061,-21.077 			"/>
			<polygon style="fill:#B0E4FA;" points="92.155,272.286 90.986,269.472 90.986,-16.797 92.155,-13.983 			"/>
			<polygon style="fill:#B6E9FD;" points="99.248,279.38 98.08,276.566 98.08,-9.703 99.248,-6.889 			"/>
		</g>
	</g>
</g>
</svg>
