<svg xmlns="http://www.w3.org/2000/svg" xmlns:xlink="http://www.w3.org/1999/xlink" viewBox="0 0 180 100" xmlns:v="https://vecta.io/nano"><defs><path id="A" d="M0 0h180v100H0z"/></defs><clipPath id="B"><use xlink:href="#A"/></clipPath><g clip-path="url(#B)"><path d="M184.384 96.15c0 4.045-3.278 7.322-7.322 7.322H4.804c-4.044 0-7.322-3.277-7.322-7.322V3.85c0-4.045 3.278-7.324 7.322-7.324h172.258c4.044 0 7.322 3.279 7.322 7.324v92.3z" fill="#334d5b"/><radialGradient id="C" cx="63.587" cy="114.301" r="149.743" gradientUnits="userSpaceOnUse"><stop offset="0" stop-color="#d7edf3"/><stop offset=".248" stop-color="#d8edf0"/><stop offset=".42" stop-color="#dbede7"/><stop offset=".568" stop-color="#dfedd8"/><stop offset=".703" stop-color="#e6eec2"/><stop offset=".829" stop-color="#efeea6"/><stop offset=".947" stop-color="#f9ef84"/><stop offset="1" stop-color="#ffef72"/></radialGradient><path d="M14.481 76.436a10 10 0 0 0-.471-1.055l-.068 1.1-.001-.004-.025.369-.005.195.09 3.113.022-.047.052-.107a.97.97 0 0 1 .049.152l.202-1.375.172-1.809-.001-.047.01-.125c-.004-.112.014-.239-.026-.36z" fill="url(#C)"/><radialGradient id="D" cx="62.846" cy="113.779" r="147.721" gradientUnits="userSpaceOnUse"><stop offset="0" stop-color="#d7edf3"/><stop offset=".248" stop-color="#d8edf0"/><stop offset=".42" stop-color="#dbede7"/><stop offset=".568" stop-color="#dfedd8"/><stop offset=".703" stop-color="#e6eec2"/><stop offset=".829" stop-color="#efeea6"/><stop offset=".947" stop-color="#f9ef84"/><stop offset="1" stop-color="#ffef72"/></radialGradient><path d="M15.375 68.418l.019.029-.019-.029z" fill="url(#D)"/><radialGradient id="E" cx="63.583" cy="114.311" r="149.748" gradientUnits="userSpaceOnUse"><stop offset="0" stop-color="#d7edf3"/><stop offset=".248" stop-color="#d8edf0"/><stop offset=".42" stop-color="#dbede7"/><stop offset=".568" stop-color="#dfedd8"/><stop offset=".703" stop-color="#e6eec2"/><stop offset=".829" stop-color="#efeea6"/><stop offset=".947" stop-color="#f9ef84"/><stop offset="1" stop-color="#ffef72"/></radialGradient><path d="M13.763 71.256c-.064.803.016 1.451.13 1.971l.154.385.088.336c.013.057.019.115.028.172l.012.111c.047.156.106.381.102.527-.002.09-.025.166-.1.23a.95.95 0 0 0-.121.152l.492.945c.113-2.576-.006-5.951-.742-9.957l-.057-.291-.044-.217.058 5.636z" fill="url(#E)"/><radialGradient id="F" cx="63.567" cy="114.292" r="149.704" gradientUnits="userSpaceOnUse"><stop offset="0" stop-color="#d7edf3"/><stop offset=".248" stop-color="#d8edf0"/><stop offset=".42" stop-color="#dbede7"/><stop offset=".568" stop-color="#dfedd8"/><stop offset=".703" stop-color="#e6eec2"/><stop offset=".829" stop-color="#efeea6"/><stop offset=".947" stop-color="#f9ef84"/><stop offset="1" stop-color="#ffef72"/></radialGradient><path d="M16.025 48.582l.155-.18c.01-.01.017-.018.022-.025-.094.08-.239.256-.425.496l.248-.291z" fill="url(#F)"/><radialGradient id="G" cx="63.702" cy="114.473" r="150.195" gradientUnits="userSpaceOnUse"><stop offset="0" stop-color="#d7edf3"/><stop offset=".248" stop-color="#d8edf0"/><stop offset=".42" stop-color="#dbede7"/><stop offset=".568" stop-color="#dfedd8"/><stop offset=".703" stop-color="#e6eec2"/><stop offset=".829" stop-color="#efeea6"/><stop offset=".947" stop-color="#f9ef84"/><stop offset="1" stop-color="#ffef72"/></radialGradient><path d="M15.61 68.67l-.032-.026-.045-.039c-.006-.006-.012-.01-.018-.016l-.051-.055-.064-.078c.05.07.096.125.132.162l.064.063z" fill="url(#G)"/><radialGradient id="H" cx="15.273" cy="68.241" r=".005" gradientUnits="userSpaceOnUse"><stop offset="0" stop-color="#d7edf3"/><stop offset=".248" stop-color="#d8edf0"/><stop offset=".42" stop-color="#dbede7"/><stop offset=".568" stop-color="#dfedd8"/><stop offset=".703" stop-color="#e6eec2"/><stop offset=".829" stop-color="#efeea6"/><stop offset=".947" stop-color="#f9ef84"/><stop offset="1" stop-color="#ffef72"/></radialGradient><path d="M15.27 68.234l.006.014-.004-.008z" fill="url(#H)"/><radialGradient id="I" cx="15.328" cy="68.343" r=".007" gradientUnits="userSpaceOnUse"><stop offset="0" stop-color="#d7edf3"/><stop offset=".248" stop-color="#d8edf0"/><stop offset=".42" stop-color="#dbede7"/><stop offset=".568" stop-color="#dfedd8"/><stop offset=".703" stop-color="#e6eec2"/><stop offset=".829" stop-color="#efeea6"/><stop offset=".947" stop-color="#f9ef84"/><stop offset="1" stop-color="#ffef72"/></radialGradient><path d="M15.323 68.334l.008.014.002.004-.007-.012z" fill="url(#I)"/><radialGradient id="J" cx="65.099" cy="114.335" r="153.376" gradientUnits="userSpaceOnUse"><stop offset="0" stop-color="#d7edf3"/><stop offset=".248" stop-color="#d8edf0"/><stop offset=".42" stop-color="#dbede7"/><stop offset=".568" stop-color="#dfedd8"/><stop offset=".703" stop-color="#e6eec2"/><stop offset=".829" stop-color="#efeea6"/><stop offset=".947" stop-color="#f9ef84"/><stop offset="1" stop-color="#ffef72"/></radialGradient><path d="M14.146 88.158l.016-.156-.012.043-.004.113z" fill="url(#J)"/><radialGradient id="K" cx="63.69" cy="114.033" r="149.405" gradientUnits="userSpaceOnUse"><stop offset="0" stop-color="#d7edf3"/><stop offset=".248" stop-color="#d8edf0"/><stop offset=".42" stop-color="#dbede7"/><stop offset=".568" stop-color="#dfedd8"/><stop offset=".703" stop-color="#e6eec2"/><stop offset=".829" stop-color="#efeea6"/><stop offset=".947" stop-color="#f9ef84"/><stop offset="1" stop-color="#ffef72"/></radialGradient><path d="M24.277 38.371l.138-.105.02-.014a2.87 2.87 0 0 0-.385.293l.227-.174z" fill="url(#K)"/><radialGradient id="L" cx="63.621" cy="114.319" r="149.803" gradientUnits="userSpaceOnUse"><stop offset="0" stop-color="#d7edf3"/><stop offset=".248" stop-color="#d8edf0"/><stop offset=".42" stop-color="#dbede7"/><stop offset=".568" stop-color="#dfedd8"/><stop offset=".703" stop-color="#e6eec2"/><stop offset=".829" stop-color="#efeea6"/><stop offset=".947" stop-color="#f9ef84"/><stop offset="1" stop-color="#ffef72"/></radialGradient><path d="M6.36 49.23l-.005-2.748c-.054-.656-.059-1.308-.018-1.914l-.026-1.922c-.008.006-.015.014-.023.02-.124.086-.271.164-.431.188-.079.008-.161.004-.238-.033l-.008-.006-.007.02-.021.064c-.141.5-.254 1.078-.266 1.182-.016.125.024.236.035.342.024.24-.049.18-.11.01l.116 3.688L6.36 49.23z" fill="url(#L)"/><radialGradient id="M" cx="63.545" cy="113.056" r="147.819" gradientUnits="userSpaceOnUse"><stop offset="0" stop-color="#d7edf3"/><stop offset=".248" stop-color="#d8edf0"/><stop offset=".42" stop-color="#dbede7"/><stop offset=".568" stop-color="#dfedd8"/><stop offset=".703" stop-color="#e6eec2"/><stop offset=".829" stop-color="#efeea6"/><stop offset=".947" stop-color="#f9ef84"/><stop offset="1" stop-color="#ffef72"/></radialGradient><path d="M20.235 40.906l.139-.027h.004l-.45.07.191-.021.116-.022z" fill="url(#M)"/><radialGradient id="N" cx="64.858" cy="115.422" r="152.367" gradientUnits="userSpaceOnUse"><stop offset="0" stop-color="#d7edf3"/><stop offset=".248" stop-color="#d8edf0"/><stop offset=".42" stop-color="#dbede7"/><stop offset=".568" stop-color="#dfedd8"/><stop offset=".703" stop-color="#e6eec2"/><stop offset=".829" stop-color="#efeea6"/><stop offset=".947" stop-color="#f9ef84"/><stop offset="1" stop-color="#ffef72"/></radialGradient><path d="M6.244 38.83a.29.29 0 0 1-.018.035c.007-.011.013-.021.018-.035h0z" fill="url(#N)"/><radialGradient id="O" cx="63.635" cy="114.305" r="149.82" gradientUnits="userSpaceOnUse"><stop offset="0" stop-color="#d7edf3"/><stop offset=".248" stop-color="#d8edf0"/><stop offset=".42" stop-color="#dbede7"/><stop offset=".568" stop-color="#dfedd8"/><stop offset=".703" stop-color="#e6eec2"/><stop offset=".829" stop-color="#efeea6"/><stop offset=".947" stop-color="#f9ef84"/><stop offset="1" stop-color="#ffef72"/></radialGradient><path d="M5.528 66.232l.607-4.51.156-.799.074-2.627-.109-.15-.131-.188-.244-.357-.413-.637-.131-.209-.087 4.379a8.13 8.13 0 0 1 .103.824 5.81 5.81 0 0 1 .001.824 3.12 3.12 0 0 1-.123.684l-.029.086-.035 1.77.218.512c.064.143.112.271.143.398z" fill="url(#O)"/><radialGradient id="P" cx="63.611" cy="114.323" r="149.798" gradientUnits="userSpaceOnUse"><stop offset="0" stop-color="#d7edf3"/><stop offset=".248" stop-color="#d8edf0"/><stop offset=".42" stop-color="#dbede7"/><stop offset=".568" stop-color="#dfedd8"/><stop offset=".703" stop-color="#e6eec2"/><stop offset=".829" stop-color="#efeea6"/><stop offset=".947" stop-color="#f9ef84"/><stop offset="1" stop-color="#ffef72"/></radialGradient><path d="M5.347 56.139l1.069.418.024-.891-.371-.387L5.831 55l-.226-.289-.023-.029c-.165.123-.217.338-.235.639v.818z" fill="url(#P)"/><radialGradient id="Q" cx="63.564" cy="114.323" r="149.742" gradientUnits="userSpaceOnUse"><stop offset="0" stop-color="#d7edf3"/><stop offset=".248" stop-color="#d8edf0"/><stop offset=".42" stop-color="#dbede7"/><stop offset=".568" stop-color="#dfedd8"/><stop offset=".703" stop-color="#e6eec2"/><stop offset=".829" stop-color="#efeea6"/><stop offset=".947" stop-color="#f9ef84"/><stop offset="1" stop-color="#ffef72"/></radialGradient><path d="M5.382 51.973l-.006.422.705.252c.016-.191.08-.436.174-.766.058-.201.088-1.01.101-2.154l-.984-1.182.042 2.217-.015.977-.017.234z" fill="url(#Q)"/><radialGradient id="R" cx="63.267" cy="114.087" r="149.237" gradientUnits="userSpaceOnUse"><stop offset="0" stop-color="#d7edf3"/><stop offset=".248" stop-color="#d8edf0"/><stop offset=".42" stop-color="#dbede7"/><stop offset=".568" stop-color="#dfedd8"/><stop offset=".703" stop-color="#e6eec2"/><stop offset=".829" stop-color="#efeea6"/><stop offset=".947" stop-color="#f9ef84"/><stop offset="1" stop-color="#ffef72"/></radialGradient><path d="M.15 27.453a.91.91 0 0 1 .018.107l.009.043.008-.41c-.03.123-.043.215-.035.26z" fill="url(#R)"/><radialGradient id="S" cx="63.628" cy="113.831" r="149.235" gradientUnits="userSpaceOnUse"><stop offset="0" stop-color="#d7edf3"/><stop offset=".248" stop-color="#d8edf0"/><stop offset=".42" stop-color="#dbede7"/><stop offset=".568" stop-color="#dfedd8"/><stop offset=".703" stop-color="#e6eec2"/><stop offset=".829" stop-color="#efeea6"/><stop offset=".947" stop-color="#f9ef84"/><stop offset="1" stop-color="#ffef72"/></radialGradient><path d="M-.61 44.441c.051.014.1.02.144.027l.122.023.15.018v-.002l-.42-.066h.004z" fill="url(#S)"/><radialGradient id="T" cx="15.222" cy="68.128" r=".005" gradientUnits="userSpaceOnUse"><stop offset="0" stop-color="#d7edf3"/><stop offset=".248" stop-color="#d8edf0"/><stop offset=".42" stop-color="#dbede7"/><stop offset=".568" stop-color="#dfedd8"/><stop offset=".703" stop-color="#e6eec2"/><stop offset=".829" stop-color="#efeea6"/><stop offset=".947" stop-color="#f9ef84"/><stop offset="1" stop-color="#ffef72"/></radialGradient><path d="M15.22 68.121z" fill="url(#T)"/><radialGradient id="U" cx="143.557" cy="114.338" r="149.788" gradientUnits="userSpaceOnUse"><stop offset="0" stop-color="#d7edf3"/><stop offset=".248" stop-color="#d8edf0"/><stop offset=".42" stop-color="#dbede7"/><stop offset=".568" stop-color="#dfedd8"/><stop offset=".703" stop-color="#e6eec2"/><stop offset=".829" stop-color="#efeea6"/><stop offset=".947" stop-color="#f9ef84"/><stop offset="1" stop-color="#ffef72"/></radialGradient><path d="M146.939 6.522l.066.127.033.059-.099-.186z" fill="url(#U)"/><radialGradient id="V" cx="63.597" cy="114.306" r="149.759" gradientUnits="userSpaceOnUse"><stop offset="0" stop-color="#d7edf3"/><stop offset=".248" stop-color="#d8edf0"/><stop offset=".42" stop-color="#dbede7"/><stop offset=".568" stop-color="#dfedd8"/><stop offset=".703" stop-color="#e6eec2"/><stop offset=".829" stop-color="#efeea6"/><stop offset=".947" stop-color="#f9ef84"/><stop offset="1" stop-color="#ffef72"/></radialGradient><path d="M5.54.035c.012-.003.075.229.079.483-.001.007-.001.015-.001.021l-.005.119-.002.022-.019.104c-.002.017-.007.032-.012.048-.039.131-.095.219-.155.279-.013.034-.019.069-.001.098h.001c.014.006.031.012.053.014s.029.006.035.014c.101.018.182.049.249.086.087.045.149.102.192.166a.45.45 0 0 1 .081.275.51.51 0 0 1-.196.392c-.152.11-.205.326-.222.625L5.612 3.92l-.237 12c-.001.055.024.106.063.156.073.086.164.164.234.244l.023.028c.011.014.013.016.013.018l.025.033c.023.035.034.059.041.084l.007.035.002.03-.002.026c0 .008-.002.018-.005.025-.007.024-.012.035-.019.047s-.017.029-.026.043l-.034.041c-.005.006-.013.012-.019.02s-.015.014-.022.019l-.031.023-.023.018-.035.024c-.015.012-.032.021-.048.031s-.164.151-.167.278l-.051 1.416-.002-.004c-.087 4.234-.286 15.492.007 16.4.217.674.318 1.051.164 1.307-.029.057-.068.152-.037.182.042.041.008.106 0 .117.006.01.01.021.013.031a.22.22 0 0 1 .026.121c.002.018.004.031.004.043a.68.68 0 0 1-.073.283c-.099.244-.273.492-.329.6-.095.188.034 1.07.034 1.07-.006-.033-.015-.066-.023-.102l.012.088a1.45 1.45 0 0 0-.051-.199c0 .01 0 .019.001.031l.019.15c-.005-.027-.012-.055-.018-.082 0 .006 0 .012.001.02l.174 5.139.275-.994c.003-.01.007-.02.01-.029-.011-.012-.021-.023-.03-.035a.77.77 0 0 0-.039-.055 1.28 1.28 0 0 1-.183-.551c-.009-.053-.01-.107-.014-.158s-.004-.107-.001-.16a3.52 3.52 0 0 1 .024-.326c.059-.436.187-.863.329-1.25a8.86 8.86 0 0 1 .225-.551l.115-.252c.02-.039.038-.078.057-.117s.038-.076.056-.113c.036-.074.073-.143.107-.211l.091-.168-.018-.887-.001.002-.012-.369-.028-.828c-.002-.107-.115-.229-.115-.229-.025-.016-.037-.026-.048-.033s-.019-.014-.027-.021a.11.11 0 0 1-.018-.014c-.008-.008-.015-.014-.022-.021s-.012-.01-.018-.016-.011-.012-.016-.018-.015-.02-.022-.03c-.013-.018-.02-.029-.024-.041h-.001c-.004-.012-.008-.021-.011-.033s-.006-.024-.006-.031c-.002-.018-.002-.02-.002-.022 0-.018.001-.022.001-.024.001-.01.003-.017.004-.025.007-.027.015-.047.025-.066s.014-.024.018-.029c.01-.014.012-.016.013-.018.054-.08.138-.156.194-.232h.001c.032-.049.052-.094.051-.139L5.96 25.432c-.005-.219-.002-.418-.002-.598l-.005-.381c-.016-.256-.056-.432-.169-.524-.088-.072-.148-.203-.15-.336a.41.41 0 0 1 .066-.24.36.36 0 0 1 .14-.133.5.5 0 0 1 .159-.066c.076-.014.074-.076.06-.125-.026-.039-.052-.09-.072-.156-.069-.035-.138-.072-.204-.111 0-.006.019-.055.043-.152.002-.024.006-.037.012-.053.014-.061.027-.135.041-.223.011-.107.019-.232.031-.369a7.49 7.49 0 0 0 .004-.686l-.014-.197c-.011-.145-.015-.434-.013-.832.009-2.307.206-8.256.255-10.354-.004.012-.009.04-.012.069 0 0 .001-.016.004-.041-.002.01-.004.017-.006.025 0 0 .005-.033.011-.084.001-.021.003-.045.005-.072l.001-.002c-.017.057-.03.115-.04.174 0 0 .004-.025.009-.07-.007.027-.012.054-.016.082 0 0 .095-.752.023-.912-.042-.092-.176-.305-.251-.514-.034-.078-.057-.158-.057-.24 0-.01.002-.022.003-.031-.002-.037.003-.074.02-.108.003-.01.006-.018.01-.027-.006-.01-.032-.066 0-.1.023-.025-.007-.106-.029-.154-.119-.219-.042-.541.122-1.116.155-.537.117-5.359.055-9.455l-.014-.795h-.872c.059 1.41.154 2.738.313 3.143a3.5 3.5 0 0 1 .119.367z" fill="url(#V)"/><radialGradient id="W" cx="143.549" cy="114.306" r="149.738" gradientUnits="userSpaceOnUse"><stop offset="0" stop-color="#d7edf3"/><stop offset=".248" stop-color="#d8edf0"/><stop offset=".42" stop-color="#dbede7"/><stop offset=".568" stop-color="#dfedd8"/><stop offset=".703" stop-color="#e6eec2"/><stop offset=".829" stop-color="#efeea6"/><stop offset=".947" stop-color="#f9ef84"/><stop offset="1" stop-color="#ffef72"/></radialGradient><path d="M167.013-3.445l.126.094.02.018.071.061v.002a.25.25 0 0 0 .031.027v.002h0v.002l.385 5.172.119.367c.012-.005.075.228.079.481-.001.008-.001.016-.001.021l-.005.119c-.001.008-.001.016-.003.021l-.018.104c-.003.018-.008.033-.012.049a.69.69 0 0 1-.155.28c-.014.033-.02.068-.002.096l.001.002c.014.006.031.012.053.014s.03.006.035.014a.75.75 0 0 1 .249.086c.087.045.149.102.192.166a.45.45 0 0 1 .081.275c-.003.156-.081.309-.196.392-.153.111-.205.326-.222.625l-.005 1.137-.236 12.002c-.001.055.024.106.063.156.073.086.164.164.234.244l.024.028.022.032c.006.006.01.012.015.02.024.035.034.059.041.084l.007.035.002.03-.002.026c0 .008-.002.017-.005.025a.25.25 0 0 1-.019.049c-.007.014-.017.027-.026.041l-.034.041c-.006.006-.013.014-.02.019s-.015.014-.021.02l-.03.023-.023.018-.035.025-.048.029c-.015.01-.164.151-.167.278l-.051 1.414c-.088 4.232-.288 15.492.005 16.398.217.674.319 1.051.164 1.307-.029.059-.068.152-.037.182l.001.002c.041.039.007.104-.001.115.006.01.01.021.014.031.021.041.027.084.025.121.002.02.004.032.004.043 0 .096-.029.189-.073.283-.099.244-.273.492-.328.602-.096.185.033 1.068.033 1.068-.006-.033-.015-.068-.022-.101l.012.088a1.32 1.32 0 0 0-.051-.199v.031l.021.15c-.005-.027-.012-.055-.018-.082v.02l.174 5.139.276-.994c.002-.01.006-.02.009-.029-.011-.012-.021-.023-.03-.035a.77.77 0 0 0-.039-.055c-.098-.152-.16-.346-.183-.551-.008-.053-.01-.107-.014-.158s-.004-.106-.001-.162c.002-.107.012-.215.024-.324.059-.436.187-.863.329-1.25a8.86 8.86 0 0 1 .225-.551l.115-.252c.02-.039.038-.078.057-.117l.056-.111c.036-.074.073-.145.108-.213.03-.059.061-.115.09-.168l-.018-.887-.001.002-.012-.369-.028-.828c-.002-.107-.115-.226-.115-.226-.025-.018-.037-.028-.048-.035s-.019-.014-.027-.021a.11.11 0 0 1-.018-.014c-.008-.008-.015-.014-.023-.021s-.012-.01-.017-.016-.011-.012-.016-.017-.015-.018-.021-.027c-.014-.018-.021-.029-.025-.043h-.003c-.005-.01-.008-.02-.011-.031-.004-.016-.006-.024-.006-.031-.002-.016-.002-.02-.002-.022 0-.018.001-.022.001-.024.001-.01.003-.018.005-.025.006-.026.014-.047.024-.067s.014-.024.019-.03c.009-.014.011-.016.012-.018.002-.032-.005-.051-.011-.069l-.109-.283-.076-.223-.066-.193.061.133c-.241-.627-.354-1.027-.354-1.027a6.8 6.8 0 0 0 .784.354l-.184-9.291-.002-.598-.005-.381c-.016-.256-.056-.432-.169-.524a.46.46 0 0 1-.15-.336.42.42 0 0 1 .066-.24.38.38 0 0 1 .14-.135.55.55 0 0 1 .159-.064c.077-.014.074-.076.06-.125-.026-.039-.052-.09-.072-.156-.069-.035-.138-.072-.204-.111 0-.006.02-.055.043-.152.002-.024.007-.037.012-.053.014-.06.027-.135.041-.223.011-.107.02-.232.031-.369s.01-.432.004-.686l-.014-.197c-.011-.144-.015-.434-.013-.832.009-2.307.206-8.256.255-10.356-.004.013-.009.041-.012.07 0 0 .002-.016.003-.041-.001.01-.003.018-.005.025 0 0 .005-.033.011-.084.001-.021.003-.047.006-.072h0a1.43 1.43 0 0 0-.04.172s.004-.025.009-.07c-.006.027-.012.055-.016.082 0 0 .096-.752.023-.912-.042-.094-.176-.303-.251-.514-.034-.078-.057-.158-.057-.24 0-.01.002-.021.003-.031-.002-.037.003-.074.02-.107.003-.01.006-.018.01-.027-.006-.01-.032-.066 0-.102.023-.023-.007-.103-.028-.152-.119-.219-.042-.541.123-1.113.153-.539.115-5.361.054-9.457l-.054-3.059h-1.198a.45.45 0 0 1 .043.025h0z" fill="url(#W)"/><radialGradient id="X" cx="63.593" cy="114.31" r="149.755" gradientUnits="userSpaceOnUse"><stop offset="0" stop-color="#d7edf3"/><stop offset=".248" stop-color="#d8edf0"/><stop offset=".42" stop-color="#dbede7"/><stop offset=".568" stop-color="#dfedd8"/><stop offset=".703" stop-color="#e6eec2"/><stop offset=".829" stop-color="#efeea6"/><stop offset=".947" stop-color="#f9ef84"/><stop offset="1" stop-color="#ffef72"/></radialGradient><path d="M-1.312 22.432h-.003c.636 1.689 1.063 3.205 1.35 4.492a2.43 2.43 0 0 0 .163-.328l.032-1.394a1.48 1.48 0 0 1-.141-.285l-.037-.111-.026-.113-.013-.055-.009-.057-.017-.111-.019-.217-.004-.209.008-.197.005-.094.008-.09.017-.168.018-.117c.05-.41.145-.893.295-1.451l.115-3.896-.011.021.008-1.02c-.064-.057-.153-.113-.181-.178-.26-.146-.395-.344-.375-.514.004-.11.048-.213.119-.313.013-.018.024-.039.036-.059l.052-.092c.137-.275.21-.67.236-1.221l.009-.293.201-10.1c.023-1.154-.185-1.693-.52-2.23-.09-.113-.129-.209-.138-.289-.001-.045 0-.071.005-.094a.39.39 0 0 1 .03-.075l.001-.004c.05-.09.134-.141.168-.16.093-.057.203-.102.307-.133C.351 1.252.305 1.18.33 1.014.141.799.134.529.188.182L.36-.757c.05-.327.084-.698.065-1.122L.42-2.018C-1.364-.682-2.519 1.449-2.519 3.85v15.74l1.12 2.621.087.221z" fill="url(#X)"/><radialGradient id="Y" cx="63.639" cy="114.32" r="149.8" gradientUnits="userSpaceOnUse"><stop offset="0" stop-color="#d7edf3"/><stop offset=".248" stop-color="#d8edf0"/><stop offset=".42" stop-color="#dbede7"/><stop offset=".568" stop-color="#dfedd8"/><stop offset=".703" stop-color="#e6eec2"/><stop offset=".829" stop-color="#efeea6"/><stop offset=".947" stop-color="#f9ef84"/><stop offset="1" stop-color="#ffef72"/></radialGradient><path d="M-2.505 20.736l-.008.06-.006.027v.086l.313.244-.313-.717v.105a.94.94 0 0 1 .015.131l-.001.064z" fill="url(#Y)"/><radialGradient id="Z" cx="143.537" cy="114.305" r="149.746" gradientUnits="userSpaceOnUse"><stop offset="0" stop-color="#d7edf3"/><stop offset=".248" stop-color="#d8edf0"/><stop offset=".42" stop-color="#dbede7"/><stop offset=".568" stop-color="#dfedd8"/><stop offset=".703" stop-color="#e6eec2"/><stop offset=".829" stop-color="#efeea6"/><stop offset=".947" stop-color="#f9ef84"/><stop offset="1" stop-color="#ffef72"/></radialGradient><path d="M177.354 6.785c-.001-.043-.001-.069.005-.092a.38.38 0 0 1 .029-.078l.001-.002c.05-.092.135-.143.168-.16.093-.059.203-.104.308-.133-.027-.027-.073-.098-.048-.266-.189-.215-.196-.484-.143-.832l.172-.94a5.55 5.55 0 0 0 .066-1.121L177.844.35c-.417-1.006-.548-2.17-.599-3.244l-.023-.578c-.054 0-.107-.004-.161-.004h-1.643l-.026.76c.014.01.028.018.041.025l-.045 2.297.001.367a6.4 6.4 0 0 0 .059.619c.042.313.116.529.148.754.041.297.036.525-.107.707.02.145-.016.203-.036.227.079.027.163.064.233.113.025.016.091.061.129.139v.002c.01.018.017.037.022.057.006.029.006.051.006.074v.002c-.006.08-.036.162-.104.258-.255.457-.412.916-.392 1.9l.171 8.607.009.248c.02.471.076.807.183 1.043.001.004.018.033.039.078l.027.051a.51.51 0 0 1 .09.26c.016.15-.086.317-.283.444-.021.055-.089.102-.137.15l.007.869.206 8.277 1.078-2.777.383-.818a3.14 3.14 0 0 1 .095-.205l.11-1.016c-.168-.08-.346-.34-.526-.672l-.07-.139-.014-.031-.123-.324c-.003-.012-.007-.023-.011-.033l-.05-.174-.047-.197-.009-.041-.011-.051.055.272.054.227-.065-.223c-.021-.07-.038-.156-.063-.258s-.041-.213-.063-.338c-.011-.063-.016-.129-.023-.195l-.012-.104-.007-.107c-.011-.143-.015-.297-.011-.455l.036-.484.036-.248.023-.125.025-.123.137-.484.169-.457.042-.107.037-.107.07-.211.119-.387.096-.33.071-.256.062-.221.023-.104c.261.549.471 1.234.612 1.969l.123-6.213c.022-1.154-.186-1.693-.521-2.23-.088-.112-.127-.21-.135-.29z" fill="url(#Z)"/><radialGradient id="a" cx="143.549" cy="114.298" r="149.731" gradientUnits="userSpaceOnUse"><stop offset="0" stop-color="#d7edf3"/><stop offset=".248" stop-color="#d8edf0"/><stop offset=".42" stop-color="#dbede7"/><stop offset=".568" stop-color="#dfedd8"/><stop offset=".703" stop-color="#e6eec2"/><stop offset=".829" stop-color="#efeea6"/><stop offset=".947" stop-color="#f9ef84"/><stop offset="1" stop-color="#ffef72"/></radialGradient><path d="M182.263-1.305l.032.652.107.08.019.014.072.063c.01.012.021.022.03.031h0 .001v.002l.384 5.172.119.367c.013-.003.076.227.079.481l-.001.022-.005.121-.004.037-.016.086-.013.049c-.04.131-.095.219-.155.28-.013.033-.019.068-.002.098h.002c.014.006.03.012.052.014s.031.006.035.014c.101.017.183.049.249.086.088.045.15.104.193.168.059.084.084.178.08.273-.003.156-.08.311-.196.393-.153.111-.204.326-.222.627l-.004 1.137-.074 3.74c.115-.193.27-.426.463-.672v.002a5.69 5.69 0 0 1 .895-.91V3.85c.001-2.012-.81-3.832-2.12-5.155z" fill="url(#a)"/><radialGradient id="b" cx="143.539" cy="114.308" r="149.747" gradientUnits="userSpaceOnUse"><stop offset="0" stop-color="#d7edf3"/><stop offset=".248" stop-color="#d8edf0"/><stop offset=".42" stop-color="#dbede7"/><stop offset=".568" stop-color="#dfedd8"/><stop offset=".703" stop-color="#e6eec2"/><stop offset=".829" stop-color="#efeea6"/><stop offset=".947" stop-color="#f9ef84"/><stop offset="1" stop-color="#ffef72"/></radialGradient><path d="M184.158 13.211l-.167.041-.058.016-.688.203.002.002c-.008.002-.014.002-.021.004s-.015.004-.023.004l-.121.023-.073.01-.147 7.449c-.001.053.025.104.063.154l.007.008c.064.08.157.156.227.238.013.014.018.02.023.028l.013.016c.016.02.02.028.024.034.024.037.034.061.041.084l.008.035.001.032-.001.024c-.001.008-.003.018-.005.025-.007.024-.013.035-.02.049s-.017.029-.025.041l-.034.041-.021.02-.021.019c-.01.008-.018.016-.03.024s-.014.012-.023.017l-.035.025-.048.029c-.015.01-.163.151-.166.278l-.051 1.416c-.089 4.23-.289 15.49.004 16.396.217.674.319 1.051.165 1.307-.03.059-.068.152-.037.182v.002c.042.037.007.103 0 .115.005.012.009.023.013.031.023.043.028.084.026.121.001.02.004.031.004.045 0 .094-.03.189-.073.281-.099.244-.275.492-.329.601-.095.186.033 1.07.033 1.07-.006-.035-.014-.07-.023-.104.007.055.013.09.013.09a1.56 1.56 0 0 0-.052-.201c0 .01.001.022.001.031l.02.15a.94.94 0 0 0-.018-.08l.174 5.159c.054-.207.205-.781.276-.996l.009-.029c-.01-.012-.021-.023-.03-.035-.013-.02-.026-.037-.039-.055-.098-.152-.16-.346-.183-.551-.008-.053-.01-.105-.014-.158s-.003-.105 0-.16a3.62 3.62 0 0 1 .023-.326c.059-.436.188-.863.33-1.25a8.86 8.86 0 0 1 .225-.551l.115-.25.057-.119c.02-.037.037-.076.056-.111.036-.076.073-.145.107-.211a4.58 4.58 0 0 1 .101-.188l.166-.301.112-.191.039-.066-.141.264-.159.307c-.016.031-.031.065-.047.096a18.04 18.04 0 0 1 .672-1.184V13.137l-.107.035c-.045.016-.084.027-.12.039z" fill="url(#b)"/><radialGradient id="c" cx="143.505" cy="114.688" r="150.248" gradientUnits="userSpaceOnUse"><stop offset="0" stop-color="#d7edf3"/><stop offset=".248" stop-color="#d8edf0"/><stop offset=".42" stop-color="#dbede7"/><stop offset=".568" stop-color="#dfedd8"/><stop offset=".703" stop-color="#e6eec2"/><stop offset=".829" stop-color="#efeea6"/><stop offset=".947" stop-color="#f9ef84"/><stop offset="1" stop-color="#ffef72"/></radialGradient><path d="M183.946 13.264l.207-.068.115-.043.115-.047h0l-.437.158z" fill="url(#c)"/><radialGradient id="d" cx="15.127" cy="67.85" r=".007" gradientUnits="userSpaceOnUse"><stop offset="0" stop-color="#d7edf3"/><stop offset=".248" stop-color="#d8edf0"/><stop offset=".42" stop-color="#dbede7"/><stop offset=".568" stop-color="#dfedd8"/><stop offset=".703" stop-color="#e6eec2"/><stop offset=".829" stop-color="#efeea6"/><stop offset=".947" stop-color="#f9ef84"/><stop offset="1" stop-color="#ffef72"/></radialGradient><path d="M15.124 67.84l.006.02h0l-.006-.02z" fill="url(#d)"/><radialGradient id="e" cx="63.586" cy="114.29" r="149.729" gradientUnits="userSpaceOnUse"><stop offset="0" stop-color="#d7edf3"/><stop offset=".248" stop-color="#d8edf0"/><stop offset=".42" stop-color="#dbede7"/><stop offset=".568" stop-color="#dfedd8"/><stop offset=".703" stop-color="#e6eec2"/><stop offset=".829" stop-color="#efeea6"/><stop offset=".947" stop-color="#f9ef84"/><stop offset="1" stop-color="#ffef72"/></radialGradient><path d="M-1.543 24.459l.169.264c.026.045.047.094.07.141l.059.144a1.29 1.29 0 0 1 .076.6l-.014.074c-.003.017-.008.033-.012.051.007.008.015.014.021.02.178.148.627.592.734.697-.331-1.365-.816-2.959-1.531-4.725l-.052-.127-.049-.119c-.097-.098-.232-.225-.448-.4v2.451l.106.076c.309.238.62.517.871.853z" fill="url(#e)"/><radialGradient id="f" cx="63.599" cy="114.306" r="149.776" gradientUnits="userSpaceOnUse"><stop offset="0" stop-color="#d7edf3"/><stop offset=".248" stop-color="#d8edf0"/><stop offset=".42" stop-color="#dbede7"/><stop offset=".568" stop-color="#dfedd8"/><stop offset=".703" stop-color="#e6eec2"/><stop offset=".829" stop-color="#efeea6"/><stop offset=".947" stop-color="#f9ef84"/><stop offset="1" stop-color="#ffef72"/></radialGradient><path d="M-.286 91.037l-.033-.432-.004.004-.097-1.355c-.017-.123-.034-.176-.043-.197-.03-.051-.086-.119-.182-.201-.09-.076-.119-.164-.122-.269-.008-.254.164-.715.201-.809.24-.709.605-1.758.464-3.299-.088-.959.048-6.502.163-10.57l.101-3.34c-.009.011-.012.021-.012.021l.007-1.02c-.063-.057-.151-.115-.179-.18-.026-.016-.054-.031-.076-.047-.21-.141-.317-.315-.3-.465v-.006a.5.5 0 0 1 .059-.207 9.73 9.73 0 0 0-.513-.195c-.001.012-.001.022-.002.029s-.003.016-.005.025a.41.41 0 0 1-.04.096.48.48 0 0 1-.154.15.98.98 0 0 1-.21.096 1.92 1.92 0 0 1-.502.088 3.84 3.84 0 0 1-.567-.002l-.187-.018V96.15c0 1.922.741 3.668 1.951 4.975l.288-9.857c0-.102-.002-.18-.006-.231z" fill="url(#f)"/><radialGradient id="g" cx="63.575" cy="114.307" r="149.722" gradientUnits="userSpaceOnUse"><stop offset="0" stop-color="#d7edf3"/><stop offset=".248" stop-color="#d8edf0"/><stop offset=".42" stop-color="#dbede7"/><stop offset=".568" stop-color="#dfedd8"/><stop offset=".703" stop-color="#e6eec2"/><stop offset=".829" stop-color="#efeea6"/><stop offset=".947" stop-color="#f9ef84"/><stop offset="1" stop-color="#ffef72"/></radialGradient><path d="M6.437 98.762c-.033-.08-.056-.16-.057-.24 0-.012.002-.021.003-.031-.001-.039.003-.074.021-.11a.18.18 0 0 1 .01-.027c-.006-.01-.033-.066 0-.1.023-.025-.008-.105-.028-.154-.042-.078-.059-.168-.057-.277-.172-.117-.261-.27-.246-.402.003-.088.035-.174.087-.256.01-.016.018-.033.026-.049l.038-.074c.102-.229.155-.553.176-1.006l.008-.242.027-1.385-.426-.496-.324-.406-.357-.457-.366-.5-.155-.215.33 10.967.001.172H6.36l.127-4.592a1.33 1.33 0 0 1-.05-.12z" fill="url(#g)"/><radialGradient id="h" cx="63.582" cy="114.308" r="149.742" gradientUnits="userSpaceOnUse"><stop offset="0" stop-color="#d7edf3"/><stop offset=".248" stop-color="#d8edf0"/><stop offset=".42" stop-color="#dbede7"/><stop offset=".568" stop-color="#dfedd8"/><stop offset=".703" stop-color="#e6eec2"/><stop offset=".829" stop-color="#efeea6"/><stop offset=".947" stop-color="#f9ef84"/><stop offset="1" stop-color="#ffef72"/></radialGradient><path d="M5.969 73.994l.295 1.871.022-.656c-.16-.592-.294-1.326-.356-2.178a10.98 10.98 0 0 1 .013-1.604l-.124.309c-.037.117-.019.24-.024.35l.01.121c.001.016 0 .029 0 .045l.164 1.742z" fill="url(#h)"/><radialGradient id="i" cx="63.589" cy="114.325" r="149.77" gradientUnits="userSpaceOnUse"><stop offset="0" stop-color="#d7edf3"/><stop offset=".248" stop-color="#d8edf0"/><stop offset=".42" stop-color="#dbede7"/><stop offset=".568" stop-color="#dfedd8"/><stop offset=".703" stop-color="#e6eec2"/><stop offset=".829" stop-color="#efeea6"/><stop offset=".947" stop-color="#f9ef84"/><stop offset="1" stop-color="#ffef72"/></radialGradient><path d="M-.96 68.102c.024.041.052.094.074.16a.86.86 0 0 1 .025.1l.588.197.031-.053.052-.09a1.53 1.53 0 0 0 .059-.141c-.87-.846-1.682-1.533-2.386-2.053l-.002 1.043c.858.171 1.361.483 1.559.837z" fill="url(#i)"/><radialGradient id="j" cx="63.576" cy="114.3" r="149.731" gradientUnits="userSpaceOnUse"><stop offset="0" stop-color="#d7edf3"/><stop offset=".248" stop-color="#d8edf0"/><stop offset=".42" stop-color="#dbede7"/><stop offset=".568" stop-color="#dfedd8"/><stop offset=".703" stop-color="#e6eec2"/><stop offset=".829" stop-color="#efeea6"/><stop offset=".947" stop-color="#f9ef84"/><stop offset="1" stop-color="#ffef72"/></radialGradient><path d="M-.138 42.889l.127-4.158-.007-.23-.034-.434a87.34 87.34 0 0 1-.1-1.351c-.016-.123-.033-.176-.042-.195a.84.84 0 0 0-.183-.203c-.09-.074-.119-.164-.123-.269-.008-.252.165-.713.201-.807.242-.709.606-1.76.465-3.301-.029-.32-.033-1.154-.022-2.275l-.111-.83-.296-1.611c-.005-.012-.009-.024-.011-.037l-.021-.106c-.035-.098-.049-.215-.117-.309-.058-.08-.423-.504-.78-.838l-.047-.041c-.006-.004-.011-.008-.016-.012l-.005.008c-.055.086-.13.146-.21.193-.16.088-.332.121-.487.133-.024.002-.044 0-.067 0-.145.008-.31-.002-.494-.031v15.543l.449.111c.786.216 1.433.628 1.931 1.05z" fill="url(#j)"/><radialGradient id="k" cx="63.577" cy="114.305" r="149.733" gradientUnits="userSpaceOnUse"><stop offset="0" stop-color="#d7edf3"/><stop offset=".248" stop-color="#d8edf0"/><stop offset=".42" stop-color="#dbede7"/><stop offset=".568" stop-color="#dfedd8"/><stop offset=".703" stop-color="#e6eec2"/><stop offset=".829" stop-color="#efeea6"/><stop offset=".947" stop-color="#f9ef84"/><stop offset="1" stop-color="#ffef72"/></radialGradient><path d="M-2.488 66.084l.003.014 1.602 1.264.178.146.638.565c.061-.234.097-.523.114-.879l.008-.294.2-10.098c.023-1.154-.186-1.695-.521-2.232a.55.55 0 0 1-.136-.289c-.002-.043-.001-.069.004-.092a.38.38 0 0 1 .029-.078l.001-.002c.05-.092.136-.143.169-.16.094-.058.203-.102.307-.133-.014-.014-.031-.037-.043-.08l-.215-.09-.031-.02s-.001-.119.058-.111c0 0-.327-1.254-.216-1.998 0 0-.001.068.014.18l.016-.16s0 .094.024.242l-.025-1.406.045-3.41-.282-.074-.299-.078-.073-.02-.072-.023-.143-.043-.278-.086-.135-.045-.13-.047-.249-.088-.231-.086-.359-.146v19.781l.028.076z" fill="url(#k)"/><radialGradient id="l" cx="63.588" cy="114.304" r="149.745" gradientUnits="userSpaceOnUse"><stop offset="0" stop-color="#d7edf3"/><stop offset=".248" stop-color="#d8edf0"/><stop offset=".42" stop-color="#dbede7"/><stop offset=".568" stop-color="#dfedd8"/><stop offset=".703" stop-color="#e6eec2"/><stop offset=".829" stop-color="#efeea6"/><stop offset=".947" stop-color="#f9ef84"/><stop offset="1" stop-color="#ffef72"/></radialGradient><path d="M-.194 44.516l-.151-.006-.124-.018c-.045-.006-.094-.008-.146-.02l-.164-.031c-.058-.01-.117-.029-.181-.043l-.193-.059-.103-.031-.105-.039-.105-.041-.107-.045-.109-.047-.11-.055c-.148-.07-.298-.152-.446-.242l-.279-.182v2.072a8.3 8.3 0 0 1 2.296-.326l.027-.887z" fill="url(#l)"/><radialGradient id="m" cx="143.537" cy="114.266" r="149.662" gradientUnits="userSpaceOnUse"><stop offset="0" stop-color="#d7edf3"/><stop offset=".248" stop-color="#d8edf0"/><stop offset=".42" stop-color="#dbede7"/><stop offset=".568" stop-color="#dfedd8"/><stop offset=".703" stop-color="#e6eec2"/><stop offset=".829" stop-color="#efeea6"/><stop offset=".947" stop-color="#f9ef84"/><stop offset="1" stop-color="#ffef72"/></radialGradient><path d="M157.425 43.994l.143.109.222.172a2.73 2.73 0 0 0-.383-.293c.006.004.01.008.018.012z" fill="url(#m)"/><radialGradient id="n" cx="143.554" cy="114.312" r="149.708" gradientUnits="userSpaceOnUse"><stop offset="0" stop-color="#d7edf3"/><stop offset=".248" stop-color="#d8edf0"/><stop offset=".42" stop-color="#dbede7"/><stop offset=".568" stop-color="#dfedd8"/><stop offset=".703" stop-color="#e6eec2"/><stop offset=".829" stop-color="#efeea6"/><stop offset=".947" stop-color="#f9ef84"/><stop offset="1" stop-color="#ffef72"/></radialGradient><path d="M168.727 86.484l-.229-.189-.768-.713-.189-.193-.188-.197-.186-.199-.061-.064.152 4.828c.219.672.32 1.051.165 1.305-.029.059-.068.152-.037.182.036.049.007.106 0 .117.006.012.01.023.013.033.023.041.029.082.027.119l.003.045c0 .094-.03.189-.073.281-.048.117-.111.234-.173.338.512.285 1.072.633 1.644 1.051l-.042-3.441-.058-3.303z" fill="url(#n)"/><radialGradient id="o" cx="143.529" cy="114.303" r="149.758" gradientUnits="userSpaceOnUse"><stop offset="0" stop-color="#d7edf3"/><stop offset=".248" stop-color="#d8edf0"/><stop offset=".42" stop-color="#dbede7"/><stop offset=".568" stop-color="#dfedd8"/><stop offset=".703" stop-color="#e6eec2"/><stop offset=".829" stop-color="#efeea6"/><stop offset=".947" stop-color="#f9ef84"/><stop offset="1" stop-color="#ffef72"/></radialGradient><path d="M168.636 82.814l-.024-1.193a9.94 9.94 0 0 1-.797-.275c-.011-.004-.036-.01-.075-.021l-.227-.064-.159-.057-.09-.033c-.016-.008-.031-.012-.048-.018s-.032-.014-.049-.021-.025-.012-.038-.016l-.006.563c.435.281.88.604 1.317.971l.196.164z" fill="url(#o)"/><radialGradient id="p" cx="143.535" cy="114.492" r="150.296" gradientUnits="userSpaceOnUse"><stop offset="0" stop-color="#d7edf3"/><stop offset=".248" stop-color="#d8edf0"/><stop offset=".42" stop-color="#dbede7"/><stop offset=".568" stop-color="#dfedd8"/><stop offset=".703" stop-color="#e6eec2"/><stop offset=".829" stop-color="#efeea6"/><stop offset=".947" stop-color="#f9ef84"/><stop offset="1" stop-color="#ffef72"/></radialGradient><path d="M167.229 81.113l.047.022.089.037.154.066.279.102-.615-.25.046.023z" fill="url(#p)"/><radialGradient id="q" cx="142.534" cy="114.352" r="152.858" gradientUnits="userSpaceOnUse"><stop offset="0" stop-color="#d7edf3"/><stop offset=".248" stop-color="#d8edf0"/><stop offset=".42" stop-color="#dbede7"/><stop offset=".568" stop-color="#dfedd8"/><stop offset=".703" stop-color="#e6eec2"/><stop offset=".829" stop-color="#efeea6"/><stop offset=".947" stop-color="#f9ef84"/><stop offset="1" stop-color="#ffef72"/></radialGradient><path d="M176.37 90.422l.016-.156-.012.043-.004.113z" fill="url(#q)"/><radialGradient id="r" cx="143.56" cy="114.311" r="149.715" gradientUnits="userSpaceOnUse"><stop offset="0" stop-color="#d7edf3"/><stop offset=".248" stop-color="#d8edf0"/><stop offset=".42" stop-color="#dbede7"/><stop offset=".568" stop-color="#dfedd8"/><stop offset=".703" stop-color="#e6eec2"/><stop offset=".829" stop-color="#efeea6"/><stop offset=".947" stop-color="#f9ef84"/><stop offset="1" stop-color="#ffef72"/></radialGradient><path d="M168.419 79.498h0l.1.143.021.029.034.053-.012-.637-.813-1.404-.561-.875-.02 1.289c.509.449.924.941 1.251 1.402z" fill="url(#r)"/><radialGradient id="s" cx="143.531" cy="114.44" r="149.936" gradientUnits="userSpaceOnUse"><stop offset="0" stop-color="#d7edf3"/><stop offset=".248" stop-color="#d8edf0"/><stop offset=".42" stop-color="#dbede7"/><stop offset=".568" stop-color="#dfedd8"/><stop offset=".703" stop-color="#e6eec2"/><stop offset=".829" stop-color="#efeea6"/><stop offset=".947" stop-color="#f9ef84"/><stop offset="1" stop-color="#ffef72"/></radialGradient><path d="M177.511 20.484l.271-.508.02-.279.005-.115c-.129.375-.27.506-.421.475-.014.359-.016.586.009.646l.116-.219z" fill="url(#s)"/><radialGradient id="t" cx="143.528" cy="114.307" r="149.77" gradientUnits="userSpaceOnUse"><stop offset="0" stop-color="#d7edf3"/><stop offset=".248" stop-color="#d8edf0"/><stop offset=".42" stop-color="#dbede7"/><stop offset=".568" stop-color="#dfedd8"/><stop offset=".703" stop-color="#e6eec2"/><stop offset=".829" stop-color="#efeea6"/><stop offset=".947" stop-color="#f9ef84"/><stop offset="1" stop-color="#ffef72"/></radialGradient><path d="M168.546 78.316l-.016-.773c-.169-.602-.312-1.361-.375-2.248-.096-1.309.109-2.656.273-3.473v-.002c-.014-.252-.055-.43-.168-.524-.088-.07-.147-.201-.15-.336a.42.42 0 0 1 .061-.23.38.38 0 0 1 .146-.143c.041-.027.091-.047.147-.063.087-.018.085-.078.071-.127-.031-.047-.059-.111-.083-.193l-.131-.076.001-.004s.019-.049.042-.146c.003-.024.008-.039.013-.053l.04-.223.026-.303-.018-.014.006-.01h0 0l.005-.01c.01-.008.012-.019.013-.033.013-.143.01-.432.003-.684l-.013-.199c-.011-.145-.016-.434-.013-.832l.164-7.057-.109-.152-.13-.188-.245-.357-.414-.637-.13-.209-.232 11.703c-.001.053.023.102.061.152.073.092.186.182.261.277l.01.014.025.035c.023.035.033.059.041.084.004.014.005.026.008.035l.001.028-.001.026c-.001.01-.003.018-.006.025-.006.024-.012.037-.019.049s-.017.029-.026.043l-.034.039-.02.02c-.007.008-.015.014-.021.02l-.03.025-.023.018c-.011.006-.022.016-.035.023l-.048.029c-.015.01-.164.151-.167.278l-.051 1.416-.002-.002-.053 2.789.227.34 1.118 1.833z" fill="url(#t)"/><radialGradient id="u" cx="143.527" cy="114.322" r="149.792" gradientUnits="userSpaceOnUse"><stop offset="0" stop-color="#d7edf3"/><stop offset=".248" stop-color="#d8edf0"/><stop offset=".42" stop-color="#dbede7"/><stop offset=".568" stop-color="#dfedd8"/><stop offset=".703" stop-color="#e6eec2"/><stop offset=".829" stop-color="#efeea6"/><stop offset=".947" stop-color="#f9ef84"/><stop offset="1" stop-color="#ffef72"/></radialGradient><path d="M167.571 58.402l1.068.418.025-.891-.37-.387-.239-.279-.226-.287-.022-.031c-.165.123-.218.338-.235.639l-.001.818z" fill="url(#u)"/><radialGradient id="v" cx="143.547" cy="114.324" r="149.776" gradientUnits="userSpaceOnUse"><stop offset="0" stop-color="#d7edf3"/><stop offset=".248" stop-color="#d8edf0"/><stop offset=".42" stop-color="#dbede7"/><stop offset=".568" stop-color="#dfedd8"/><stop offset=".703" stop-color="#e6eec2"/><stop offset=".829" stop-color="#efeea6"/><stop offset=".947" stop-color="#f9ef84"/><stop offset="1" stop-color="#ffef72"/></radialGradient><path d="M167.606 54.236l-.007.422.706.252c.016-.191.08-.436.174-.766.058-.201.088-1.01.101-2.154l-.984-1.182.042 2.219-.015.976-.017.233z" fill="url(#v)"/><radialGradient id="w" cx="143.539" cy="114.302" r="149.738" gradientUnits="userSpaceOnUse"><stop offset="0" stop-color="#d7edf3"/><stop offset=".248" stop-color="#d8edf0"/><stop offset=".42" stop-color="#dbede7"/><stop offset=".568" stop-color="#dfedd8"/><stop offset=".703" stop-color="#e6eec2"/><stop offset=".829" stop-color="#efeea6"/><stop offset=".947" stop-color="#f9ef84"/><stop offset="1" stop-color="#ffef72"/></radialGradient><path d="M176.706 78.699c-.03-.098-.238-.604-.47-1.055l-.069 1.1-.001-.004-.025.369-.005.195.09 3.113c.008-.016.017-.031.022-.047l.052-.107.002-.004.047.156.203-1.375.171-1.809-.001-.047.01-.123c-.005-.114.013-.241-.026-.362z" fill="url(#w)"/><radialGradient id="x" cx="144.197" cy="116.387" r="153.168" gradientUnits="userSpaceOnUse"><stop offset="0" stop-color="#d7edf3"/><stop offset=".248" stop-color="#d8edf0"/><stop offset=".42" stop-color="#dbede7"/><stop offset=".568" stop-color="#dfedd8"/><stop offset=".703" stop-color="#e6eec2"/><stop offset=".829" stop-color="#efeea6"/><stop offset=".947" stop-color="#f9ef84"/><stop offset="1" stop-color="#ffef72"/></radialGradient><path d="M168.469 41.094l-.018.037.018-.035v-.002z" fill="url(#x)"/><radialGradient id="y" cx="143.545" cy="113.94" r="148.658" gradientUnits="userSpaceOnUse"><stop offset="0" stop-color="#d7edf3"/><stop offset=".248" stop-color="#d8edf0"/><stop offset=".42" stop-color="#dbede7"/><stop offset=".568" stop-color="#dfedd8"/><stop offset=".703" stop-color="#e6eec2"/><stop offset=".829" stop-color="#efeea6"/><stop offset=".947" stop-color="#f9ef84"/><stop offset="1" stop-color="#ffef72"/></radialGradient><path d="M158.005 68.439c.051.014.099.018.143.027l.122.021.201.023-.471-.074.005.003z" fill="url(#y)"/><radialGradient id="z" cx="143.523" cy="114.301" r="149.746" gradientUnits="userSpaceOnUse"><stop offset="0" stop-color="#d7edf3"/><stop offset=".248" stop-color="#d8edf0"/><stop offset=".42" stop-color="#dbede7"/><stop offset=".568" stop-color="#dfedd8"/><stop offset=".703" stop-color="#e6eec2"/><stop offset=".829" stop-color="#efeea6"/><stop offset=".947" stop-color="#f9ef84"/><stop offset="1" stop-color="#ffef72"/></radialGradient><path d="M168.585 51.494l-.005-2.75c-.054-.654-.059-1.307-.018-1.912l-.026-1.92-.023.018c-.124.086-.27.164-.431.188-.079.008-.161.004-.238-.033l-.008-.004-.028.082c-.14.5-.254 1.078-.266 1.182-.016.125.024.236.035.342.024.24-.049.18-.11.01l.117 3.688 1.001 1.109z" fill="url(#z)"/><radialGradient id="AA" cx="143.532" cy="114.313" r="149.762" gradientUnits="userSpaceOnUse"><stop offset="0" stop-color="#d7edf3"/><stop offset=".248" stop-color="#d8edf0"/><stop offset=".42" stop-color="#dbede7"/><stop offset=".568" stop-color="#dfedd8"/><stop offset=".703" stop-color="#e6eec2"/><stop offset=".829" stop-color="#efeea6"/><stop offset=".947" stop-color="#f9ef84"/><stop offset="1" stop-color="#ffef72"/></radialGradient><path d="M176.27 46.311a22.35 22.35 0 0 0 1.049 2.471l.158-5.01-.008-.23-.034-.434c-.002.004-.018-.199-.036-.453a2.95 2.95 0 0 1-.463.326l-.157.08a1.15 1.15 0 0 1-.493.113c-.073-.002-.148-.016-.221-.043l.006.994-.017 1.197c.018-.127.018-.207.018-.207l.013.139c.012-.096.01-.154.01-.154.028.205.021.455-.001.699l.176.512z" fill="url(#AA)"/><radialGradient id="AB" cx="143.538" cy="114.323" r="149.77" gradientUnits="userSpaceOnUse"><stop offset="0" stop-color="#d7edf3"/><stop offset=".248" stop-color="#d8edf0"/><stop offset=".42" stop-color="#dbede7"/><stop offset=".568" stop-color="#dfedd8"/><stop offset=".703" stop-color="#e6eec2"/><stop offset=".829" stop-color="#efeea6"/><stop offset=".947" stop-color="#f9ef84"/><stop offset="1" stop-color="#ffef72"/></radialGradient><path d="M177.77 26.164l-.083.047-.143.082-.209.104-.065.031-.852.463-.077.035c-.033.016-.065.027-.097.041-.024.01-.048.018-.071.025-.029.012-.058.019-.084.029l-.043.012a.65.65 0 0 1-.095.02l-.032.004c-.029.004-.057.004-.08.002-.007 0-.014-.002-.02-.004-.022-.002-.043-.008-.061-.016l-.068.103-.018 1.272c-.105 1.313.175 2.209.36 2.813.027.08.159.473.153.689-.001.09-.024.166-.099.23a.93.93 0 0 0-.132.17c-.007.018-.019.063-.031.166l-.071 1.156-.002-.004-.025.369-.001.024c.56-.867 1.219-1.613 1.857-2.225l.145-5.674-.056.036z" fill="url(#AB)"/><radialGradient id="AC" cx="143.529" cy="114.285" r="149.719" gradientUnits="userSpaceOnUse"><stop offset="0" stop-color="#d7edf3"/><stop offset=".248" stop-color="#d8edf0"/><stop offset=".42" stop-color="#dbede7"/><stop offset=".568" stop-color="#dfedd8"/><stop offset=".703" stop-color="#e6eec2"/><stop offset=".829" stop-color="#efeea6"/><stop offset=".947" stop-color="#f9ef84"/><stop offset="1" stop-color="#ffef72"/></radialGradient><path d="M177.073 36.814l-.156.189-.215.238-.271.268-.326.273-.175.123.078 2.498.184-.355.129-.227.063-.105.062-.102.121-.188.112-.166.188-.266.126-.168.044-.059-.158.234-.179.274-.07.111a14.37 14.37 0 0 1 .875-1.203l.173-.211a7.16 7.16 0 0 0-.023-.992c-.016-.168-.023-.475-.027-.889l-.495.629.071-.078-.033.045-.098.127z" fill="url(#AC)"/><radialGradient id="AD" cx="143.516" cy="114.284" r="149.725" gradientUnits="userSpaceOnUse"><stop offset="0" stop-color="#d7edf3"/><stop offset=".248" stop-color="#d8edf0"/><stop offset=".42" stop-color="#dbede7"/><stop offset=".568" stop-color="#dfedd8"/><stop offset=".703" stop-color="#e6eec2"/><stop offset=".829" stop-color="#efeea6"/><stop offset=".947" stop-color="#f9ef84"/><stop offset="1" stop-color="#ffef72"/></radialGradient><path d="M177.533 26.275l.139-.09.079-.051a.3.3 0 0 1 .041-.025c.012-.01.023-.02.036-.027h0l-.524.326.229-.133z" fill="url(#AD)"/><radialGradient id="AE" cx="143.56" cy="114.293" r="149.713" gradientUnits="userSpaceOnUse"><stop offset="0" stop-color="#d7edf3"/><stop offset=".248" stop-color="#d8edf0"/><stop offset=".42" stop-color="#dbede7"/><stop offset=".568" stop-color="#dfedd8"/><stop offset=".703" stop-color="#e6eec2"/><stop offset=".829" stop-color="#efeea6"/><stop offset=".947" stop-color="#f9ef84"/><stop offset="1" stop-color="#ffef72"/></radialGradient><path d="M177.733 21.895l-.069-.045c-.15-.1-.246-.211-.285-.322l-.194.416-.543 1.266-.963 2.756.008.758c.004-.012.006-.021.008-.033.027-.109.099-.408.242-.816l.009-.024.031-.088.02-.051.026-.07.029-.074.023-.057.038-.094.018-.045.049-.111.015-.033.058-.127c.003-.008.007-.016.011-.023l.068-.141.004-.01c.338-.684.839-1.461 1.574-2.141l.004-.713c-.063-.057-.152-.114-.181-.178z" fill="url(#AE)"/><radialGradient id="AF" cx="177.446" cy="70.393" r=".005" gradientUnits="userSpaceOnUse"><stop offset="0" stop-color="#d7edf3"/><stop offset=".248" stop-color="#d8edf0"/><stop offset=".42" stop-color="#dbede7"/><stop offset=".568" stop-color="#dfedd8"/><stop offset=".703" stop-color="#e6eec2"/><stop offset=".829" stop-color="#efeea6"/><stop offset=".947" stop-color="#f9ef84"/><stop offset="1" stop-color="#ffef72"/></radialGradient><path d="M177.449 70.398l-.001-.002z" fill="url(#AF)"/><radialGradient id="AG" cx="143.542" cy="114.307" r="149.743" gradientUnits="userSpaceOnUse"><stop offset="0" stop-color="#d7edf3"/><stop offset=".248" stop-color="#d8edf0"/><stop offset=".42" stop-color="#dbede7"/><stop offset=".568" stop-color="#dfedd8"/><stop offset=".703" stop-color="#e6eec2"/><stop offset=".829" stop-color="#efeea6"/><stop offset=".947" stop-color="#f9ef84"/><stop offset="1" stop-color="#ffef72"/></radialGradient><path d="M177.086 59.324c-.002-.045-.001-.071.005-.094a.32.32 0 0 1 .029-.076l.001-.004c.05-.092.135-.143.169-.16.093-.059.203-.102.307-.133-.014-.014-.032-.037-.043-.08l-.216-.09-.03-.02s-.002-.119.057-.111c0 0-.326-1.254-.217-1.998 0 0 0 .068.015.18a1.6 1.6 0 0 1 .017-.16s0 .094.023.244l-.025-1.408.119-5.918-.03-.053-.075-.141-.045-.086-.077-.148-.04-.078-.122-.246-.021-.041-.117-.246-.029-.064-.036-.078.001.002-.719-1.76-.051.244c.045-.006.044.096.044.096l-.023.012c0 .004-.017.014-.044.025-.02.084-.054.158-.107.227.02.143-.015.203-.035.227.078.027.162.063.233.113a.35.35 0 0 1 .128.139h.001c.009.02.017.037.021.059.006.028.007.049.006.072-.006.084-.035.166-.104.26-.254.459-.411.918-.391 1.902l.171 8.605.009.25c.02.471.076.807.182 1.043.002.004.018.031.039.078.01.016.018.035.027.049.055.086.088.174.091.262v.004c.016.147-.087.313-.283.438-.022.055-.089.104-.137.152l.007.869.114 4.332.057.23.001-.004.016.068.422 2.008.629 4.676a2.57 2.57 0 0 1 .148-.414l.393-.938.02-.975c-.011-.014-.02-.027-.03-.043-.081-.125-.161-.293-.224-.498s-.108-.443-.128-.709-.02-.553.002-.855.061-.617.121-.941l.227-.986.036-.123.037-.123.046-.148.087-4.394c.022-1.154-.186-1.693-.521-2.23a.58.58 0 0 1-.138-.292z" fill="url(#AG)"/><radialGradient id="AH" cx="144.102" cy="114.474" r="149.175" gradientUnits="userSpaceOnUse"><stop offset="0" stop-color="#d7edf3"/><stop offset=".248" stop-color="#d8edf0"/><stop offset=".42" stop-color="#dbede7"/><stop offset=".568" stop-color="#dfedd8"/><stop offset=".703" stop-color="#e6eec2"/><stop offset=".829" stop-color="#efeea6"/><stop offset=".947" stop-color="#f9ef84"/><stop offset="1" stop-color="#ffef72"/></radialGradient><path d="M177.556 70.611z" fill="url(#AH)"/><radialGradient id="AI" cx="177.352" cy="70.113" r=".007" gradientUnits="userSpaceOnUse"><stop offset="0" stop-color="#d7edf3"/><stop offset=".248" stop-color="#d8edf0"/><stop offset=".42" stop-color="#dbede7"/><stop offset=".568" stop-color="#dfedd8"/><stop offset=".703" stop-color="#e6eec2"/><stop offset=".829" stop-color="#efeea6"/><stop offset=".947" stop-color="#f9ef84"/><stop offset="1" stop-color="#ffef72"/></radialGradient><path d="M177.351 70.111l.004.012-.006-.02z" fill="url(#AI)"/><radialGradient id="AJ" cx="177.498" cy="70.505" r=".005" gradientUnits="userSpaceOnUse"><stop offset="0" stop-color="#d7edf3"/><stop offset=".248" stop-color="#d8edf0"/><stop offset=".42" stop-color="#dbede7"/><stop offset=".568" stop-color="#dfedd8"/><stop offset=".703" stop-color="#e6eec2"/><stop offset=".829" stop-color="#efeea6"/><stop offset=".947" stop-color="#f9ef84"/><stop offset="1" stop-color="#ffef72"/></radialGradient><path d="M177.501 70.512l-.004-.008-.003-.006z" fill="url(#AJ)"/><radialGradient id="AK" cx="143.541" cy="114.31" r="149.75" gradientUnits="userSpaceOnUse"><stop offset="0" stop-color="#d7edf3"/><stop offset=".248" stop-color="#d8edf0"/><stop offset=".42" stop-color="#dbede7"/><stop offset=".568" stop-color="#dfedd8"/><stop offset=".703" stop-color="#e6eec2"/><stop offset=".829" stop-color="#efeea6"/><stop offset=".947" stop-color="#f9ef84"/><stop offset="1" stop-color="#ffef72"/></radialGradient><path d="M175.974 68.102l-.044-.217.058 5.635c-.065.805.016 1.451.13 1.971l.154.385.088.336c.013.057.02.115.028.172l.012.111c.047.156.106.381.102.527-.002.09-.024.164-.099.23a.91.91 0 0 0-.122.152c.139.236.422.803.492.945.113-2.576-.006-5.951-.742-9.957l-.057-.29z" fill="url(#AK)"/><radialGradient id="AL" cx="143.542" cy="113.482" r="148.652" gradientUnits="userSpaceOnUse"><stop offset="0" stop-color="#d7edf3"/><stop offset=".248" stop-color="#d8edf0"/><stop offset=".42" stop-color="#dbede7"/><stop offset=".568" stop-color="#dfedd8"/><stop offset=".703" stop-color="#e6eec2"/><stop offset=".829" stop-color="#efeea6"/><stop offset=".947" stop-color="#f9ef84"/><stop offset="1" stop-color="#ffef72"/></radialGradient><path d="M138.788 1.418l-.148-.09c.095.082.257.17.46.271l-.128-.072-.184-.109z" fill="url(#AL)"/><radialGradient id="AM" cx="143.538" cy="114.308" r="149.754" gradientUnits="userSpaceOnUse"><stop offset="0" stop-color="#d7edf3"/><stop offset=".248" stop-color="#d8edf0"/><stop offset=".42" stop-color="#dbede7"/><stop offset=".568" stop-color="#dfedd8"/><stop offset=".703" stop-color="#e6eec2"/><stop offset=".829" stop-color="#efeea6"/><stop offset=".947" stop-color="#f9ef84"/><stop offset="1" stop-color="#ffef72"/></radialGradient><path d="M183.817 47.676c-.014.01-.025.021-.041.031-.124.086-.271.164-.432.188a.42.42 0 0 1-.238-.033l-.008-.004-.006.02-.021.063c-.141.5-.254 1.08-.267 1.182-.016.125.025.236.035.342.025.24-.049.18-.109.01l.17 6.332-.016.977-.017.232.007.803.043.434.055.262c.006.018.013.033.02.049a1.1 1.1 0 0 0 .054.186h-.003a1.53 1.53 0 0 1-.187.1c.046.016.087.035.123.057.091.045.155.105.198.174.055.082.079.174.076.266-.004.158-.082.311-.197.395-.152.109-.204.326-.221.625l-.005 1.137-.236 11.996c-.001.053.024.104.062.152.074.094.188.184.261.279.013.018.017.022.021.026l.014.021a.31.31 0 0 1 .04.084c.005.016.006.025.008.035l.001.03-.001.024c-.001.01-.003.018-.005.027-.007.022-.012.035-.02.047s-.016.029-.026.043l-.033.039c-.007.006-.014.014-.021.02s-.014.014-.021.02-.019.018-.03.025l-.023.018c-.011.006-.022.016-.035.023l-.048.031c-.015.008-.163.151-.166.276l-.051 1.416-.002-.002c-.087 4.233-.287 15.492.006 16.4.217.674.319 1.051.164 1.307-.028.057-.068.15-.037.18.037.049.008.106 0 .117.006.012.01.023.014.033.022.041.028.082.026.121.001.018.003.029.003.043 0 .096-.029.189-.072.281-.1.246-.274.494-.329.601-.096.188.034 1.07.034 1.07-.007-.035-.016-.068-.023-.102l.012.088c-.012-.068-.029-.133-.051-.199a.29.29 0 0 1 .001.029l.02.152c-.005-.027-.012-.055-.019-.082l.167 4.952c1.21-1.307 1.951-3.053 1.951-4.975V47.127c-.209.248-.399.428-.569.549z" fill="url(#AM)"/><radialGradient id="AN" cx="143.529" cy="114.307" r="149.791" gradientUnits="userSpaceOnUse"><stop offset="0" stop-color="#d7edf3"/><stop offset=".248" stop-color="#d8edf0"/><stop offset=".42" stop-color="#dbede7"/><stop offset=".568" stop-color="#dfedd8"/><stop offset=".703" stop-color="#e6eec2"/><stop offset=".829" stop-color="#efeea6"/><stop offset=".947" stop-color="#f9ef84"/><stop offset="1" stop-color="#ffef72"/></radialGradient><path d="M177.202 96.08l-.034-.434-.003.004-.098-1.355c-.016-.123-.033-.176-.042-.197a.88.88 0 0 0-.183-.201c-.089-.074-.119-.164-.121-.269-.009-.254.164-.715.2-.807.241-.711.606-1.76.464-3.301-.116-1.277.163-10.686.264-13.91-.008.014-.011.021-.011.021l.006-1.02c-.063-.057-.151-.115-.179-.18-.025-.016-.053-.031-.076-.047-.209-.141-.316-.313-.299-.465.004-.11.048-.213.118-.313.013-.018.024-.039.036-.061.028-.051.049-.086.052-.09.138-.275.21-.67.236-1.223.003-.051.004-.105.005-.158-.359.893-.429.977-.432 1.174-.002.139-.018.344-.044.436l.008.102c.158 2.42.099 4.473-.042 6.094l-.002.029h0c-.037.426-.079.82-.124 1.186a28.88 28.88 0 0 1-.355 2.193c.187.988.383 2.648.21 4.801-.067.842-.198 1.559-.368 2.162.005.035.008.07.01.107.012-.096.012-.154.012-.154.084.633-.162 1.701-.162 1.701.046-.006.044.096.044.096s-.008.004-.023.012c0 .004-.041.025-.118.061-.02.068-.051.133-.097.191.02.143-.015.203-.035.227.078.025.162.063.232.111a.35.35 0 0 1 .129.139l.001.002c.009.018.017.037.021.059.006.028.007.049.006.072v.004c-.006.078-.035.16-.104.256-.254.459-.411.918-.392 1.9l.169 8.438h.898l.228-7.162a2.81 2.81 0 0 0-.005-.231z" fill="url(#AN)"/><radialGradient id="AO" cx="143.538" cy="114.307" r="149.755" gradientUnits="userSpaceOnUse"><stop offset="0" stop-color="#d7edf3"/><stop offset=".248" stop-color="#d8edf0"/><stop offset=".42" stop-color="#dbede7"/><stop offset=".568" stop-color="#dfedd8"/><stop offset=".703" stop-color="#e6eec2"/><stop offset=".829" stop-color="#efeea6"/><stop offset=".947" stop-color="#f9ef84"/><stop offset="1" stop-color="#ffef72"/></radialGradient><path d="M168.921 102.438l.004-.039c-.001.008-.004.016-.005.023l.01-.08.006-.074c-.016.055-.03.111-.039.17l.009-.068-.017.08s.096-.752.024-.91c-.043-.094-.176-.305-.252-.514-.033-.08-.056-.16-.057-.242 0-.01.002-.02.003-.031-.001-.037.003-.072.021-.108.002-.008.006-.018.01-.025-.006-.012-.033-.068 0-.102.023-.025-.007-.105-.029-.154-.118-.219-.041-.539.123-1.113.062-.217.092-1.119.104-2.387l-.088-.102-.504-.586-.324-.404-.357-.459-.366-.5-.155-.215.291 8.875h1.574l.027-1.104-.013.069z" fill="url(#AO)"/><radialGradient id="AP" cx="176.462" cy="18.353" r=".013" gradientUnits="userSpaceOnUse"><stop offset="0" stop-color="#d7edf3"/><stop offset=".248" stop-color="#d8edf0"/><stop offset=".42" stop-color="#dbede7"/><stop offset=".568" stop-color="#dfedd8"/><stop offset=".703" stop-color="#e6eec2"/><stop offset=".829" stop-color="#efeea6"/><stop offset=".947" stop-color="#f9ef84"/><stop offset="1" stop-color="#ffef72"/></radialGradient><path d="M176.463 18.367c0-.008-.003-.021-.005-.033l.005.033z" fill="url(#AP)"/><radialGradient id="AQ" cx="143.115" cy="114.178" r="149.654" gradientUnits="userSpaceOnUse"><stop offset="0" stop-color="#d7edf3"/><stop offset=".248" stop-color="#d8edf0"/><stop offset=".42" stop-color="#dbede7"/><stop offset=".568" stop-color="#dfedd8"/><stop offset=".703" stop-color="#e6eec2"/><stop offset=".829" stop-color="#efeea6"/><stop offset=".947" stop-color="#f9ef84"/><stop offset="1" stop-color="#ffef72"/></radialGradient><path d="M158.8 12.731l-.018-.045.029.074-.011-.029z" fill="url(#AQ)"/><radialGradient id="AR" cx="121.304" cy="114.307" r="289.738" gradientUnits="userSpaceOnUse"><stop offset="0" stop-color="#d7edf3"/><stop offset=".248" stop-color="#d8edf0"/><stop offset=".42" stop-color="#dbede7"/><stop offset=".568" stop-color="#dfedd8"/><stop offset=".703" stop-color="#e6eec2"/><stop offset=".829" stop-color="#efeea6"/><stop offset=".947" stop-color="#f9ef84"/><stop offset="1" stop-color="#ffef72"/></radialGradient><path d="M161.939 93.303l-.034-.436c-.004.006-.084-1.058-.1-1.351a.87.87 0 0 0-.044-.195.81.81 0 0 0-.182-.201c-.09-.074-.119-.164-.122-.269-.008-.254.164-.715.201-.807.241-.711.605-1.76.464-3.301-.088-.959.048-6.502.163-10.57l.1-3.34c-.008.012-.01.021-.01.021l.006-1.02c-.063-.057-.152-.115-.179-.18-.026-.016-.054-.031-.076-.047-.21-.141-.317-.314-.3-.465a.5.5 0 0 1 .059-.213 9.73 9.73 0 0 0-.513-.195c-.001.012-.001.022-.002.029s-.003.016-.005.025a.37.37 0 0 1-.04.096c-.036.059-.092.109-.154.15a1.04 1.04 0 0 1-.21.098c-.152.049-.322.076-.502.088s-.371.01-.566-.004a8.62 8.62 0 0 1-.602-.07l-.153-.023-.155-.031c-.102-.019-.204-.041-.308-.063l-.307-.064-.303-.08-.299-.078c-.024-.006-.048-.012-.073-.02s-.048-.014-.072-.021c-.048-.014-.096-.029-.143-.045l-.278-.086c-.045-.014-.09-.027-.135-.043l-.13-.047-.248-.09c-.081-.029-.158-.055-.232-.086l-.402-.162-.306-.135-.196-.092c-.044-.021-.068-.035-.068-.035s.024.012.069.031l.199.084c.027.01.059.021.089.035-.198-.084-.32-.143-.352-.156-.008-.004 1.471-.627 3.253-.525 1.458.082 2.26.482 2.523.951.024.041.052.094.074.162a.78.78 0 0 1 .024.098l.588.197c.011-.018.02-.035.031-.051.028-.055.049-.088.052-.092a2.3 2.3 0 0 0 .06-.141c-.87-.846-1.681-1.531-2.386-2.053-.008.008-.018.016-.027.023-.029.018-.047.028-.069.033-.006.004-.013.006-.02.008a1.76 1.76 0 0 1-.076.018c-.007 0-.015.002-.021.002l-.09.012-.141.004h-.02-.023c-.191-.006-.434-.029-.725-.07 0 0-.026 0-.055-.002l-.174-.008c-.037-.004-.078-.01-.123-.016s-.095-.01-.146-.02l-.164-.031c-.058-.01-.117-.029-.18-.045s-.128-.037-.195-.057c-.033-.012-.067-.021-.102-.033s-.068-.025-.103-.039a3.62 3.62 0 0 1-.107-.039c-.036-.016-.071-.031-.107-.045s-.073-.031-.11-.049l-.109-.053c-.148-.072-.297-.154-.447-.244s-.296-.188-.439-.293c-.072-.053-.142-.107-.212-.162l-.204-.17-.388-.342-.184-.162-.179-.154-.328-.281-.654-.563c-.179-.078.905-.387 2.76.125.898.248 1.614.754 2.135 1.234h0c.006.004.011.01.017.016l.069.064c.011.012.021.021.032.031.021.02.041.041.062.061l.035.035.054.055c.013.014.024.027.037.039l.045.049c.014.014.027.029.042.045l.034.037.046.051c.008.01.017.02.024.029.018.02.034.039.051.059.033.037.052.061.07.082h0c.189.229.31.404.357.469.02.029.036.055.049.08.019.035.027.059.032.078l.003.014a30.67 30.67 0 0 1 1.602 1.264l.178.146.638.567c.061-.236.097-.525.114-.881l.009-.293.2-10.098c.023-1.156-.186-1.695-.52-2.232a.56.56 0 0 1-.136-.287c-.002-.045-.001-.071.004-.094.01-.033.018-.057.029-.078l.001-.002c.05-.092.136-.143.169-.16a1.4 1.4 0 0 1 .307-.135c-.014-.012-.031-.035-.043-.078-.139-.055-.215-.09-.215-.09-.02-.014-.031-.02-.031-.02s-.001-.119.058-.111c0 0-.327-1.256-.216-1.998 0 0-.001.068.014.18a1.87 1.87 0 0 1 .017-.16s-.001.094.023.242c-.016-.42-.024-.891-.025-1.406a122.68 122.68 0 0 1 .044-3.41l-.283-.074-.298-.078a.87.87 0 0 0-.073-.02l-.072-.023-.142-.043-.279-.086c-.045-.016-.089-.029-.134-.045l-.13-.047-.249-.088-.232-.086-.402-.164-.307-.133-.195-.094c-.045-.021-.068-.033-.068-.033a1.19 1.19 0 0 0 .07.031l.198.082c.025.01.057.023.086.033-.197-.082-.319-.141-.349-.154-.009-.004 1.281-.547 2.903-.535l.028-.891-.15-.006a1.89 1.89 0 0 0-.124-.016c-.046-.008-.095-.01-.145-.021a4.62 4.62 0 0 0-.165-.029c-.058-.012-.117-.029-.181-.045s-.127-.037-.193-.059a2.44 2.44 0 0 1-.103-.033l-.104-.037c-.036-.014-.07-.025-.106-.039s-.071-.031-.107-.047-.073-.029-.109-.047-.074-.035-.11-.055c-.148-.07-.298-.152-.446-.242s-.297-.188-.44-.293l-.212-.162c-.068-.059-.139-.113-.205-.172l-.387-.34-.186-.164-.178-.152-.328-.281-.654-.564c-.178-.076.904-.385 2.76.127.785.217 1.432.629 1.931 1.053l.127-4.16c-.001-.104-.002-.18-.007-.231l-.034-.434a87.34 87.34 0 0 1-.1-1.351c-.016-.123-.033-.176-.042-.195-.031-.053-.087-.121-.183-.201-.089-.076-.119-.164-.123-.269-.007-.254.165-.715.202-.809.241-.709.605-1.76.464-3.299-.029-.322-.033-1.156-.021-2.277a25.2 25.2 0 0 0-.112-.83c-.072-.482-.169-1.021-.296-1.611-.004-.012-.008-.024-.011-.037-.005-.023-.012-.06-.021-.105-.034-.098-.048-.215-.117-.309-.058-.08-.423-.502-.78-.838l-.048-.041-.019-.004c-.057.084-.131.147-.211.191-.16.092-.331.123-.487.135-.023.002-.044 0-.067.002-.638.029-1.674-.254-3.177-1.211-.032-.02-.063-.041-.097-.061l-.008-.004-.177-.102-.629-.361c-.13-.076-.266-.166-.411-.26l-.456-.291-.478-.328-.486-.346-.48-.355c-.158-.117-.309-.238-.459-.354l-.218-.17-.206-.166-.375-.307-.556-.467-.154-.133-.055-.045.058.041c.038.029.095.068.164.121.008.006.018.012.025.02l-.429-.338c-.018-.006-.028-.008-.028-.008l.003-.012h0 0l.003-.01a.82.82 0 0 0 .03.01c.323 0 2.971.033 5.708 1.188.495.209.936.422 1.324.635l-.099-.057c-.109-.063-.206-.113-.286-.154l-.251-.133s.023.012.067.031l.19.088.292.145a5.39 5.39 0 0 1 .178.094c.063.033.127.068.195.107.032.019.067.041.102.059l.106.064c.072.041.145.09.22.137.149.098.305.201.459.322.308.236.619.516.87.852.061.086.119.172.169.264.026.047.047.094.071.141.018.047.042.096.058.144.072.193.1.402.076.602-.005.023-.008.047-.014.072-.002.018-.007.033-.012.051.007.006.015.014.021.02.178.148.627.592.734.697-.331-1.365-.816-2.959-1.531-4.725a.97.97 0 0 1-.052-.127l-.049-.119c-.108-.109-.27-.26-.538-.473a.58.58 0 0 1-.109.107c-.068.049-.145.084-.223.109-.157.049-.318.064-.475.064s-.309-.016-.456-.037-.285-.053-.417-.086-.252-.07-.363-.105a9.66 9.66 0 0 1-.303-.107c-.089-.035-.165-.066-.227-.094s-.111-.049-.146-.064-.051-.024-.051-.024a1.56 1.56 0 0 0 .098.033c-.529-.207-1.134-.492-1.813-.877-.047-.027-.092-.055-.138-.082.026.02.049.033.066.045l.054.035s-.02-.012-.056-.031-.092-.047-.159-.086l-.245-.135c-.095-.051-.198-.119-.311-.188s-.238-.145-.362-.234l-.194-.133a4.13 4.13 0 0 1-.2-.143l-.202-.152c-.068-.053-.139-.104-.206-.16l-.205-.168c-.034-.027-.068-.057-.102-.084s-.068-.059-.102-.088c-.132-.119-.268-.234-.393-.358l-.188-.182-.178-.18c-.118-.119-.225-.24-.329-.352l-.28-.328c-.041-.053-.082-.101-.12-.148l-.105-.137c-.066-.086-.12-.164-.167-.227l-.101-.148c-.023-.035-.034-.055-.034-.055l.039.051c.024.033.064.08.113.141.014.016.031.037.047.057a5.32 5.32 0 0 1-.173-.232c-.009-.014 3.241.043 6.098 1.685.906.523 1.527 1.01 1.942 1.438l.052.049c.029.027.061.06.094.096s.067.07.103.111l.107.131c.035.047.075.094.109.146l.055.082c.018.027.034.057.052.086.067.117.132.25.171.396.02.072.033.15.036.231 0 .019 0 .039-.001.059l-.007.063-.016.064-.013.031.334.262c-.416-.982-.899-2.012-1.466-3.08-.047-.09-.097-.176-.145-.266l-.378-.68c-.92-1.609-1.96-3.115-3.115-4.504-.098-.1-.191-.217-.191-.217-.22-.227-.646-.498-1.166-.777a.34.34 0 0 1-.026.029h-.001c-.012.01-.025.02-.038.029-.019.01-.034.02-.052.027h-.002c-.234.103-.746.129-1.5.092a.49.49 0 0 1-.074.004l-.232.008c-.049 0-.105-.002-.164-.004-.031 0-.063-.002-.096-.002-.016 0-.032 0-.049-.002s-.034-.004-.052-.004l-.222-.019c-.078-.008-.159-.022-.244-.033s-.173-.029-.265-.049c-.045-.008-.092-.017-.139-.029s-.093-.021-.141-.033-.097-.025-.146-.037l-.148-.043c-.049-.016-.099-.029-.15-.047s-.1-.035-.151-.051a7.45 7.45 0 0 1-.616-.246 8.55 8.55 0 0 1-.613-.307c-.101-.055-.198-.115-.297-.174a4.7 4.7 0 0 1-.288-.184l-.549-.367-.261-.176-.251-.164-.463-.305-.922-.607c-.006-.002-.014-.006-.02-.008-.226-.068 1.187-.557 3.704-.141 1.218.201 2.22.732 2.956 1.256h0c.008.004.014.01.021.016l.098.07c.018.014.035.025.053.039.025.02.051.039.075.057l.067.053.052.041.083.066c.009.008.02.016.028.023l.097.08c.453.385.734.703.826.801a.49.49 0 0 1 .047.057c.006.006.011.014.016.021s.016.02.021.029.01.016.014.024.01.018.015.025.007.014.009.021.005.014.008.021c.281.135.496.246.635.318a30.18 30.18 0 0 0-3.248-3.129l-1.044-.826a34.88 34.88 0 0 0-5.024-3.18 23.76 23.76 0 0 1-.729-.363c-1.205-.58-2.296-1.006-3.203-1.287-.006.01-.012.018-.02.027-.023.024-.038.037-.057.049l-.018.012c-.02.012-.041.023-.066.035-.008.004-.017.008-.023.012-.023.01-.045.02-.07.027-.014.006-.028.012-.044.018-.024.008-.051.016-.079.025l-.059.018h-.002 0a6.98 6.98 0 0 1-.705.147c-.008.002-.026.006-.055.014l-.167.043-.122.021c-.045.008-.092.02-.143.023s-.107.014-.164.022-.119.008-.183.012-.131.006-.2.006h-.104c-.037 0-.072-.002-.108-.002l-.112-.006c-.038-.002-.075-.006-.114-.008s-.076-.006-.116-.01-.078-.01-.117-.016a5.42 5.42 0 0 1-.486-.082c-.165-.037-.331-.078-.494-.129-.082-.023-.162-.053-.244-.08s-.159-.057-.236-.088l-.455-.184-.218-.088-.209-.082-.382-.15-.767-.299c-.19-.018.762-.59 2.659-.676.919-.041 1.73.191 2.348.459.017.006.036.016.056.023a4.02 4.02 0 0 1 .224.106 3.2 3.2 0 0 1 .205.106l.183.102c.251.147.427.272.511.332.011.006.023.016.031.021a.53.53 0 0 1 .065.053c.028.028.041.043.05.059a41.95 41.95 0 0 1 1.659.573h-.003c-.146-.07-.396-.299-.705-.621l-.012.002c-.026.004-.039.004-.055.004-.034-.002-.057-.006-.082-.01l-.08-.023-.106-.039a2 2 0 0 1-.114-.055c-.045-.023-.079-.041-.114-.063-.008-.004-.016-.008-.023-.014a3.36 3.36 0 0 1-.252-.162c-.013-.01-.025-.018-.038-.027l-.097-.072-.047-.035c-.038-.029-.076-.061-.114-.092a3.6 3.6 0 0 1-.073-.063l-.063-.053h.002a6.92 6.92 0 0 1-.739-.76c-.83-.992-1.273-2.336-1.273-2.336.03.02.084.047.172.092l.19.1.248.125.617.314c.058.029.114.061.172.092s.117.064.173.101a1.52 1.52 0 0 0 .087.051c.027.022.056.039.083.059.059.037.112.078.169.117s.107.086.161.127l.153.131c.101.09.194.186.282.277.041.049.085.094.123.142s.078.094.113.141l.101.139.086.133c.028.043.052.086.075.129s.045.078.062.115l.091.193.068.176-.029-.061a2.68 2.68 0 0 1 .146.5h0a1.22 1.22 0 0 1 .014.092c.005.031.007.06.01.09l.005.045c.001.022.001.043.001.063a.48.48 0 0 1 .001.037c0 .02-.002.035-.002.053-.002.012-.002.023-.003.035l-.006.041c-.002.012-.004.021-.007.033s-.004.019-.007.029c.334.375.384.445.663.625a1.62 1.62 0 0 1 .262.191l.113.041c.639.25 1.318.539 2.032.877l.015.008.458.223c.12.057.23.109.287.143 1.014.518 2.075 1.131 3.152 1.861l.152.102c-.007-.064-.116-.262-.299-.572-.158.133-.439.004-.93-.572a4.28 4.28 0 0 1-.184-.229c-.017-.019-.032-.041-.048-.063-.058-.076-.114-.154-.17-.234-.014-.02-.026-.039-.04-.061-.046-.066-.092-.137-.136-.207-.016-.025-.03-.049-.046-.072a8.18 8.18 0 0 1-.151-.256c-.016-.027-.031-.057-.047-.084l-.053-.096-.088-.166c-.005-.01-.01-.017-.015-.027v-.002c-.62-1.209-1.03-2.617-1.087-3.711l.071.08c.004.006.061.064.158.166l.184.189.241.246.289.283c.052.051.107.1.162.15l.083.08c.029.023.059.051.088.074.117.104.245.207.366.32a5.48 5.48 0 0 1 .35.363l.081.096c.027.033.053.066.078.1.053.064.102.133.15.201a5.44 5.44 0 0 1 .263.41c.078.137.148.273.206.404.016.033.03.066.045.098s.026.064.039.098c.025.063.052.123.072.182.04.119.08.229.105.328s.053.183.066.256l.049.227-.06-.225c-.017-.07-.046-.154-.077-.252l.063.23c.003.01.006.022.009.033.02.08.036.158.05.236.005.025.008.049.013.074.009.057.016.109.021.162.003.023.005.049.007.072.006.072.011.143.01.209-.002.377-.035.691-.145.84.232.365.462.666.58.842.076.055.141.102.18.135l.726.539c.937.723 1.827 1.496 2.672 2.318-.005-.006.009.007.025.025a30.51 30.51 0 0 1 2.638 2.932l.307.396.228.301.032.043h0c.595.801 1.155 1.637 1.68 2.504v-.002l.041.07.048.076c.006-.113.007-.35.003-.689-.198-.051-.393-.369-.579-1.102-.028-.111-.054-.225-.076-.34-.007-.031-.013-.065-.019-.098-.021-.109-.04-.219-.056-.332-.006-.033-.01-.068-.014-.102-.013-.09-.023-.18-.033-.271l-.013-.119c-.011-.111-.018-.225-.026-.34-.003-.041-.004-.084-.006-.127-.002-.025-.003-.049-.004-.072 0 .012.001.021.002.033l-.01-.258.006.186c-.004-.08-.007-.158-.008-.238v-.029c-.026-1.623.276-3.346.792-4.545l.034.131.081.254.097.301.129.387c.047.143.102.295.159.457.028.08.062.162.094.246l.048.127.055.127.111.264c.02.043.037.088.057.133l.028.07.025.07c.035.09.065.186.098.279.017.049.029.098.044.144a2.62 2.62 0 0 1 .041.145l.037.146c.012.049.021.098.031.146s.021.098.029.148l.024.147c.032.195.052.389.064.576a5.24 5.24 0 0 1 .009.543l-.004.127c-.004.041-.006.082-.009.123-.008.08-.011.158-.021.232-.019.15-.033.287-.059.406s-.04.225-.064.311l-.066.266.054-.269c.02-.086.031-.191.051-.311a3.34 3.34 0 0 0 .017-.123l-.016.102c0 .012-.004.031-.008.053l-.012.068-.043.219-.055.217-.012.045c-.039.139-.083.27-.132.391l-.015.035c-.025.059-.05.117-.076.17-.208.416-.414.742-.617.832.08.801.271 1.301.223 1.383l.463.844c.807 1.523 1.449 2.967 1.962 4.305l.086.219h-.003a33.44 33.44 0 0 1 1.35 4.492c.051-.08.105-.193.163-.326l.032-1.397a1.37 1.37 0 0 1-.14-.285l-.038-.111-.026-.111a.8.8 0 0 0-.013-.057c-.003-.02-.006-.037-.008-.057-.007-.037-.012-.074-.018-.111-.009-.072-.013-.146-.019-.217s-.003-.141-.004-.209.005-.133.007-.197c.002-.031.002-.063.006-.094a2.73 2.73 0 0 1 .008-.09l.017-.168.019-.117a10.38 10.38 0 0 1 .294-1.451l.115-3.895c-.008.012-.011.02-.011.02l.008-1.02c-.064-.057-.153-.113-.181-.178-.259-.148-.394-.344-.374-.514.003-.11.047-.213.118-.313.013-.017.024-.039.036-.059.028-.053.049-.086.051-.092.139-.275.211-.67.237-1.221l.009-.293.201-10.1c.023-1.154-.186-1.693-.52-2.231a.57.57 0 0 1-.138-.289c-.001-.045 0-.071.006-.094a.28.28 0 0 1 .029-.076l.001-.002a.41.41 0 0 1 .168-.162c.093-.057.203-.102.307-.133-.026-.025-.072-.096-.047-.266-.189-.213-.196-.482-.143-.83.04-.264.116-.574.172-.939.051-.326.085-.697.065-1.121a142.62 142.62 0 0 1-.08-3.701c.014-.008.029-.014.045-.021.121-.049.243-.094.366-.137H13.185l-.021.818c-.005.129-.004.25.001.367.01.225.033.436.06.619.042.313.116.529.148.754.041.297.036.525-.107.707.02.143-.016.205-.036.227.079.027.163.064.233.113.025.016.091.061.129.139v.002c.009.018.016.037.021.059s.006.049.006.072c-.006.082-.036.164-.104.26-.255.457-.412.916-.392 1.9l.171 8.606.009.25c.021.471.076.807.183 1.043.001.004.017.031.039.078.009.016.018.035.027.051.055.084.087.174.09.26.016.15-.086.317-.283.442-.021.057-.088.105-.137.152l.007.869.219 11.838c-.105 1.313.174 2.207.359 2.813.027.08.159.473.153.689-.001.09-.024.166-.099.232a.81.81 0 0 0-.132.168.75.75 0 0 0-.031.166l-.071 1.156-.003-.004-.024.369c-.003.043-.005.109-.005.197-.002 1.234.255 6.564.25 9.924l-.016 1.197c.017-.127.017-.207.017-.207.005.045.01.092.013.139.011-.096.011-.154.011-.154.085.633-.161 1.701-.161 1.701.045-.006.044.096.044.096s-.009.004-.023.012c0 .004-.017.014-.044.025-.019.084-.055.158-.107.227.02.143-.015.203-.035.227a.91.91 0 0 1 .233.113c.013.008.036.023.062.047a31.07 31.07 0 0 1 .888-.975h.001c.045-.053.136-.145.233-.242l.356-.359c.014-.016.016-.018.016-.016.572-.566 1.127-1.072 1.651-1.521l.169-.145c.56-.471 1.082-.877 1.548-1.221l.001-.002a.47.47 0 0 1 .025-.075c.021-.037.035-.063.055-.09.051-.07.187-.266.402-.519a1.59 1.59 0 0 1 .062-.072c.006-.008.013-.014.019-.022l.049-.055c.01-.01.02-.021.029-.031.014-.016.029-.031.044-.047a.54.54 0 0 1 .039-.043l.039-.041.049-.051.036-.035c.02-.019.039-.039.059-.059.01-.01.021-.018.031-.029a2.12 2.12 0 0 1 .068-.064l.014-.014c.502-.463 1.193-.949 2.059-1.19 1.79-.494 2.835-.195 2.676-.129a57.29 57.29 0 0 0-.645.551l-.316.271-.172.148-.178.158-.374.326c-.063.057-.131.111-.197.166a6.49 6.49 0 0 1-.205.156c-.138.101-.281.193-.424.283s-.287.166-.431.234a3.37 3.37 0 0 1-.106.051c-.035.018-.07.031-.106.047l-.104.043c-.035.014-.069.027-.103.039s-.067.025-.1.037-.067.021-.1.031c-.063.02-.126.041-.186.057s-.118.031-.174.041l-.159.031c-.05.01-.097.012-.14.02s-.084.01-.119.014l-.168.008c-.026.002-.043.002-.053.002-.28.039-.514.063-.699.066h.001-.021-.024c-.041 0-.08 0-.116-.002l-.102-.01c-.049-.008-.074-.014-.095-.021a.46.46 0 0 1-.075-.031c-.02-.014-.03-.022-.037-.029a23.59 23.59 0 0 0-2.609 2.283c-.009.012-.093.1-.2.211.259-.104.689-.266 1.214-.432.006-.033.014-.066.021-.096a.85.85 0 0 1 .074-.156c.254-.453 1.027-.836 2.433-.918 1.719-.098 3.146.504 3.146.504-.038.018-.155.072-.346.154.029-.014.058-.023.084-.033l.191-.08.067-.031s-.022.014-.065.033l-.188.09-.297.129c-.114.051-.245.102-.387.158l-.224.082-.24.086c-.041.016-.084.031-.125.045s-.087.027-.13.043l-.269.082c-.046.016-.092.029-.138.043-.023.008-.046.016-.069.021s-.048.014-.071.02l-.288.074-.291.078-.297.063-.297.059-.149.029-.148.023c-.196.031-.392.055-.581.068a4.16 4.16 0 0 1-.546.004c-.174-.012-.339-.039-.484-.086-.073-.025-.142-.053-.203-.094s-.113-.086-.148-.145c-.019-.029-.031-.061-.039-.092-.002-.01-.003-.018-.005-.025s-.001-.016-.002-.023c-.91.318-1.495.66-1.581.73-.018.014-.031.019-.041.019a34.02 34.02 0 0 0-1.657 1.895c-.006.008-.011.016-.017.025-.254.457-.411.916-.391 1.9l.025 1.32c1.813-.824 2.934-.756 2.766-.633-.088.108-.348.448-.709.922l-.347.453-.19.248-.194.262-.409.545c-.069.094-.145.186-.218.277s-.151.182-.231.27c-.132.15-.271.291-.412.428l.017.832c.898-.4 1.512-.563 1.512-.563s-.137.24-.392.643l.137-.207.195-.309.067-.109-.063.115-.183.314-.296.48c-.116.186-.249.393-.4.613-.074.113-.153.227-.235.346l-.125.182-.132.184c-.016.021-.033.045-.049.068l.038 1.924.009.25c.021.471.076.807.182 1.043.002.004.018.031.039.078.01.016.017.033.027.051a.5.5 0 0 1 .09.26c.017.151-.085.317-.282.442-.022.057-.089.104-.137.152l.007.869.089 3.384.133-.047c.019-.012.028-.02.028-.02l.006.01h0 0l.006.01s-.009.006-.023.018l-.144.225.018.752.057.23.002-.004.016.068c.155.66.298 1.33.422 2.006a48.19 48.19 0 0 1 .629 4.678c.033-.133.083-.266.149-.414.105-.238.447-1.061.672-1.627-.02-.018-.044-.035-.071-.063a1.44 1.44 0 0 1-.218-.266c-.081-.125-.161-.293-.224-.498s-.108-.445-.128-.709a5.68 5.68 0 0 1 .002-.855 8.17 8.17 0 0 1 .121-.941c.06-.324.135-.654.228-.986l.036-.123.038-.123c.024-.084.05-.166.075-.248l.075-.25.08-.248.08-.246.085-.246.171-.486c.114-.322.233-.633.351-.936l.174-.443.173-.424.166-.398.158-.371.284-.644.226-.492.149-.316.053-.107.001-.002s.746 2.223.456 5.828c-.203 2.541-.982 3.957-1.661 4.467h0c-.039.03-.062.045-.085.061-.011.006-.02.014-.03.02a.77.77 0 0 1-.079.043c-.006.004-.012.008-.018.01-.033.016-.065.029-.096.041a1.63 1.63 0 0 1-.092.029c-.009.002-.018.004-.025.004-.021.006-.043.008-.064.012a.11.11 0 0 0-.026.002h-.061c-.008 0-.016 0-.023-.002-.021 0-.041-.004-.061-.008-.043-.012-.068-.018-.092-.029-.728 1.926-.845 1.988-.849 2.246-.002.139-.018.344-.044.436l.008.104c.158 2.418.098 4.471-.042 6.092l-.002.029h0a33.21 33.21 0 0 1-.124 1.184 28.83 28.83 0 0 1-.354 2.195c.187.988.383 2.648.21 4.801-.067.842-.199 1.559-.368 2.162a1.63 1.63 0 0 1 .01.107c.012-.096.011-.154.011-.154.085.633-.161 1.701-.161 1.701.045-.006.044.096.044.096s-.008.004-.022.012c0 .004-.042.025-.117.061-.022.068-.052.133-.098.191.02.143-.015.203-.035.227.078.025.162.063.232.111a.35.35 0 0 1 .129.139l.001.002c.009.018.017.037.021.059.006.027.006.049.006.072-.006.082-.035.164-.104.26-.254.459-.411.918-.392 1.9l.171 8.607.009.25c.022.469.077.805.183 1.043a.74.74 0 0 1 .039.076c.01.018.018.035.027.051.055.084.088.174.091.262v.004c.015.135-.073.287-.243.408h147.689l.29-9.941-.008-.222z" fill="url(#AR)"/><radialGradient id="AS" cx="63.56" cy="114.27" r="149.656" gradientUnits="userSpaceOnUse"><stop offset="0" stop-color="#d7edf3"/><stop offset=".248" stop-color="#d8edf0"/><stop offset=".42" stop-color="#dbede7"/><stop offset=".568" stop-color="#dfedd8"/><stop offset=".703" stop-color="#e6eec2"/><stop offset=".829" stop-color="#efeea6"/><stop offset=".947" stop-color="#f9ef84"/><stop offset="1" stop-color="#ffef72"/></radialGradient><path d="M6.162 79.287l-.572-.205c-.011-.004-.036-.01-.076-.021l-.226-.064-.159-.059-.09-.031c-.016-.008-.031-.012-.048-.018s-.032-.016-.049-.021c-.012-.006-.026-.012-.038-.016l-.005.563c.408.266.828.568 1.242.908l.021-1.036z" fill="url(#AS)"/><radialGradient id="AT" cx="63.582" cy="114.309" r="149.741" gradientUnits="userSpaceOnUse"><stop offset="0" stop-color="#d7edf3"/><stop offset=".248" stop-color="#d8edf0"/><stop offset=".42" stop-color="#dbede7"/><stop offset=".568" stop-color="#dfedd8"/><stop offset=".703" stop-color="#e6eec2"/><stop offset=".829" stop-color="#efeea6"/><stop offset=".947" stop-color="#f9ef84"/><stop offset="1" stop-color="#ffef72"/></radialGradient><path d="M6.547 86.691a2.69 2.69 0 0 0-.342-1.031.49.49 0 0 1-.099-.236l-.001-.014c-.001-.023 0-.045.003-.064a.3.3 0 0 1 .023-.063l.001-.002c.036-.074.099-.117.124-.133.067-.049.148-.084.225-.109-.02-.021-.053-.08-.034-.217a.56.56 0 0 1-.093-.186l-.114-.055v-.004c-.014-.006-.022-.012-.022-.012s-.001-.098.042-.092l-.101-.547-.653-.609-.19-.193-.187-.197-.186-.199-.062-.064.153 4.828c.219.672.32 1.049.164 1.307-.028.057-.067.15-.036.18.036.047.007.106 0 .117l.013.033c.023.041.028.082.027.119l.002.045c0 .094-.029.189-.072.281-.048.117-.111.234-.173.338a16.21 16.21 0 0 1 1.556.986l.055-2.758-.009-.619-.014-.83z" fill="url(#AT)"/><radialGradient id="AU" cx="63.529" cy="114.306" r="149.642" gradientUnits="userSpaceOnUse"><stop offset="0" stop-color="#d7edf3"/><stop offset=".248" stop-color="#d8edf0"/><stop offset=".42" stop-color="#dbede7"/><stop offset=".568" stop-color="#dfedd8"/><stop offset=".703" stop-color="#e6eec2"/><stop offset=".829" stop-color="#efeea6"/><stop offset=".947" stop-color="#f9ef84"/><stop offset="1" stop-color="#ffef72"/></radialGradient><path d="M6.194 77.234h0l.024.033-.167-.727-.017-.074-.039-.185-.019-.086h.001c-.002-.006-.003-.012-.004-.02l-.449-.758-.56-.875-.02 1.289c.508.45.922.942 1.25 1.403z" fill="url(#AU)"/><radialGradient id="AV" cx="63.569" cy="114.304" r="149.717" gradientUnits="userSpaceOnUse"><stop offset="0" stop-color="#d7edf3"/><stop offset=".248" stop-color="#d8edf0"/><stop offset=".42" stop-color="#dbede7"/><stop offset=".568" stop-color="#dfedd8"/><stop offset=".703" stop-color="#e6eec2"/><stop offset=".829" stop-color="#efeea6"/><stop offset=".947" stop-color="#f9ef84"/><stop offset="1" stop-color="#ffef72"/></radialGradient><path d="M5.388 68.842L5.47 67h-.002l.008-.1c-.024-.088-.04-.285-.043-.42-.002-.16-.051-.242-.271-.777l-.055 2.756c-.001.053.024.102.061.152.061.077.149.153.22.231z" fill="url(#AV)"/><radialGradient id="AW" cx="63.554" cy="114.31" r="149.695" gradientUnits="userSpaceOnUse"><stop offset="0" stop-color="#d7edf3"/><stop offset=".248" stop-color="#d8edf0"/><stop offset=".42" stop-color="#dbede7"/><stop offset=".568" stop-color="#dfedd8"/><stop offset=".703" stop-color="#e6eec2"/><stop offset=".829" stop-color="#efeea6"/><stop offset=".947" stop-color="#f9ef84"/><stop offset="1" stop-color="#ffef72"/></radialGradient><path d="M5.786 75.146l-.156-1.1-.119-1.143-.001.003-.002-.025c-.088-1.02-.144-2.215-.128-3.572-.009.008-.017.014-.025.02s-.016.012-.023.018-.022.018-.035.025l-.048.029c-.016.01-.164.151-.167.278l-.052 1.415-.055 2.787.227.34.584.925z" fill="url(#AW)"/><radialGradient id="AX" cx="63.593" cy="114.504" r="149.988" gradientUnits="userSpaceOnUse"><stop offset="0" stop-color="#d7edf3"/><stop offset=".248" stop-color="#d8edf0"/><stop offset=".42" stop-color="#dbede7"/><stop offset=".568" stop-color="#dfedd8"/><stop offset=".703" stop-color="#e6eec2"/><stop offset=".829" stop-color="#efeea6"/><stop offset=".947" stop-color="#f9ef84"/><stop offset="1" stop-color="#ffef72"/></radialGradient><path d="M5.004 78.85l.047.021.089.037.154.066.279.102-.615-.25c.017.01.031.016.046.024z" fill="url(#AX)"/><radialGradient id="AY" cx="143.612" cy="117.105" r="153.621" gradientUnits="userSpaceOnUse"><stop offset="0" stop-color="#d7edf3"/><stop offset=".248" stop-color="#d8edf0"/><stop offset=".42" stop-color="#dbede7"/><stop offset=".568" stop-color="#dfedd8"/><stop offset=".703" stop-color="#e6eec2"/><stop offset=".829" stop-color="#efeea6"/><stop offset=".947" stop-color="#f9ef84"/><stop offset="1" stop-color="#ffef72"/></radialGradient><path d="M148.81 6.566l.011.035-.011-.035z" fill="url(#AY)"/><radialGradient id="AZ" cx="143.887" cy="114.093" r="149.254" gradientUnits="userSpaceOnUse"><stop offset="0" stop-color="#d7edf3"/><stop offset=".248" stop-color="#d8edf0"/><stop offset=".42" stop-color="#dbede7"/><stop offset=".568" stop-color="#dfedd8"/><stop offset=".703" stop-color="#e6eec2"/><stop offset=".829" stop-color="#efeea6"/><stop offset=".947" stop-color="#f9ef84"/><stop offset="1" stop-color="#ffef72"/></radialGradient><path d="M162.376 29.717l.018.109c.002.014.005.027.008.041l.008-.41c-.03.123-.044.213-.034.26z" fill="url(#AZ)"/><radialGradient id="Aa" cx="143.534" cy="114.481" r="150.262" gradientUnits="userSpaceOnUse"><stop offset="0" stop-color="#d7edf3"/><stop offset=".248" stop-color="#d8edf0"/><stop offset=".42" stop-color="#dbede7"/><stop offset=".568" stop-color="#dfedd8"/><stop offset=".703" stop-color="#e6eec2"/><stop offset=".829" stop-color="#efeea6"/><stop offset=".947" stop-color="#f9ef84"/><stop offset="1" stop-color="#ffef72"/></radialGradient><path d="M153.815 65.729l.143.109.223.172-.383-.295c.006.006.01.008.017.014z" fill="url(#Aa)"/><radialGradient id="Ab" cx="143.527" cy="115.709" r="152.647" gradientUnits="userSpaceOnUse"><stop offset="0" stop-color="#d7edf3"/><stop offset=".248" stop-color="#d8edf0"/><stop offset=".42" stop-color="#dbede7"/><stop offset=".568" stop-color="#dfedd8"/><stop offset=".703" stop-color="#e6eec2"/><stop offset=".829" stop-color="#efeea6"/><stop offset=".947" stop-color="#f9ef84"/><stop offset="1" stop-color="#ffef72"/></radialGradient><path d="M161.614 46.705c.052.014.1.02.145.029l.121.021.15.018v-.002l-.42-.068z" fill="url(#Ab)"/><radialGradient id="Ac" cx="143.543" cy="114.201" r="149.591" gradientUnits="userSpaceOnUse"><stop offset="0" stop-color="#d7edf3"/><stop offset=".248" stop-color="#d8edf0"/><stop offset=".42" stop-color="#dbede7"/><stop offset=".568" stop-color="#dfedd8"/><stop offset=".703" stop-color="#e6eec2"/><stop offset=".829" stop-color="#efeea6"/><stop offset=".947" stop-color="#f9ef84"/><stop offset="1" stop-color="#ffef72"/></radialGradient><path d="M145.448 11.221l.201.115.311.184c-.236-.154-.424-.268-.537-.312.007.003.015.007.025.013z" fill="url(#Ac)"/><radialGradient id="Ad" cx="143.539" cy="112.865" r="147.759" gradientUnits="userSpaceOnUse"><stop offset="0" stop-color="#d7edf3"/><stop offset=".248" stop-color="#d8edf0"/><stop offset=".42" stop-color="#dbede7"/><stop offset=".568" stop-color="#dfedd8"/><stop offset=".703" stop-color="#e6eec2"/><stop offset=".829" stop-color="#efeea6"/><stop offset=".947" stop-color="#f9ef84"/><stop offset="1" stop-color="#ffef72"/></radialGradient><path d="M139.474 5.713l.123-.016.195-.035-.452.066c.048-.001.093-.011.134-.015z" fill="url(#Ad)"/><radialGradient id="Ae" cx="143.529" cy="114.953" r="150.705" gradientUnits="userSpaceOnUse"><stop offset="0" stop-color="#d7edf3"/><stop offset=".248" stop-color="#d8edf0"/><stop offset=".42" stop-color="#dbede7"/><stop offset=".568" stop-color="#dfedd8"/><stop offset=".703" stop-color="#e6eec2"/><stop offset=".829" stop-color="#efeea6"/><stop offset=".947" stop-color="#f9ef84"/><stop offset="1" stop-color="#ffef72"/></radialGradient><path d="M151.275 14.033l.052.008c.016 0 .031.002.048.004l.094.008.165.012.27.008-.629-.039h0z" fill="url(#Ae)"/><radialGradient id="Af" cx="63.619" cy="114.301" r="149.797" gradientUnits="userSpaceOnUse"><stop offset="0" stop-color="#d7edf3"/><stop offset=".248" stop-color="#d8edf0"/><stop offset=".42" stop-color="#dbede7"/><stop offset=".568" stop-color="#dfedd8"/><stop offset=".703" stop-color="#e6eec2"/><stop offset=".829" stop-color="#efeea6"/><stop offset=".947" stop-color="#f9ef84"/><stop offset="1" stop-color="#ffef72"/></radialGradient><path d="M6.311 68.133c-.031-.045-.061-.107-.083-.193l-.131-.072.001-.006s.019-.049.042-.146c.003-.024.007-.037.012-.053l.041-.223.026-.303-.018-.014.006-.01h-.001.001l.005-.01c.01-.008.012-.019.013-.033.013-.142.009-.432.003-.685l-.013-.197a12.74 12.74 0 0 1-.014-.832l.034-2.16c-.5 3.256-.576 6.025-.48 8.203l.232-.459.086-.641a.3.3 0 0 1-.057-.182c-.004-.139.053-.355.098-.506l.012-.109.027-.164.015-.063c-.026-.105-.067-.189-.132-.242-.088-.07-.147-.201-.15-.336-.002-.08.018-.16.061-.231a.37.37 0 0 1 .147-.143.52.52 0 0 1 .147-.063c.086-.016.084-.076.07-.127z" fill="url(#Af)"/><radialGradient id="Ag" cx="143.472" cy="113.365" r="148.461" gradientUnits="userSpaceOnUse"><stop offset="0" stop-color="#d7edf3"/><stop offset=".248" stop-color="#d8edf0"/><stop offset=".42" stop-color="#dbede7"/><stop offset=".568" stop-color="#dfedd8"/><stop offset=".703" stop-color="#e6eec2"/><stop offset=".829" stop-color="#efeea6"/><stop offset=".947" stop-color="#f9ef84"/><stop offset="1" stop-color="#ffef72"/></radialGradient><path d="M134.656 4.584l.165.051.254.086c-.195-.076-.352-.131-.441-.145.006.002.013.004.022.008z" fill="url(#Ag)"/><g fill="#fff"><path d="M40.975 9.688c-.359.205-.767.305-1.187.334a8.76 8.76 0 0 1-.709.051l-.547.002c.219.059.445.098.674.119a1.13 1.13 0 0 1-.044.166c-.102.293-.284.557-.472.797-.408.522-.964.943-1.564 1.217-.587.269-1.318.379-1.957.289a2.13 2.13 0 0 1-.414-.098c.1-.273.156-.564.152-.869-.016.323-.215.665-.385.944a3.46 3.46 0 0 1-.406.545c-.28.328-.619.613-.976.857-.907.623-2.011.998-3.103 1.105-.975.096-1.988-.041-2.863-.486-.373-.189-.748-.475-1.055-.818a1.88 1.88 0 0 1-.396-.469c-.214-.361-.268-.756-.331-1.158-.038.482.101.957.341 1.387a5.34 5.34 0 0 1-4.057.4c-.772-.236-1.399-.67-1.691-1.449-.072-.191-.111-.395-.119-.598-.073-.289-.063-.588.088-.871.189-.359.492-.537.826-.697-.331-.014-.618.258-.812.5-.069.09-.126.184-.173.283-.148-.1-.285-.215-.41-.346-.303-.213-.524-.529-.697-.859-.121-.231-.213-.471-.289-.721l-.057-.211c.021.441.116.879.276 1.285-.577.092-1.169.119-1.742.008-.892-.172-1.62-.898-1.575-1.84.05-1.078 1.023-1.955 2.063-2.043a5.15 5.15 0 0 1 1.595.111c.084.02.165.045.245.072-.154.162-.29.338-.405.525l-.097.242c.211-.367.514-.658.865-.885.648-.574 1.563-.879 2.4-.885.563-.004 1.147.17 1.665.387a1.86 1.86 0 0 0 .043.707c-.026-.402.072-.813.292-1.145l.124-.244a4.2 4.2 0 0 1 1.797-1.699c.823-.4 1.75-.4 2.606-.109l.465.18c.023.018.05.027.076.037h0l.124.057.46.234c-.124-.148-.288-.266-.449-.371l-.071-.043c.077-.145.163-.285.25-.418a2.6 2.6 0 0 1 1.573-1.096c.324-.08.656-.125.99-.094.324.029.584.176.861.33.463.258.732.697.879 1.182.029.059.053.121.072.186a2.31 2.31 0 0 1 .156.496c.02-.014.033-.035.032-.059l-.015-.248a4.72 4.72 0 0 1 .472-.209c.695-.256 1.464-.209 2.164-.002.647.191 1.296.59 1.635 1.188.144.254.238.523.282.799-.34.102-.729.287-.922.568.438-.346.986-.535 1.536-.492a4.59 4.59 0 0 1 1.151.119c.881.201 1.729.58 2.002 1.517.285.974-.452 1.852-1.242 2.306zm100.994 27.351c.231.131.493.197.763.215.15.02.303.027.456.033l.352.002a2.61 2.61 0 0 1-.434.076c.007.035.016.072.028.107.066.188.182.356.303.512.263.334.621.605 1.006.781a2.37 2.37 0 0 0 1.259.188c.09-.014.179-.035.267-.065a1.55 1.55 0 0 1-.098-.559c.01.207.138.427.246.607.076.123.162.242.262.35.181.211.398.395.627.551.584.4 1.294.643 1.995.711.627.063 1.278-.025 1.841-.313a2.38 2.38 0 0 0 .679-.525c.099-.086.186-.188.255-.303.138-.23.172-.486.213-.744.024.311-.064.615-.22.891.789.426 1.749.521 2.608.258.496-.15.899-.43 1.088-.93a1.21 1.21 0 0 0 .076-.387c.048-.184.041-.377-.056-.559-.122-.23-.317-.346-.532-.449.214-.008.398.166.522.324.044.057.08.115.11.18.096-.064.184-.139.264-.221.195-.139.338-.342.449-.553a2.67 2.67 0 0 0 .186-.465l.037-.135c-.014.283-.075.564-.179.826.372.059.752.076 1.12.006.573-.111 1.042-.58 1.014-1.184-.032-.693-.658-1.258-1.326-1.314a3.36 3.36 0 0 0-1.025.072l-.157.047a2.15 2.15 0 0 1 .261.336l.062.158c-.136-.236-.33-.424-.557-.57-.417-.369-1.005-.564-1.543-.568-.362-.004-.737.109-1.071.248.021.156.01.309-.027.455a1.2 1.2 0 0 0-.188-.736l-.08-.156a2.7 2.7 0 0 0-1.155-1.092c-.528-.258-1.125-.26-1.676-.07-.103.033-.203.07-.299.115-.015.01-.032.018-.049.024h0l-.08.037-.296.15c.08-.098.186-.172.289-.238.016-.01.03-.02.047-.027l-.162-.27a1.66 1.66 0 0 0-1.011-.703c-.209-.053-.422-.08-.638-.061-.208.018-.375.111-.553.211-.299.166-.471.449-.566.76a.7.7 0 0 0-.045.119c-.048.101-.078.209-.102.318-.012-.008-.021-.021-.021-.037l.01-.16a2.68 2.68 0 0 0-.304-.133c-.447-.164-.942-.135-1.391-.002-.417.123-.833.379-1.051.762a1.51 1.51 0 0 0-.182.514c.218.066.469.188.592.367-.28-.223-.634-.344-.986-.316-.249-.01-.508.023-.741.076-.566.129-1.111.371-1.287.977-.182.626.292 1.19.801 1.481z"/></g></g></svg>