<svg xmlns="http://www.w3.org/2000/svg" xmlns:xlink="http://www.w3.org/1999/xlink" viewBox="0 0 500 500" xmlns:v="https://vecta.io/nano"><style><![CDATA[.B{fill:#263238}.C{fill:#ffc727}.D{fill:#ebebeb}.E{fill:#fff}.F{fill:#dbdbdb}.G{opacity:.1}.H{fill:#d3766a}.I{opacity:.2}.J{fill:#455a64}.K{fill:#030402}]]></style><g class="D"><path d="M438.887 331.378h-26.481v-11.19h26.481z"/><use xlink:href="#B"/><use xlink:href="#C"/><path d="M273.392 249.691h-26.481v-11.19h26.481z"/><use xlink:href="#C" x="-14.997" y="14.11"/><path d="M299.396 107.959h-26.481v-11.19h26.481z"/><use xlink:href="#B" x="-380.837"/><use xlink:href="#C" x="-171.027" y="-173.381"/><path d="M72.822 76.309H46.341v-11.19h26.481z"/><use xlink:href="#C" x="195.038" y="-173.381"/><path d="M97.324 381.772h71.947v79.672H97.324z"/></g><path d="M97.324 461.448h-37.15v-79.675h37.15z" class="F"/><g class="D"><path d="M62.734 455.959l8.179-17.051 8.06-17.137 7.957-17.212 7.836-17.298-8.18 17.05-8.059 17.137-7.956 17.212-7.837 17.299z"/><path d="M62.734 387.261l7.837 17.298 7.956 17.212 8.059 17.137 8.18 17.05-7.836-17.298-7.957-17.212-8.06-17.137-8.179-17.05zm34.59-125.818h71.947v74.183H97.324z"/></g><path d="M97.324 335.63h-37.15v-74.187h37.15zm29.869-56.969h1.522 1.145l.653-1.326.916 1.326 1.243-2.729 1.177 2.729h3.368 1.536l.556-1.821.523 1.821h1v-17.218h-13.639z" class="F"/><g class="D"><path d="M62.734 330.896l8.179-15.876 8.06-15.956 7.957-16.026 7.836-16.107-8.18 15.875-8.059 15.957-7.956 16.026-7.837 16.107z"/><path d="M62.734 266.932l7.837 16.106 7.956 16.026 8.059 15.957 8.18 15.875-7.836-16.107-7.957-16.026-8.06-15.956-8.179-15.875z"/></g><path d="M110.051 331.019h-7.987v-7.987h7.987z" class="E"/><path d="M92.531 335.629h71.947v46.142H92.531z" class="F"/><path d="M92.531 381.773h-37.15v-46.144h37.15z" fill="#c7c7c7"/><path d="M122.399 352.847h1.522 1.145l.654-1.326.915 1.326 1.243-2.729 1.177 2.729h3.368 1.536l.556-1.821.523 1.821h1v-17.218h-13.639z" class="E"/><g class="F"><path d="M57.94 379.027l8.179-10.09 8.06-10.141 7.957-10.185 7.836-10.236-8.18 10.09-8.059 10.141-7.956 10.185-7.837 10.236z"/><path d="M57.94 338.375l7.837 10.236 7.956 10.185 8.059 10.141 8.18 10.089-7.836-10.236-7.957-10.185-8.06-10.141-8.179-10.089zm314.732 53.373h71.947v69.696h-71.947z"/></g><path d="M372.673 461.448h-37.15v-69.699h37.15z" fill="#c7c7c7"/><path d="M402.541 408.967h1.522 1.144l.654-1.326.916 1.326 1.242-2.73 1.177 2.73h3.368 1.537l.556-1.822.523 1.822h.999v-17.218h-13.638z" class="E"/><g class="F"><path d="M338.082 457.301l8.179-15.241 8.06-15.318 7.957-15.384 7.836-15.462-8.18 15.24-8.059 15.318-7.956 15.385-7.837 15.462z"/><path d="M338.082 395.896l7.837 15.461 7.956 15.385 8.059 15.318 8.18 15.24-7.836-15.462-7.957-15.384-8.06-15.317-8.179-15.241z"/></g><path d="M319.517 46.95v170.1h117.06V46.95h-117.06zm112.74 165.78h-108.42V51.27h108.42v161.46z" class="D"/><path d="M323.837 51.27h108.42v161.46h-108.42z" class="E"/><path d="M432.261 139.156H323.84v-4.318h108.421z" class="D"/><path d="M444.533 229.444H311.567v-12.395h132.966z" class="F"/><path d="M315.091 234.404l125.918 2.637v-7.598H315.091z" class="D"/><g class="F"><path d="M323.84 51.265h108.421v110.933H323.84V51.265zm104.421 4H327.839v102.933h100.422V55.265z"/><path d="M395.498 51.265h2.159v106.933h-2.159zm-37.055 0h2.159v106.933h-2.159z"/></g><path d="M63.423 46.95v170.1h117.06V46.95H63.423zm112.74 165.78H67.743V51.27h108.42v161.46z" class="D"/><path d="M67.743 51.27h108.42v161.46H67.743z" class="E"/><path d="M176.161 139.156H67.74v-4.318h108.421z" class="D"/><path d="M188.433 229.444H55.467v-12.395h132.966z" class="F"/><path d="M58.991 234.404l125.918 2.637v-7.598H58.991z" class="D"/><g class="F"><path d="M67.739 51.265H176.16v110.933H67.739V51.265zm104.422 4H71.739v102.933h100.422V55.265z"/><path d="M139.398 51.265h2.159v106.933h-2.159zm-37.055 0h2.159v106.933h-2.159z"/></g><path d="M239.03 379.055h99.68v82.358h-99.68z" class="C"/><path d="M239.03 379.055h99.68v82.358h-99.68z" class="G"/><path d="M338.709 379.056h39.496v82.362h-39.496z" class="C"/><path d="M338.709 379.056h39.496v82.362h-39.496z" class="I"/><g class="C"><path d="M375.485 455.744l-8.695-17.626-8.569-17.715-8.459-17.792-8.331-17.882 8.696 17.625 8.568 17.715 8.458 17.793 8.332 17.882z"/><path d="M375.485 384.729l-8.332 17.881-8.458 17.793-8.568 17.715-8.696 17.625 8.331-17.882 8.459-17.792 8.569-17.715 8.695-17.625z"/></g><path d="M295.919 396.853h-1.574-1.183l-.676-1.371-.946 1.371-1.285-2.821-1.216 2.821h-3.482-1.588l-.575-1.883-.541 1.883h-1.032v-17.797h14.098z" class="E"/><g class="C"><path d="M270.35 296.696h74.369v82.354H270.35z"/><path d="M344.719 296.697h38.401v82.357h-38.401z"/></g><path d="M344.719 296.697h38.401v82.357h-38.401z" class="G"/><g class="G"><path d="M339.27 373.381l-16.236-17.625-16-17.714-15.795-17.791-15.556-17.881 16.237 17.624 15.998 17.714 15.793 17.791 15.559 17.882z"/><path d="M339.27 302.371l-15.557 17.88-15.793 17.792-15.998 17.714-16.237 17.624 15.556-17.881 15.795-17.791 16-17.714 16.234-17.624z"/></g><path d="M370.986 365.117h6.728v9.501h-6.728z" class="E"/><path d="M41.452 461.448l52.137-.243 52.137-.088L250 460.949l104.274.167 52.137.087 52.137.245-52.137.245-52.137.088-104.274.166-104.274-.167-52.137-.089z" class="B"/><g fill="none" stroke="#263238" stroke-width=".75" stroke-miterlimit="10"><path d="M288.235 176.425l1.693 1.064"/><path d="M293.259 179.8c18.089 13.381 32.175 37.712 16.409 61.487-9.285 14.003-25.026 8.237-30.454 3.218-5.995-5.544-.479-11.22 5.509-7.426 10.381 6.578 11.84 21.799.338 33.052-7.495 7.333-17.243 7.792-22.608 7.361" stroke-dasharray="4.055,4.055"/><path d="M260.442 277.272l-1.966-.355"/></g><path d="M250.303 276.151c-.471 4.033 7.699 6.24 8.314.972s-7.843-5.005-8.314-.972z" class="B"/><path d="M261.031 282.766c-.761 1.515-3.447 1.721-6.227-.211s-4.702-5.277-4.702-5.277 3.834-.464 7.044.613 4.65 3.353 3.885 4.875z" class="D"/><g class="B"><path d="M250.102 277.277l4.675 2.245 4.593 2.409-4.675-2.245-4.593-2.409z"/><path d="M257.362 282.738c-.362-.412-.665-.862-.973-1.31l-.82-1.41c.363.411.665.862.973 1.31l.82 1.41zm-3.376-3.51c.553-.156 1.116-.242 1.678-.335l1.704-.153c-.553.157-1.116.243-1.678.334l-1.704.154zm-.854.659c-.189-.208-.314-.448-.445-.685-.111-.247-.228-.491-.281-.767.189.208.314.448.445.685.112.247.228.491.281.767z"/></g><path d="M262.323 272.301c-.391-1.65-2.957-2.47-6.108-1.231s-5.792 4.051-5.792 4.051 3.624 1.335 6.996 1.028 5.297-2.191 4.904-3.848z" class="D"/><g class="B"><path d="M250.423 275.121l5.067-1.107 5.024-1.285-5.067 1.107-5.024 1.285z"/><path d="M258.746 271.481c-.447.317-.846.686-1.249 1.05l-1.123 1.183c.448-.317.846-.686 1.249-1.05l1.123-1.183zm-4.094 2.638c.502.279 1.03.493 1.556.712l1.623.542c-.502-.28-1.03-.493-1.556-.712l-1.623-.542zm-.678-.838c-.231.159-.409.363-.591.564-.165.214-.335.425-.45.682.232-.159.409-.363.591-.564.165-.215.334-.426.45-.682z"/></g><g class="J"><use xlink:href="#D"/><use xlink:href="#D" x="0.34" y="-2.91"/></g><path d="M159.97 370.31l-21.296 42.726c-1.762 8.818-3.148 16.581-3.491 20.664-.005.021-.01.043-.004.066-.131 1.54-.111 2.544.106 2.854.016.026.022.05.041.066 2.27 2.302 72.332 18.433 74.965 18.173 2.641-.247 2.099-7.784-.12-10.579-2.241-2.8-26.293-20.971-26.293-20.971l20.847-42.759-44.755-10.24z" class="H"/><path d="M209.23 454.861c-2.63.255-71.637-15.877-73.9-18.173-.022-.022-.033-.044-.044-.067-.222-.311-.233-1.32-.111-2.851 0-.033 0-.044.011-.066.344-4.083 1.731-11.849 3.484-20.67 0-.011 2.735-5.475 5.098-10.224l44.196 12.122-4.083 8.376s22.997 18.174 25.227 20.969 2.763 10.329.122 10.584z" class="D"/><path d="M210.185 453.74c-2.664.202-72.892-17.703-75.13-20.084-.867-.89 1.146-11.275 3.938-23.753l.091-.39 45.437 11.045-.214.765s23.816 18.876 26.003 21.754c2.167 2.863 2.537 10.472-.125 10.663z" class="B"/><path d="M210.084 450.814c-11.764-3.309-59.526-15.544-71.406-17.921-.097-.019-.114.046-.019.074 11.589 3.534 59.448 15.382 71.376 18.04.252.057.297-.123.049-.193zm-22.005-28.385c-4.437-2.057-10.317-2.795-14.723-.383-.171.093-.035.334.128.326 4.966-.277 9.495-.113 14.427.641.347.053.486-.437.168-.584zm2.846 2.884c-4.437-2.057-10.317-2.794-14.723-.383-.171.093-.035.335.128.325 4.966-.277 9.495-.113 14.426.641.348.054.487-.436.169-.583zm2.846 2.884c-4.437-2.057-10.317-2.795-14.723-.383-.171.093-.036.334.128.325 4.965-.277 9.495-.113 14.426.641.348.053.486-.436.169-.583z" class="E"/><path d="M211.899 451.496c1.134.805-.214 4.957-1.208 5.064s-77.48-19.753-78.707-20.376.442-5.171 2.014-5.025 77.901 20.337 77.901 20.337z" class="C"/><path d="M148.673 420.334c-4.442-3.844-10.423 3.054-5.974 6.904 4.443 3.844 10.424-3.054 5.974-6.904z" class="E"/><path d="M143.922 399.396l51.237 12.922s47.762-86.192 46.693-108.098c-1.476-30.254-36.957-123.144-36.957-123.144h-42.477s28.195 100.452 28.559 117.351c.19 8.84-47.055 100.969-47.055 100.969z" class="J"/><path d="M197.35 401.924c-2.73-1.091-27.122-8.134-45.315-11.979-.122-.026-.156.146-.043.186 5.732 2.025 41.886 11.529 45.282 11.997.112.015.199-.154.076-.204zm-2.834-125.072c-3.377-14.18-6.942-28.319-10.796-42.377-3.871-14.121-7.873-28.222-12.337-42.168l-1.666-5.1c-.086-.262-.487-.142-.41.124l11.796 41.687 10.802 41.953 2.49 10.434c.844 3.594 1.751 7.197 2.171 10.871.403 3.53.202 7.027-.702 10.466-.888 3.376-2.317 6.573-3.773 9.735l-18.374 39.91c-6.113 13.343-7.109 16.379-12.969 29.836l-2.154 5.017c-.046.111.11.204.167.092 6.7-13.181 7.734-16.358 13.954-29.77l18.713-40.514c2.802-6.096 6.093-12.317 6.512-19.139.435-7.09-1.798-14.23-3.424-21.057z" class="B"/><path d="M196.836 387.195l1.644 47.027c.267 8.989.662 16.864 1.246 20.92 0 .022 0 .044.01.066.219 1.53.464 2.504.746 2.757.022.022.033.044.054.055 2.729 1.733 74.625 1.691 77.131.846 2.517-.835.294-8.057-2.497-10.281-2.813-2.225-30.336-14.52-30.336-14.52l-2.09-46.959-45.908.089z" class="H"/><path d="M198.144 424.574l.337 9.648c.267 8.989.662 16.864 1.246 20.92 0 .022 0 .044.01.066.307 1.509.573 2.504.746 2.757.022.022.033.044.054.055 2.729 1.733 74.625 1.691 77.131.846 2.517-.835.294-8.057-2.497-10.281-2.813-2.225-30.336-14.52-30.336-14.52l-.208-9.796-46.483.305z" class="D"/><path d="M277.704 458.776c-2.544.814-75.01-.31-77.74-2.107-1.049-.665-1.501-11.233-1.68-24.019l-.001-.401 46.76.203-.03.793s27.545 12.837 30.341 15.129c2.771 2.284 4.895 9.6 2.35 10.402z" class="B"/><path d="M276.928 455.954c-12.211-.489-61.508-1.311-73.615-.867-.099.004-.1.071-.001.077 12.092.749 61.395 1.172 73.614.99.257-.004.259-.19.002-.2zm-27.99-22.506c-4.793-.972-10.684-.325-14.41 3.043-.145.13.043.333.2.287 4.766-1.421 9.209-2.312 14.182-2.723.35-.029.371-.538.028-.607zm3.437 2.145c-4.793-.972-10.684-.325-14.41 3.043-.145.13.044.334.199.287 4.766-1.421 9.21-2.312 14.182-2.723.351-.029.372-.538.029-.607zm3.438 2.145c-4.793-.972-10.684-.325-14.41 3.043-.145.13.043.333.2.287 4.766-1.421 9.209-2.312 14.182-2.723.349-.029.371-.538.028-.607z" class="E"/><path d="M278.851 456.196c1.29.52.942 4.871 0 5.206s-79.948-1.24-81.287-1.562-.77-5.132.794-5.355 80.493 1.711 80.493 1.711z" class="C"/><path d="M210.121 440.551c-5.213-2.709-9.431 5.388-4.209 8.101 5.213 2.709 9.431-5.388 4.209-8.101z" class="E"/><path d="M204.37 181.035s0 .011-.011.044c-.186.873-10.778 42.739-12.099 43.525-1.496.884 38.479 54.676 43.224 81.083 3.035 16.89 9.946 115.34 9.946 115.34h-50.917l-6.663-111.158c-.648-10.686-40.754-60.11-44.559-93.056-1.2-10.384 6.259-35.778 6.259-35.778h54.82z" class="J"/><g class="B"><path d="M193.223 381.169l-2.166-41.56c-.572-7.835-1.689-15.424-2.469-23.242-.041-.41-.372-.507-.361-.085.362 13.913 1.508 27.669 2.254 41.566.744 13.855 1.448 17.142 2.234 30.994l1.441 23.511c.009.122.19.119.19-.005.032-13.912-.515-17.282-1.123-31.179zm42.321-74.896c-.485-3.647-1.102-7.292-2.128-10.829-1.004-3.46-2.471-6.758-4.131-9.949-3.467-6.664-7.419-13.104-11.227-19.577l-11.798-19.535-6.816-10.869c-2.311-3.657-4.762-7.23-7.159-10.832-.095-.143-.315-.008-.227.141l11.657 19.626 11.588 19.666 11.184 19.474c1.732 3.141 3.376 6.339 4.59 9.721 1.245 3.467 1.992 7.081 2.574 10.711 1.355 8.467 2.467 16.986 4.174 25.393.021.105.194.077.186-.03-.533-7.716-1.447-15.444-2.467-23.111zm5.428 105.936c-2.916-.379-25.121-1.145-43.7-.353-.125.005-.116.18.005.19 6.055.538 40.266.768 43.671.378.113-.012.156-.198.024-.215z"/><path d="M198.923 221.657c-5.207 1.792-10.232 4.336-15.037 7.003-.188.104-.064.397.14.309 5.065-2.175 10.231-4.257 15.17-6.708.388-.192.126-.742-.273-.604zm1.525-34.695c-.014-.175-.321-.214-.32-.025.041 6.014-.342 11.304-.85 16.924-.235 2.609-2.334 17.028-6.859 15.977-.757-.176-1.144-.922-1.263-2.064-.143-1.373.374-3.057.601-4.422.502-3.018.906-6.047 1.165-9.096.484-5.692.508-11.384-.184-17.058-.023-.186-.292-.172-.292.016.007 7.879-.199 15.744-1.378 23.547-.566 3.75-2.455 9.397 1.467 9.974 3.996.588 6.58-8.87 7.067-11.457 1.363-7.217 1.416-15.012.846-22.316z"/><path d="M192.54 220.227a24.18 24.18 0 0 0-1.017 2.989c-.217.787-.513 1.637-.423 2.457.017.159.228.174.313.067.53-.673.755-1.593 1.051-2.391l1.026-2.776c.211-.62-.698-.943-.95-.346zm2.125 102.999c-.471-7.113-.446-14.628-3.471-21.231-1.5-3.275-3.573-6.236-5.543-9.238l-6.119-9.527c-8.04-12.773-15.718-25.798-22.753-39.154-3.388-6.431-6.508-13.07-8.21-20.169-1.782-7.427-1.852-15.206-.925-22.76.232-1.888.49-3.77.808-5.646.023-.137-.183-.192-.213-.053-1.527 7.224-2.328 14.65-1.673 22.028.631 7.108 2.893 13.841 5.871 20.288 3.102 6.714 6.79 13.174 10.428 19.608 3.75 6.633 7.61 13.204 11.59 19.702 3.96 6.465 8.124 12.794 12.254 19.15 1.999 3.076 3.858 6.245 4.872 9.796 1.032 3.615 1.312 7.38 1.554 11.115l6.42 83.731.54 5.964c.016.175.283.173.276-.007-.606-15.705-4.667-67.905-5.706-83.597zm-24.462-128.427c-.019-.111-.183-.071-.186.03-.146 4.375-.023 8.886-1.705 13.015-1.544 3.788-4.641 6.446-8.11 8.44-2.005 1.152-4.115 2.116-6.228 3.051-.152.067-.092.309.077.255 4.036-1.279 8.13-2.67 11.477-5.353 3.584-2.873 5.15-7.043 5.327-11.55.102-2.649-.208-5.283-.652-7.888z"/></g><g class="H"><path d="M192.395 123.571c5.711 17.562 21.167 47.473 26.688 51.078 4.889 3.193 27.901-.372 37.964-2.8 3.766-.908-4.699-29.572-8.705-28.52-4.807 1.262-19.142 4.487-20.184 3.696-1.145-.868-15.486-18.605-25.73-29.08-9.287-9.496-12.193-1.017-10.033 5.626z"/><path d="M254.87 172.072c1.931-.245 18.261-.984 25.754-5.073 3.968-2.165 14.203-9.348 13.188-11.926-.927-2.354-4.216-1.075-4.216-1.075s4.516-3.269 3.19-6.526-6.764-.812-6.764-.812 4.393-3.695 2.838-6.849-6.611.22-6.611.22 4.174-3.191 1.799-5.25c-2.857-2.477-9.888 4.276-14.634 5.861-1.078.36-22.366 5.739-22.366 5.739l7.822 25.691z"/></g><path d="M282.068 139.937c-5.183 4.954-8.307 6.225-15.225 7.625-.135.027-.125.235.019.219 6.899-.755 11.048-1.784 15.459-7.606.215-.284-.007-.473-.253-.238zm3.783 6.604c-5.832 4.675-9.209 6.084-16.346 8.083-.101.028-.064.202.041.182 7.166-1.376 11.281-2.498 16.495-7.934.236-.246.077-.545-.19-.331zm3.397 7.544c-5.973 4.119-9.609 5.823-16.787 6.875-.169.025-.15.274.023.266 7.424-.361 11.976-2.453 16.87-6.945.333-.308.27-.456-.106-.196z" class="B"/><path d="M241.472 147.303s5.947-6.732 9.213-9.114 18.7-6.777 19.839-3.497c1.47 4.235-6.94 8.528-11.334 10.092 0 0 3.41 9.792-1.96 14.179s-15.758-11.66-15.758-11.66z" class="H"/><path d="M270.546 135.988c-1.445 4.829-7.345 6.51-11.494 8.346-.316.14-.314.442-.16.663 1.155 4.2 1.562 10.461-1.38 13.994-.086.103.049.24.15.148 3.669-3.362 3.772-9.545 2.212-14.064 4.284-1.816 10.128-3.762 10.72-9.075.002-.03-.039-.042-.048-.012z" class="B"/><path d="M254.863 177.015l-7.546-34.341-18.657 3.386c-7.355-8.429-22.069-25.279-28.031-30.342-6.994-5.941-11.576-1.472-9.009 7.518 5.87 20.563 22.917 50.719 27.412 53.613 6.44 4.145 35.831.166 35.831.166z" class="C"/><path d="M228.22 156.502c.863.302 1.912.206 2.811.33 1.973.271 2.879 3.218 1.064 4.336-1.952 1.201-4.297 1.39-6.449.552-2.008-.782-3.688-2.72-3.259-4.978.376-1.98 2.423-2.546 3.994-1.544.641.409 1.112 1.049 1.839 1.304zm-5.159-8.173c-.719 3.406 4.535 6.319 7.228 4.508.965-.648.931-2.129.068-2.832-.784-.638-1.447-.737-2.147-1.317-.342-.283-.271-.226-.637-.671-.455-.554-.846-.973-1.493-1.333-1.3-.723-2.753.387-3.019 1.645zm-8.393.181c-1.083 1.407-.265 3.531.683 4.809.937 1.263 2.33 2.08 3.932 1.91 1.205-.128 1.743-1.807.741-2.557-.626-.469-1.112-1.1-1.4-1.747-.47-1.055-.788-2.424-1.97-2.889-.679-.268-1.521-.129-1.986.474zm22.151 22.238c-1.408 2.854 2.882 6.092 5.485 5.53.869-.188 1.71-1.331.935-2.149-.621-.655-1.361-1.182-1.94-1.879-.706-.85-1.095-1.944-2.207-2.369-.893-.341-1.843-.006-2.273.867zM196.54 135.8c-.24-.45-.57-.89-.98-1.21l1.77 4.31c.12-1.05-.35-2.24-.79-3.1zm5.565-3.013c-.07-2.467-1.269-4.795-2.756-6.71-1.199-1.543-3.274-4.025-5.477-3.471-.52.131-.758.617-.798 1.102-.14 1.69 1.8 3.506 2.633 4.851 1.054 1.703 1.796 3.584 2.874 5.267 1.013 1.584 3.579.894 3.524-1.039zm-.649 10.756c.795-.059 1.495-.585 1.685-1.379s.071-1.555-.15-2.331c-.182-.637-.507-1.48-1.045-1.908-.816-.646-2.07-.424-2.337.69-.135.564-.035 1.187-.021 1.763a9.64 9.64 0 0 1-.021.76c-.02.384.058.748.122 1.126.125.741 1.048 1.333 1.767 1.279z" class="G K"/><path d="M248.331 174.001c-.858-2.029-2.97-10.883-3.472-13.094-.492-2.166-2.214-11.148-2.722-13.421-.028-.124.141-.2.171-.074.541 2.241 2.956 11.056 3.479 13.261.524 2.212 2.524 11.066 2.659 13.297.004.076-.087.096-.115.031z" class="B"/><path d="M231.017 178.724c-5.247-.029-9.854-.505-11.982-1.876-4.499-2.896-21.544-33.05-27.413-53.612-1.477-5.16-.593-8.833 1.749-9.902l37.646 65.39z" class="G"/><path d="M146.382 185.711c.126.186 62.526 8.191 63.195 7.613.246-.215.755-5.267.755-5.267s-5.72-67.938-8.681-71.922c-2.591-3.485-10.445-5.999-15.798-3.73-11.231 4.76-38.121 65.461-37.831 67.964 0-.002-1.799 5.103-1.64 5.342z" class="C"/><path d="M168.877 177.44c.861.564 2.033.744 2.981 1.122 2.082.831 2.273 4.296-.013 5.025-2.458.784-5.071.355-7.195-1.144-1.982-1.399-3.291-3.971-2.211-6.321.947-2.061 3.337-2.125 4.782-.604.59.62.931 1.447 1.656 1.922zm-3.42-10.327c-1.709 3.526 3.242 8.132 6.674 6.884 1.23-.447 1.594-2.073.842-3.075-.684-.91-1.382-1.197-1.989-2.021-.297-.402-.235-.32-.514-.906-.347-.728-.661-1.292-1.269-1.86-1.225-1.143-3.113-.325-3.744.978zm-5.775-3.76c-1.872.699-2.355 3.215-2.209 5.002.143 1.764.988 3.374 2.619 4.165 1.228.595 2.74-.689 2.23-2.002a5.1 5.1 0 0 1-.298-2.502c.179-1.288.69-2.785-.163-3.933-.489-.662-1.375-1.031-2.179-.73zm20.5 11.899c-.987-.128-1.91.605-2.045 1.584-.145 1.055.577 1.984 1.553 2.31.732.245 1.363.219 2.097.011.347-.098.638-.429.81-.723.185-.317.299-.709.232-1.081-.122-.684-.652-1.334-1.367-1.445-.065-.074-.134-.147-.223-.217-.308-.246-.667-.388-1.057-.439zm-15.336-24.132c-1.672 1.722-.957 5.631.921 6.946 1.086.76 2.67.223 2.846-1.17.059-.462.031-.737.022-1.185l-.037-.956c.047-.837.281-1.771.089-2.591-.445-1.894-2.507-2.418-3.841-1.044zm-10.837 24.84c-2.311 2.737 1.498 7.437 4.494 7.528 1 .031 2.228-.991 1.603-2.094-.501-.884-1.167-1.66-1.61-2.578-.541-1.12-.669-2.421-1.769-3.186-.883-.616-2.011-.507-2.718.33zm55.171-.87c-.69.11-1.34.57-1.58 1.44-.32 1.11-.36 2.1-1.19 2.97-.84.87-1.83 1.41-2.45 2.48-.54.91.26 2.26 1.34 2.14 1.73-.18 3.34-1.11 4.47-2.44l-.59-6.59zm-5.027-8.248c-.565 1.36-.462 2.9-.929 4.322-.419 1.277-.913 2.603-1.479 3.82-.415.893.424 2.32 1.516 1.835 1.821-.808 3.17-1.875 4.061-3.71.761-1.569 1.6-4.205.868-5.883-.671-1.538-3.219-2.352-4.037-.384zm-5.702 13.627c-.886.988-1.86 2.036-3.112 2.554-1.185.489-1.889 1.67-1.317 2.929.581 1.28 1.901 1.471 3.071.937 2.092-.956 3.696-2.632 4.338-4.856.49-1.696-1.854-2.819-2.98-1.564zm-9.144-48.998c1.178.194 2.291-.42 2.604-1.618.563-2.155-1.361-4.366-2.882-5.708-1.568-1.383-3.663-2.559-5.786-1.866-1.346.439-1.507 1.896-.709 2.894.927 1.16 2.216 2.011 3.206 3.136 1.07 1.216 1.826 2.876 3.567 3.162zm7.645 8.477c.838-1.211.19-2.987-.414-4.147-.32-.615-.81-1.179-1.424-1.519-.827-.458-2.088-.4-2.565.55-.309.616-.281 1.175-.119 1.82.081.323.201.594.336.904l.042.092.024.081c.286.928.467 1.96 1.175 2.672.935.941 2.279.511 2.945-.453zm5.153-7.161c-.07-2.467-1.269-4.795-2.756-6.71-1.199-1.543-3.274-4.025-5.477-3.471-.52.131-.758.617-.798 1.102-.14 1.69 1.8 3.506 2.633 4.851 1.054 1.703 1.796 3.584 2.874 5.267 1.013 1.584 3.579.894 3.524-1.039zm-7.55 17.119a2.61 2.61 0 0 0 1.119-.033c.567-.141 1.003-.581 1.304-1.054.313-.492.362-1.169.388-1.732.027-.587-.206-1.097-.451-1.612l-.327-.41-.438-.321c-.396-.215-.845-.275-1.285-.204-.798.128-1.462.724-1.654 1.522-.142.59-.315 1.168-.349 1.778l.089.553a1.63 1.63 0 0 0 .403.735c.296.368.724.688 1.201.778zm6.901-6.363c.795-.059 1.495-.585 1.685-1.379s.071-1.555-.15-2.331c-.182-.637-.507-1.48-1.045-1.908-.816-.646-2.07-.424-2.337.69-.135.564-.035 1.187-.021 1.763a9.64 9.64 0 0 1-.021.76c-.02.384.058.748.122 1.126.125.741 1.048 1.333 1.767 1.279z" class="G K"/><path d="M198.008 126.78c-3.812-.35-8.691-8.487-9.618-13.665-.061-.355 1.458-3.362 3.132-7.103 1.007-2.274 2.074-4.83 2.88-7.232l13.841 8.714s-3.17 4.539-4.549 8.737c-.111.352-.186.689-.227 1.021-.01.047-.015.106-.033.171-.324 1.975-1.741 9.692-5.426 9.357z" class="H"/><path d="M203.463 117.254c-.011.043-.015.1-.032.164-.495-.085-1.018-.234-1.576-.427-8.655-3.121-7.129-14.482-6.52-17.619l3.458 2.176 9.448 5.95s-3.173 4.539-4.545 8.738a5.43 5.43 0 0 0-.233 1.018z" class="B"/><path d="M195.839 82.747c-2.86 5.151-3.355 21.693-.194 26.081 4.582 6.361 13.78 8.842 19.612 2.947 5.654-5.715 5.916-27.284 2.228-31.446-5.432-6.129-17.421-5.191-21.646 2.418z" class="H"/><g class="B"><path d="M209.122 96.121c-.007-.043-.091.051-.091.098-.003 1.139-.198 2.442-1.24 2.785-.032.01-.031.068.008.064 1.261-.134 1.502-1.867 1.323-2.947z"/><path d="M208.146 94.899c-1.824-.201-2.094 3.463-.403 3.649 1.664.184 1.933-3.48.403-3.649zm7.534 1.61c.012-.042.085.061.079.107-.127 1.132-.081 2.449.915 2.908.031.014.023.071-.015.063-1.238-.276-1.28-2.026-.979-3.078z"/><path d="M216.788 95.406c1.836.007 1.686 3.678-.015 3.672-1.674-.007-1.524-3.678.015-3.672zm-7.161-1.244c-.505.108-.988.123-1.498.178-.576.062-1.028.171-1.563-.11-.287-.15-.423-.607-.303-.899.279-.681.965-.932 1.655-1.035a2.82 2.82 0 0 1 2.003.379c.631.374.371 1.345-.294 1.487zm8.8-2.164c-.502-.12-.945-.315-1.429-.485-.546-.192-1.001-.289-1.362-.772-.194-.259-.12-.729.114-.942.545-.494 1.273-.425 1.939-.221a2.83 2.83 0 0 1 1.645 1.206c.407.608-.245 1.372-.907 1.214zm-10.137 13.138c1.478-.474 3.316-.166 4.477.058.132-.011.268-.261.298-.383v-.008l.087-2.403c.305.179 1.866 1.01 1.87.557.025-3.75.055-7.921-.712-11.658-.019-.125-.209-.109-.207.015-.167 3.604.3 7.212.189 10.834-.501-.229-1.314-.646-1.766-.667-.125.027.038 2.549-.029 2.934 0 0-2.245-.839-4.194.227-.504.275-.718.72-.013.494zm-2.963 2.385c.253.28.5.659.906.718.389.057.859-.092 1.227-.209.036-.011.07.028.045.061a1.52 1.52 0 0 1-1.465.523c-.504-.12-.729-.576-.824-1.049-.014-.066.074-.085.111-.044z"/><path d="M200.667 77.498c-.145 2.577-.757 10.537-1.995 12.163-1.179 1.558-3.859 5.388-5.195 5.976.185-5.311 1.001-10.36 2.377-12.971 1.134-2.174 2.823-3.908 4.813-5.168z" class="I"/><path d="M214.917 85.293c-1.426 1.428-3.49 2.066-5.468 1.6-1.926-.454-3.765-1.938-4.33-3.876-.017-.058-.107-.031-.09.026.605 2.072 2.123 3.852 4.305 4.311 2.047.431 4.337-.363 5.686-1.96.06-.07-.037-.167-.103-.101zM209.9 70.465c-3.386-.166-6.622 1.485-8.021 3.701-.85 1.346-1.064 2.758-.939 4.219.005.059.127.056.126-.004-.032-2.303 1.284-4.83 3.849-6.254 2.465-1.368 5.625-1.621 8.261-.403 1.376.636 2.457 1.614 2.967 2.749.057.127.316.065.271-.063-.767-2.175-3.449-3.795-6.514-3.945zm19.114 8.721c-.415-1.702-1.477-3.212-2.892-4.233-1.983-1.431-4.342-1.408-6.685-1.337-.064.002-.061.101.002.099 1.995-.054 4.022.008 5.778 1.069 1.431.865 2.584 2.221 3.136 3.807 1.146 3.291-.432 7.161-3.588 8.661-1.787.849-3.929.916-5.763.177-.072-.029-.134.076-.061.108 3.345 1.452 7.495.175 9.29-3.045.886-1.59 1.217-3.529.783-5.306z"/><path d="M194.837 85.978s-2.754-6.285.192-9.583c1.669-1.869 6.694-1.227 6.694-1.227s1.845-2.778 6.095-3.418c4.296-.647 9.128 2.198 9.128 2.198s4.183-1.992 7.776.438c5.01 3.389 3.752 11.315-1.712 13.481-3.837 1.521-8.615-2.135-8.615-2.135-.488.029-5.663 2.638-9.069-2.06 0 0-3.245 2.473-5.831.372-.001-.003-1.59 2.635-4.658 1.934z"/></g><path d="M196.467 96.45s-2.617-5.867-5.212-5.03-1.322 8.854 1.234 10.41 4.043-.781 4.043-.781l-.065-4.599z" class="H"/><path d="M191.678 93.708c-.043-.012-.064.048-.029.071 1.78 1.155 2.451 3.141 2.805 5.135-.436-.825-1.143-1.368-2.232-.869-.057.026-.024.115.033.113.824-.017 1.368.23 1.78.967.292.521.441 1.139.612 1.709.057.19.387.158.359-.054l-.007-.048c.523-2.452-.726-6.266-3.321-7.024z" class="B"/><path d="M227.431 141.079L335.1 108.098l19.412 63.373-107.668 32.981z" class="C"/><path d="M227.431 141.079L335.1 108.098l19.412 63.373-107.668 32.981z" class="I"/><path d="M298.911 119.181l36.183-11.083 19.413 63.375-36.183 11.083z" class="I"/><g class="C"><path d="M333.337 111.331l-3.554 16.841-3.417 16.878-3.297 16.91-3.157 16.948 3.555-16.84 3.415-16.878 3.296-16.91 3.159-16.949z"/><path d="M351.109 169.351l-12.107-12.272-12.202-12.163-12.282-12.07-12.377-11.96 12.107 12.272 12.201 12.163 12.283 12.069 12.377 11.961z"/></g><path d="M248.691 149.038l-.59.181-2.549-8.324.59-.181zm-1.401.455l-.59.181-2.55-8.323.59-.181zm-1.435.425l-.59.181-2.549-8.324.59-.181zm-1.419.447l-.59.181-2.549-8.324.59-.181zm-1.396.429l-.59.181-2.55-8.323.59-.181zm-1.417.434l-.59.181-2.55-8.323.59-.181zm-1.432.426l-.59.181-2.549-8.324.59-.181zm-1.407.441l-.59.181-2.551-8.323.59-.181zm-1.427.426l-.59.181-2.549-8.324.59-.181zm14.775-12.931l-2.465.064 5.331-1.633-2.076 1.335.937 3.06c1.691-.285 2.828 1.121 3.687 3.925l-5.331 1.633c-.857-2.797-.704-4.606.856-5.317l-.939-3.067zm5.356 2.125l1.391-.426-1.247-4.075 3.563-1.091 1.248 4.074 1.398-.428-1.879 5.219z" class="B"/><path d="M227.416 141.077l1.592 5.198 74.424-12.271-4.538-14.816z" class="G"/><path d="M368.441 178.656l-36.186 11.084-13.951-7.184 36.186-11.084z" class="C"/><path d="M368.441 178.656l-36.186 11.084-13.951-7.184 36.186-11.084z" class="I"/><path d="M239.292 218.215l36.186-11.084 7.534-13.765-36.187 11.084z" class="C"/><path d="M239.292 218.215l36.186-11.084 7.534-13.765-36.187 11.084z" class="G"/><g class="H"><path d="M179.73 131.301c5.289 17.693 20.024 47.967 25.457 51.703 4.811 3.309 27.902.296 38.02-1.89 3.786-.818-3.989-29.676-8.019-28.721-4.836 1.146-19.243 4.027-20.267 3.212-1.124-.895-15.035-18.971-25.026-29.688-9.057-9.716-12.166-1.309-10.165 5.384z"/><path d="M233.112 154.74s7.647-8.624 13.068-11.911c7.258-4.402 15.336-5.214 18.742-5.35 7.11-.284 24.496 3.946 24.151 9.166-.312 4.725-17.865-.496-17.865-.496s18.775 2.37 17.354 7.991-21.454-1.6-21.454-1.6 19.237 2.868 16.854 8.432c-1.801 4.205-20.312-1.312-20.312-1.312s16.517 2.579 14.852 6.983c-1.841 4.867-19.247.846-19.247.846-6.118 10.482-13.319 12.97-18.653 14.13-1.292.281-7.49-26.879-7.49-26.879z"/></g><path d="M264.766 144.913l6.65.78 6.512 1.463c5.258 1.464 8.321 3.203 8.12 3.117-4.752-2.053-12.571-3.588-14.762-3.983s-4.352-.898-6.538-1.294c-.055-.01-.034-.088.018-.083zm-1.569 7.883l8.432 1.146c2.788.498 5.391 1.215 8.138 1.904.212.053.114.149-.101.104l-8.159-1.446-8.324-1.643c-.044-.005-.029-.07.014-.065zm-2.564 6.524c4.336.354 8.602 1.508 12.759 2.74.207.061.067.172-.148.121-4.224-.991-7.531-1.798-12.623-2.71-.08-.014-.079-.159.012-.151z" class="B"/><path d="M240.9 186.226l-6.721-34.512-18.733 2.939c-7.151-8.603-21.457-25.8-27.296-31.005-6.85-6.106-11.537-1.749-9.187 7.3 5.376 20.698 21.696 51.254 26.12 54.254 6.339 4.297 35.817 1.024 35.817 1.024z" class="C"/><path d="M228.22 156.502c.863.302 1.912.206 2.811.33 1.973.271 2.879 3.218 1.064 4.336-1.952 1.201-4.297 1.39-6.449.552-2.008-.782-3.688-2.72-3.259-4.978.376-1.98 2.423-2.546 3.994-1.544.641.409 1.112 1.049 1.839 1.304zm-1.97-3.542c1.38.57 2.93.63 4.04-.12.23-.16.41-.36.52-.6l-4.56.72zm-9.73 1.52c.79.56 1.73.86 2.76.75.73-.08 1.22-.72 1.26-1.38l-4.02.63zm21.2 15.41c-.37.15-.69.44-.9.86-.84 1.69.33 3.51 1.96 4.6l-1.06-5.46zm-30.12 6.638c-.316 1.108-.361 2.099-1.194 2.969s-1.821 1.414-2.448 2.479c-.536.911.267 2.26 1.346 2.145 3.442-.369 6.435-3.702 6.132-7.22-.191-2.21-3.223-2.523-3.836-.373zm-3.447-9.686c-.565 1.36-.462 2.9-.929 4.322-.419 1.277-.913 2.603-1.479 3.82-.415.893.424 2.32 1.516 1.835 1.821-.808 3.17-1.875 4.061-3.71.761-1.569 1.6-4.205.868-5.883-.671-1.538-3.219-2.352-4.037-.384zm-14.846-35.371c1.178.194 2.291-.42 2.604-1.618.563-2.155-1.361-4.366-2.882-5.708-1.568-1.383-3.663-2.559-5.786-1.866-1.346.439-1.507 1.896-.709 2.894.927 1.16 2.216 2.011 3.206 3.136 1.07 1.216 1.826 2.876 3.567 3.162zm7.645 8.477c.838-1.211.19-2.987-.414-4.147-.32-.615-.81-1.179-1.424-1.519-.827-.458-2.088-.4-2.565.55-.309.616-.281 1.175-.119 1.82.081.323.201.594.336.904l.042.092.024.081c.286.928.467 1.96 1.175 2.672.935.941 2.279.511 2.945-.453zm-2.397 9.958a2.61 2.61 0 0 0 1.119-.033c.567-.141 1.003-.581 1.304-1.054.313-.492.362-1.169.388-1.732.027-.587-.206-1.097-.451-1.612l-.327-.41-.438-.321c-.396-.215-.845-.275-1.285-.204-.798.128-1.462.724-1.654 1.522-.142.59-.315 1.168-.349 1.778l.089.553a1.63 1.63 0 0 0 .403.735c.296.368.724.688 1.201.778zM203 139.85c-.01-.01-.01-.01-.01-.02l-1.95-2.25a1.31 1.31 0 0 0-1.43 1.04c-.14.56-.04 1.18-.02 1.76l-.02.76c-.02.38.05.75.12 1.12.12.75 1.05 1.34 1.77 1.28.79-.06 1.49-.58 1.68-1.38.19-.78.07-1.54-.14-2.31z" class="G K"/><g class="B"><path d="M234.442 183.057c-.81-2.049-2.708-10.951-3.157-13.174-.44-2.177-1.946-11.198-2.4-13.483-.025-.124.145-.197.173-.07.487 2.253 2.691 11.124 3.16 13.341.471 2.224 2.258 11.123 2.339 13.357.003.077-.089.094-.115.029zm-6.182 4.146l-9.214.225-9.22-.528c-1.526-.237-3.074-.458-4.535-1.202-1.411-.885-2.36-2.132-3.322-3.351-1.877-2.478-3.403-5.167-4.912-7.851-3.002-5.383-5.576-10.976-8.099-16.581-2.46-5.634-4.805-11.317-6.906-17.094l7.684 16.74c2.569 5.571 5.274 11.078 8.136 16.489 1.45 2.694 2.991 5.343 4.721 7.839.88 1.211 1.814 2.49 3.003 3.271 1.274.684 2.823.957 4.31 1.208 6.047.871 12.222.885 18.354.835z"/><path d="M184.018 145.698c-.425-.407-.766-.878-1.104-1.351-.304-.491-.644-.982-.778-1.564.148.252.327.477.49.715l.495.71.897 1.49zm15.768-9.272c2.536 2.545 4.8 5.334 7.149 8.04l6.991 8.155.898.984c.152.157.303.32.457.463.078.08.15.136.221.196.054.048.019.005.019.028.007.009.073-.002.106-.001.762-.032 1.725-.169 2.587-.285l5.313-.785 10.645-1.544.037-.005.005.034.134.88-.206-.866.042.029c-3.508.755-7.031 1.423-10.56 2.066a199.99 199.99 0 0 1-5.313.874c-.912.127-1.725.28-2.752.323-.077-.007-.129.01-.225-.019-.096-.035-.24-.113-.267-.145a3.69 3.69 0 0 1-.286-.244c-.176-.161-.332-.325-.494-.488-.314-.329-.621-.66-.917-1-2.356-2.721-4.635-5.486-6.872-8.289l-3.345-4.211c-1.11-1.407-2.186-2.844-3.367-4.19z"/><path d="M201.104 136.735c.376.456.661.965.941 1.476.245.525.526 1.054.593 1.649-.119-.268-.27-.514-.405-.77l-.41-.765-.719-1.59z"/></g><g class="C"><path d="M81.161 398.219c-.381-9.356-.228-18.73.385-28.072 1.264-19.27 4.437-38.39 8.794-57.192 2.452-10.583 5.472-20.989 8.619-31.382.095-.314.596-.225.509.102-9.731 36.639-17.714 74.45-17.164 112.537.154 10.659 1.388 21.129 2.4 31.72.027.284-.439.396-.504.105-2.009-9.064-2.662-18.561-3.039-27.818z"/><path d="M99.468 281.675s14.74 37.415 11.44 46.209-10.104 10.67-10.104 10.67 9.019 12.876 2.716 24.953-20.305 11.506-21.236 25.199c.001.001-.78-57.255 17.184-107.031z"/></g><path d="M83.887 365.065c-.018-.063-.014-.129.015-.197 2.07-25.44 6.583-50.801 14.298-75.266.023-.072.142-.049.122.026-2.92 10.945-5.519 21.948-7.74 33.012 1.914-1.971 4.418-3.105 7.036-3.923.049-.015.074.055.027.075-2.726 1.178-5.338 2.545-7.265 4.854l-1.252 6.51c3.294-3.682 7.863-5.508 12.434-7.245.064-.025.099.075.036.1-4.761 1.938-9.503 4.435-12.729 8.538-1.124 6.209-2.108 12.44-2.96 18.69 2.408-2.516 5.38-4.207 8.79-5.038.102-.025.16.127.056.157-3.503 1.009-6.516 2.97-8.915 5.71-.017.019-.036.029-.055.041l-.834 6.604c1.855-1.582 3.904-2.785 6.161-3.716.06-.025.092.069.033.094-2.292.976-4.355 2.382-6.171 4.084-.026.024-.052.022-.079.031l-.702 6.291c3.38-4.073 7.558-7.019 12.502-8.927.097-.037.147.11.054.15-4.807 2.09-9.045 5.402-12.321 9.481-.09.112-.207.13-.311.097l-.841 9.675c-.003.044-.076.049-.073.003l.684-9.911zm11.844-50.066c2.557-1.757 5.805-2.507 8.856-2.761.073-.006.079.102.008.113-3.174.471-5.841 1.62-8.757 2.86-.126.053-.217-.137-.107-.212zm-1.79 39.612c2.023-1.214 4.33-1.9 6.648-2.274.081-.013.088.112.009.126-2.353.426-4.438 1.264-6.576 2.306-.091.045-.167-.106-.081-.158z" class="B"/><g class="C"><path d="M42.411 328.495c6.147 4.321 12.047 9.306 17.061 14.914 5.345 5.977 9.243 12.762 11.966 20.292 5.577 15.426 8.635 32.137 8.914 48.532.156 9.191-.661 18.31-2.628 27.293-.072.326-.56.234-.51-.096a153.1 153.1 0 0 0-.267-47.708c-2.534-15.478-6.511-32.317-16.349-44.896-5.357-6.849-12.037-12.238-18.64-17.807-.348-.294.095-.776.453-.524z"/><path d="M78.182 401.087s-5.063-8.525-12.437-15.897-13.585-12.612-14.543-17.488 7.387-8.466 7.387-8.466-10.205 1.832-12.997-2.451-4.14-29.087-4.14-29.087 18.565 13.254 27.214 31.834 9.516 41.555 9.516 41.555z"/></g><path d="M47.875 334.056c7.811 7.672 15.673 15.848 20.273 25.927 1.577 3.456 2.919 7.039 4.101 10.691l.707 2.22c.022.037.034.078.038.12 2.274 7.527 3.882 15.312 5.274 22.916.009.049-.065.075-.076.024-.8-3.87-1.682-7.778-2.668-11.674a.27.27 0 0 1-.111-.022c-1.579-.664-3.167-1.079-4.872-1.237-.111-.01-.102-.203.01-.198 1.645.079 3.256.368 4.819.879-.899-3.513-1.877-7.017-2.976-10.47-3.584-.878-7.325-1.351-11.011-1.439-.038-.001-.044-.058-.005-.06 3.716-.173 7.207.147 10.826.919l-.588-1.772c-2.42-.551-4.851-1.015-7.327-1.241-.044-.004-.041-.08.004-.079 2.425.065 4.814.32 7.174.872-1.01-2.988-2.102-5.935-3.313-8.806-1.002-2.374-2.193-4.629-3.505-6.805-1.985-.449-3.909-.877-5.943-1.06-.057-.005-.05-.095.005-.099 1.846-.12 3.77.018 5.556.549-.976-1.577-2.003-3.122-3.1-4.618-4.164-.922-8.384-1.778-12.642-.978-.074.014-.101-.11-.028-.129 4.054-1.066 8.078-.451 12.112.347l-1.345-1.739c-2.555-.79-5.097-1.173-7.778-1.222-.055-.001-.064-.081-.007-.086 2.447-.234 4.888.003 7.252.644-3.442-4.276-7.243-8.292-11.002-12.265-.175-.183-.039-.29.146-.109zm.207 16.909c1.222-.13 2.465-.267 3.692-.128.149.017.136.259-.014.263-1.222.036-2.444-.055-3.667.011-.092.005-.104-.136-.011-.146zm13.362 24.062c1.951-.024 3.899.501 5.722 1.149.046.016.02.092-.027.081-1.89-.45-3.801-.633-5.71-.947-.155-.026-.148-.281.015-.283zm4.005-8.312c.792-.041 1.648.098 2.429.22.08.013.076.143-.008.145-.789.014-1.657.035-2.434-.114-.137-.028-.132-.244.013-.251z" class="B"/><g class="C"><path d="M132.603 354.818c-5.974 2.076-11.9 4.747-17.254 8.126-5.707 3.602-10.43 8.192-14.374 13.656-8.079 11.195-14.416 24.012-18.431 37.215-2.251 7.402-3.697 14.97-4.182 22.695-.018.281.399.319.435.04a128.87 128.87 0 0 1 11.243-38.548c5.629-11.94 12.739-24.649 23.608-32.555 5.919-4.305 12.57-7.122 19.201-10.103.349-.155.101-.647-.246-.526z"/><path d="M86.875 405.298s6.068-5.729 13.739-9.991 13.909-7.067 15.812-10.791-4.021-8.559-4.021-8.559 7.835 3.841 11.084 1.021 10.073-22.583 10.073-22.583-18.087 6.436-29.382 19.473-17.305 31.43-17.305 31.43z"/></g><path d="M87.818 401.221c9.047-16.98 21.118-32.342 37.658-42.481-4.347 2.786-8.359 5.986-12.099 9.485 3.348-.093 6.757.441 9.725 2.053.066.036.018.124-.049.102-3.308-1.119-6.487-1.854-10.006-1.691-.049.002-.079-.023-.113-.042l-1.74 1.693c1.741.075 3.501.321 5.197.69.046.01.033.081-.014.072-1.835-.355-3.626-.478-5.489-.453-3.031 3.046-5.855 6.304-8.531 9.687a8.67 8.67 0 0 1 3.634.264c.086.025.064.148-.027.137-1.318-.167-2.57-.145-3.879-.053l-1.481 1.896c3.72-.224 7.363.133 10.978 1.067.053.014.039.096-.016.085-3.728-.732-7.487-.966-11.275-.732-.461.612-.899 1.241-1.351 1.861 2.219-.068 4.371.21 6.535.748.082.02.059.15-.025.131-2.226-.507-4.489-.635-6.764-.527a183.51 183.51 0 0 0-5.602 8.196c.949-.195 1.945-.089 2.868.173.049.014.036.084-.015.078-1.065-.124-2.058.013-3.104.147a217.66 217.66 0 0 0-4.661 7.589c-.127.211-.475.051-.354-.175zm14.072-14.084c1.769-.152 3.566.126 5.255.643.048.015.037.088-.015.078-1.739-.32-3.463-.441-5.226-.535-.116-.007-.138-.176-.014-.186zm15.777-20.694c.8-.091 1.634.013 2.424.141.094.015.065.154-.028.144-.797-.085-1.583-.055-2.38-.079-.13-.004-.15-.19-.016-.206z" class="B"/><path d="M63.546 461.448h40.828l-5.821-42.645-1.488-10.934h-26.21l-1.487 10.934z" class="J"/><path d="M69.368 418.803h29.185l-1.488-10.934h-26.21z" class="B"/><path d="M100.813 413.336H67.107v-9.26h33.706z" class="J"/><path d="M281.003 60.765c0 12.269-9.951 22.22-22.22 22.22a22.08 22.08 0 0 1-13.237-4.382l-10.885 2.779 4.532-10.136c-1.684-3.125-2.629-6.699-2.629-10.481 0-12.269 9.951-22.22 22.22-22.22s22.219 9.951 22.219 22.22z" class="E"/><path d="M281.003 60.765c-.038 4.083-1.098 8.192-3.284 11.67-.491.903-1.164 1.684-1.761 2.516-.698.75-1.337 1.559-2.125 2.22-1.486 1.415-3.199 2.583-5.019 3.531-1.806.995-3.8 1.59-5.803 2.048-1.017.163-2.032.364-3.066.383-1.029.085-2.063.083-3.094.005a22.46 22.46 0 0 1-11.517-4.249l.301.06-10.864 2.859-.88.231.37-.836 4.493-10.153.016.425c-3.351-6.039-3.525-13.632-.697-19.879 1.408-3.128 3.538-5.918 6.167-8.104 2.626-2.192 5.775-3.722 9.078-4.523 3.307-.792 6.789-.844 10.099-.112a22.71 22.71 0 0 1 9.069 4.345c5.363 4.131 8.541 10.835 8.517 17.563zm0 0c-.028-6.73-3.254-13.381-8.613-17.441a22.41 22.41 0 0 0-9.046-4.125c-3.272-.657-6.685-.535-9.894.301-3.206.844-6.233 2.391-8.731 4.562-2.49 2.174-4.499 4.883-5.84 7.892-1.374 3.006-1.898 6.34-1.819 9.623a22.21 22.21 0 0 0 2.556 9.442l.112.212-.096.214-4.57 10.118-.509-.605 10.905-2.699.168-.042.133.101a21.85 21.85 0 0 0 11.131 4.349c1.008.097 2.021.118 3.033.054 1.017.002 2.016-.177 3.021-.317 1.978-.413 3.959-.96 5.764-1.91 1.817-.904 3.549-2.021 5.03-3.425.789-.651 1.43-1.45 2.13-2.191.6-.823 1.276-1.596 1.772-2.491 2.203-3.448 3.293-7.539 3.363-11.622z" class="B"/><path d="M260.327 63.174v2.448a1.8 1.8 0 0 1-1.845 1.844c-.978 0-1.844-.791-1.844-1.844v-3.916c0-.037.038-.037.038-.075-.038-.037-.038-.037-.038-.075 0-.979.866-1.845 1.844-1.845 2.373 0 4.293-1.882 4.293-4.216 0-2.371-1.921-4.216-4.293-4.216-1.543 0-2.898.829-3.614 2.071-.526.904-1.655 1.205-2.56.678a1.83 1.83 0 0 1-.639-2.521c1.355-2.334 3.915-3.916 6.813-3.916 4.368 0 7.944 3.539 7.944 7.906 0 3.725-2.598 6.85-6.099 7.677zm0 8.245v.677a1.8 1.8 0 0 1-1.845 1.845c-.978 0-1.844-.791-1.844-1.845v-.677c0-1.016.866-1.844 1.844-1.844 1.054 0 1.845.828 1.845 1.844z" class="C"/><defs ><path id="B" d="M427.178 345.488l13.356-.279 6.579-.112 6.546-.055-.446.446-.054-11.19.499.499-13.24-.063-13.24-.164.273-.273-.131 5.536-.142 5.655zm0 0l-.142-5.536-.131-5.654-.003-.27.276-.003 13.24-.164 13.24-.063.502-.002-.002.502-.054 11.19-.002.449-.444-.004-6.695-.055-6.661-.112-13.124-.278z"/><path id="C" d="M232.14 235.581l13.356-.279 6.579-.112 6.546-.055-.446.446-.054-11.19.499.499-13.24-.063-13.24-.164.273-.273-.131 5.536-.142 5.655zm0 0l-.142-5.536-.131-5.654-.003-.27.276-.003 13.24-.164 13.24-.063.502-.002-.002.502-.054 11.19-.002.449-.444-.003-6.695-.055-6.661-.112-13.124-.279z"/><path id="D" d="M250.303 276.151c.803.094 1.379.821 1.285 1.625s-.821 1.378-1.625 1.285-1.378-.821-1.285-1.625.822-1.379 1.625-1.285z"/></defs></svg>