<svg xmlns="http://www.w3.org/2000/svg" class="A" id="A" viewBox="0 0 500 500" xmlns:v="https://vecta.io/nano"><style><![CDATA[svg#A.A #B{animation:1s 1 forwards cubic-bezier(.36,-0.01,.5,1.38) slideDown;animation-delay:0s}svg#A.A #C{animation:1s 1 forwards cubic-bezier(.36,-0.01,.5,1.38) slideLeft;animation-delay:0s}svg#A.A #D{animation:1s 1 forwards cubic-bezier(.36,-0.01,.5,1.38) lightSpeedLeft;animation-delay:0s}svg#A.A #E{animation:1s 1 forwards cubic-bezier(.36,-0.01,.5,1.38) slideLeft;animation-delay:0s}svg#A.A #F{animation:1s 1 forwards cubic-bezier(.36,-0.01,.5,1.38) zoomIn;animation-delay:0s}svg#A.A #G{animation:1s 1 forwards cubic-bezier(.36,-0.01,.5,1.38) slideDown;animation-delay:0s}svg#A.A #H{animation:1s 1 forwards cubic-bezier(.36,-0.01,.5,1.38) lightSpeedLeft;animation-delay:0s}svg#A.A #I{animation:1s 1 forwards cubic-bezier(.36,-0.01,.5,1.38) zoomOut;animation-delay:0s}@keyframes slideDown{0%{opacity:0;transform:translateY(-30px)}100%{opacity:1;transform:translateY(0)}} @keyframes slideLeft{0%{opacity:0;transform:translateX(-30px)}100%{opacity:1;transform:translateX(0)}} @keyframes lightSpeedLeft{from{transform:translate3d(-50%, 0, 0) skewX(20deg);opacity:0}60%{transform:skewX(-10deg);opacity:1}80%{transform:skewX(2deg)}to{opacity:1;transform:translate3d(0, 0, 0)}} @keyframes zoomIn{0%{opacity:0;transform:scale(0.5)}100%{opacity:1;transform:scale(1)}} @keyframes zoomOut{0%{opacity:0;transform:scale(1.5)}100%{opacity:1;transform:scale(1)}}.C{fill:#263238}.D{fill:#ffc100}.E{opacity:.1}.F{fill:#ebebeb}.G{opacity:.2}.H{fill:#fff}.I{fill:#37474f}.J{fill:#dbdbdb}.K{fill:#455a64}.L{opacity:.4}]]></style><g id="B" class="B F" transform-origin="249.915px 190.03px"><path d="M92.64 317.14l-14.84.28-7.51.12h-7.55-.44v-.45-12.63-.46h.5l14.95.07 15 .16h.27v.27l-.13 6.38zm0 0l-.15-6.37-.13-6.26.28.27-15 .17-14.9.05.5-.5-.05 12.63-.45-.44 7.4.05 7.43.12z" transform-origin="77.66px 310.77px"/><path d="M76 333.07l-14.83.28-7.52.12H46.1h-.44v-.45l-.06-12.63v-.5h.5L61 320l14.95.17h.27v.27l-.13 6.38zm0 0l-.14-6.37-.13-6.26.27.27-14.95.17-14.95.06.5-.5-.05 12.63-.45-.44 7.4.05 7.44.12z" transform-origin="60.91px 326.68px"/><path d="M76 59.71L61.13 60l-7.52.11-7.55.06h-.44v-.45l-.06-12.63v-.5h.5l14.94.05 14.95.17h.27v.27l-.13 6.38zm0 0l-.14-6.37-.13-6.26.27.27-14.95.17-14.95.06.5-.5-.05 12.63-.45-.44h7.4l7.44.12z" transform-origin="60.89px 53.38px"/><path d="M453.94 59.71L439.1 60l-7.51.11-7.55.06h-.44v-.45-12.63-.5h.5l14.95.06 14.95.17h.27v.27l-.13 6.38zm0 0l-.14-6.37-.14-6.26.28.27-14.95.17-14.99.06.5-.5-.05 12.63-.45-.44h7.4l7.43.12z" transform-origin="438.935px 53.38px"/><path d="M437.26 75.64l-14.83.28-7.52.11-7.55.06h-.44v-.45L406.86 63v-.5h.5l14.95.06 14.95.17h.28V63l-.13 6.38zm0 0l-.14-6.37-.13-6.26.27.27-14.95.17-14.95.06.5-.5-.05 12.63-.45-.44h7.4l7.44.12z" transform-origin="422.2px 69.295px"/><path d="M360.69 223.44l-14.83.28-7.52.11h-7.54-.45v-.45l-.05-12.64v-.5h.51l14.94.07 14.95.16h.3v.27l-.13 6.38zm0 0l-.14-6.38-.13-6.26.27.28-14.95.16-14.94.06.49-.5-.05 12.64-.44-.45 7.39.06 7.44.11z" transform-origin="345.65px 217.035px"/><path d="M344 239.37l-14.83.28-7.51.11-7.55.05h-.45v-.45l-.05-12.64v-.5h.5l14.95.07 14.94.16h.28v.27l-.13 6.38zm0 0l-.14-6.38-.13-6.26.27.28-14.94.16-14.95.06.5-.5-.06 12.64-.44-.45 7.4.06 7.43.11z" transform-origin="328.945px 233.015px"/><path d="M327.4 223.44l-14.83.28-7.51.11h-7.55-.45v-.45L297 210.8v-.5h.51l14.94.07 14.95.16h.28v.27l-.13 6.38zm0 0l-.14-6.38-.13-6.26.27.28-14.95.16-14.94.06.5-.5-.01 12.64-.44-.45 7.4.06 7.43.11z" transform-origin="312.34px 217.065px"/><path d="M453.94 333.07l-14.84.28-7.51.12h-7.55-.44v-.45-12.63-.5h.5l14.9.11 14.95.17h.27v.27l-.13 6.38zm0 0l-.14-6.37-.14-6.26.28.27-14.95.17-14.95.06.5-.5-.05 12.63-.45-.44 7.4.05 7.43.12z" transform-origin="438.91px 326.68px"/><path d="M199.93 97.28l-14.84.28-7.51.11-7.55.06h-.44v-.45l-.05-12.63v-.5h.5l14.95.06 15 .17h.27v.27l-.13 6.37zm0 0l-.15-6.37-.13-6.26.28.27-15 .16-14.93.07.5-.5-.05 12.63-.45-.44h7.4l7.43.11z" transform-origin="184.9px 90.94px"/><path d="M423.23 181l5.88-9.49-2.9-1.8a2.67 2.67 0 0 1-1.24-2.5 15.44 15.44 0 0 0 .06-1.67 2.65 2.65 0 0 1 1.38-2.41l3-1.61-5.28-9.85-3 1.62a2.66 2.66 0 0 1-2.77-.18 16 16 0 0 0-1.42-.88 2.66 2.66 0 0 1-1.4-2.41l.11-3.42-11.17-.4-.1 3.43a2.67 2.67 0 0 1-1.56 2.31l-.73.37-.71.4a2.65 2.65 0 0 1-2.78 0l-2.93-1.81-5.88 9.49 2.91 1.81a2.66 2.66 0 0 1 1.23 2.5 13.1 13.1 0 0 0-.05 1.66 2.68 2.68 0 0 1-1.39 2.41l-3 1.61 5.28 9.85 3-1.62a2.66 2.66 0 0 1 2.77.18 16 16 0 0 0 1.42.88 2.65 2.65 0 0 1 1.4 2.4l-.11 3.43 11.17.35.1-3.43a2.65 2.65 0 0 1 1.55-2.3l.74-.38.72-.4a2.67 2.67 0 0 1 2.79 0zm-9.46-7.05a9.14 9.14 0 1 1 3.75-12.38 9.14 9.14 0 0 1-3.75 12.35z" transform-origin="409.45px 165.825px"/><path d="M101.53 288.51l5.89-9.49-2.91-1.8a2.66 2.66 0 0 1-1.23-2.5 15.45 15.45 0 0 0 0-1.67 2.66 2.66 0 0 1 1.39-2.41l3-1.61-5.28-9.85-3 1.62a2.68 2.68 0 0 1-2.78-.18 13.94 13.94 0 0 0-1.42-.88 2.68 2.68 0 0 1-1.4-2.41l.11-3.42-11.16-.35-.1 3.43a2.67 2.67 0 0 1-1.56 2.32l-.74.37-.71.4a2.63 2.63 0 0 1-2.77 0L74 258.29l-5.89 9.49 2.89 1.81a2.64 2.64 0 0 1 1.23 2.5c0 .55-.06 1.1 0 1.66a2.66 2.66 0 0 1-1.39 2.41l-3 1.61 5.28 9.85 3-1.62a2.68 2.68 0 0 1 2.78.18 13.71 13.71 0 0 0 1.41.87 2.68 2.68 0 0 1 1.4 2.41l-.1 3.43 11.16.34.11-3.42a2.66 2.66 0 0 1 1.55-2.31l.74-.37.71-.41a2.65 2.65 0 0 1 2.79 0zm-9.45-7.05a9.15 9.15 0 1 1 3.74-12.38 9.14 9.14 0 0 1-3.74 12.38z" transform-origin="87.755px 273.395px"/><path d="M215.87 106.74L212 100l-2.08 1.2a1.85 1.85 0 0 1-1.95-.07 11 11 0 0 0-1-.58 1.85 1.85 0 0 1-1-1.65v-2.4h-7.82v2.4a1.87 1.87 0 0 1-1 1.65c-.35.18-.69.37-1 .58a1.85 1.85 0 0 1-2 .07L192 100l-3.91 6.78 2.08 1.2a1.85 1.85 0 0 1 .91 1.72v.58.58a1.82 1.82 0 0 1-.9 1.71l-2.09 1.21 3.91 6.78 2.08-1.2a1.85 1.85 0 0 1 1.95.07 11 11 0 0 0 1 .58 1.87 1.87 0 0 1 1 1.65V124h7.82v-2.4a1.85 1.85 0 0 1 1-1.65 10.87 10.87 0 0 0 1-.58 1.85 1.85 0 0 1 1.95-.07l2.08 1.2 3.91-6.78-2.08-1.2a1.85 1.85 0 0 1-.91-1.72v-.58-.58a1.85 1.85 0 0 1 .91-1.72zm-7.48 3.5a6.41 6.41 0 1 1-6.41-6.41 6.41 6.41 0 0 1 6.41 6.41z" transform-origin="201.98px 110.25px"/></g><g id="C" class="B" transform-origin="73.9386px 328.861px"><path d="M88.84 303.84c-13.07 12.79-15.27 32.59-12.51 49.92.07.4.68.29.68-.08l-.11-11.76c.07-.17.13-.34.2-.52 3.41-2.48 6.55-5.28 8.49-9.12 2.18-4.29 3-9.14 4.71-13.62.16-.43-.3-.3-.6-.08-8 5.86-10.48 12.17-12.76 20.6a69.79 69.79 0 0 1 1.38-13.13c1.72-8 5.11-15.93 10.86-21.86.22-.19-.12-.58-.34-.35z" class="C" transform-origin="82.8071px 328.891px"/><path d="M91.29 305.33c2.25.08 3.66 3.67 5.41 4.72a1.68 1.68 0 0 0 2.48-.39c1.74-2.42-.64-5.41-2.88-7.09 1.6.66 2.93 1.82 4.65 2.15a1.64 1.64 0 0 0 2.11-1.26c.76-3.31-3.39-4.77-6.23-4.84 1.38-1 5.33-3.57 3.23-4.85s-6.76 2.44-8.27 3.67c-2.23 1.8-4.88 4.5-5 7.32-.11 3.29 2.77 1.24 4.5.57z" class="D" transform-origin="94.9692px 301.969px"/><g><path d="M91.29 305.33c2.25.08 3.66 3.67 5.41 4.72a1.68 1.68 0 0 0 2.48-.39c1.74-2.42-.64-5.41-2.88-7.09 1.6.66 2.93 1.82 4.65 2.15a1.64 1.64 0 0 0 2.11-1.26c.76-3.31-3.39-4.77-6.23-4.84 1.38-1 5.33-3.57 3.23-4.85s-6.76 2.44-8.27 3.67c-2.23 1.8-4.88 4.5-5 7.32-.11 3.29 2.77 1.24 4.5.57z" class="E" transform-origin="94.9692px 301.969px"/></g><path d="M90.64 305.89c2.88-1.31 8.4.57 8.87-.52.95-2.21-3.46-3.73-5.85-4 2.2-.59 6.4-1.54 6.27-3.65-.16-2.59-6.44-.36-9.63 2.08-4 3.07-4 6-3.32 6.63.91.79 3.19-.33 3.66-.54z" class="D" transform-origin="93.2869px 301.636px"/><path d="M59.07 302.57c13.55 12.29 16.49 32 14.4 49.42-.06.39-.67.31-.68-.06l-.34-11.75a11.54 11.54 0 0 1-.22-.52c-3.51-2.35-6.75-5-8.83-8.79-2.35-4.21-3.39-9-5.23-13.43-.17-.42.29-.32.6-.11 8.17 5.56 10.94 11.77 13.54 20.11a71.38 71.38 0 0 0-1.88-13.07c-2-7.93-5.72-15.72-11.69-21.44-.22-.22.1-.57.33-.36z" class="C" transform-origin="66.1059px 327.376px"/><path d="M56.68 304.16c-2.25.16-3.52 3.8-5.23 4.92a1.68 1.68 0 0 1-2.49-.3c-1.83-2.35.43-5.43 2.61-7.19-1.58.72-2.86 1.93-4.57 2.32a1.62 1.62 0 0 1-2.15-1.18c-.89-3.27 3.2-4.9 6-5.07-1.41-.91-5.46-3.36-3.41-4.72s6.85 2.18 8.41 3.35c2.29 1.71 5 4.31 5.25 7.12.28 3.29-2.67 1.37-4.42.75z" class="D" transform-origin="52.9222px 301.067px"/><g><path d="M56.68 304.16c-2.25.16-3.52 3.8-5.23 4.92a1.68 1.68 0 0 1-2.49-.3c-1.83-2.35.43-5.43 2.61-7.19-1.58.72-2.86 1.93-4.57 2.32a1.62 1.62 0 0 1-2.15-1.18c-.89-3.27 3.2-4.9 6-5.07-1.41-.91-5.46-3.36-3.41-4.72s6.85 2.18 8.41 3.35c2.29 1.71 5 4.31 5.25 7.12.28 3.29-2.67 1.37-4.42.75z" class="E" transform-origin="52.9222px 301.067px"/></g><path d="M57.35 304.69c-2.93-1.2-8.37.89-8.88-.18-1-2.18 3.31-3.86 5.68-4.25-2.21-.51-6.45-1.29-6.4-3.41.06-2.59 6.43-.61 9.7 1.71 4.13 2.92 4.21 5.88 3.57 6.5-.87.85-3.19-.18-3.67-.37z" class="D" transform-origin="54.5325px 300.509px"/><path d="M72.93 335a132.49 132.49 0 0 0 4.2 19.42.49.49 0 0 0 1-.19c-.89-6-2.51-11.86-3.4-17.85a89.21 89.21 0 0 1-1-18.32c.57-10.09 3.31-20.83 9.89-28.72.14-.19-.16-.45-.31-.28C70 304.46 72.13 323.3 72.15 325c-1.87-6.36-3.79-13.65-10.85-20.13-.31-.28-.54-.15-.49.33 1.26 11.8 4.54 18 11.38 24.27a98.14 98.14 0 0 0 .74 5.53z" class="C" transform-origin="72.2297px 321.919px"/><path d="M83.65 291.14c2.37-1.06 5.64 2 8 2.17a1.94 1.94 0 0 0 2.35-1.65c.59-3.39-3.39-5.3-6.56-5.9 2-.13 4 .41 5.92-.12a1.87 1.87 0 0 0 1.54-2.37c-.9-3.81-5.9-3.27-8.9-1.89.94-1.69 3.73-6.38.91-6.65s-5.79 5.93-6.74 8c-1.4 3-2.79 7.12-1.48 10.09 1.54 3.45 3.51-.1 4.96-1.68z" class="D" transform-origin="86.5693px 284.5px"/><g><path d="M83.65 291.14c2.37-1.06 5.64 2 8 2.17a1.94 1.94 0 0 0 2.35-1.65c.59-3.39-3.39-5.3-6.56-5.9 2-.13 4 .41 5.92-.12a1.87 1.87 0 0 0 1.54-2.37c-.9-3.81-5.9-3.27-8.9-1.89.94-1.69 3.73-6.38.91-6.65s-5.79 5.93-6.74 8c-1.4 3-2.79 7.12-1.48 10.09 1.54 3.45 3.51-.1 4.96-1.68z" class="E" transform-origin="86.5693px 284.5px"/></g><path d="M83.25 292c2.33-2.8 9-3.63 8.94-5-.12-2.77-5.47-2.13-8.09-1.23 2-1.73 5.86-4.82 4.67-6.95-1.47-2.6-6.88 2.87-9 7-2.61 5.21-1.09 8.28-.1 8.56 1.4.43 3.2-1.88 3.58-2.38z" class="D" transform-origin="85.2558px 286.289px"/><path d="M64.25,338.58,58.44,383H93.81c-.72-3.93-7.31-44.46-7.31-44.46Z" class="D" transform-origin="76.125px 360.77px"/></g><g id="D" class="B C" transform-origin="250px 383.14px"><path d="M43.37 383.14l51.66-.24 51.66-.09 103.31-.17 103.31.17 51.66.09 51.66.24-51.66.25-51.66.09-103.31.16-103.31-.16-51.66-.09-51.66-.25z" transform-origin="250px 383.14px"/></g><g id="E" class="B F" transform-origin="250px 449.04px"><ellipse cx="250" cy="449.04" rx="149.06" ry="21.08" transform-origin="250px 449.04px"/></g><g id="F" class="B C" transform-origin="250.025px 135.48px"><path d="M157.57 227.67l-6.21-24.43-49 12.47-6.48-25.5L135 100.89 154.47 96l18.9 74.36 15.69-4 6.53 25.64-15.69 4 6.2 24.43zM124 182.87l24.26-6.17-8-31.56z" transform-origin="145.735px 161.835px"/><path d="M298,146.12a65.58,65.58,0,0,1-3.68,22.35,55.48,55.48,0,0,1-10.12,17.67A45.82,45.82,0,0,1,269,197.73a43.91,43.91,0,0,1-19,4.14,44.54,44.54,0,0,1-19.14-4.14,45.75,45.75,0,0,1-15.27-11.59,54.17,54.17,0,0,1-10-17.67A66.82,66.82,0,0,1,202,146.12a66.84,66.84,0,0,1,3.59-22.36,54.22,54.22,0,0,1,10-17.66,46.68,46.68,0,0,1,15.27-11.68A43.74,43.74,0,0,1,250,90.19a43.12,43.12,0,0,1,19,4.23,46.76,46.76,0,0,1,15.18,11.68,55.54,55.54,0,0,1,10.12,17.66A65.6,65.6,0,0,1,298,146.12Zm-29.62,0q0-12.88-5.15-20.88t-13.25-8q-8.46,0-13.52,8t-5.06,20.88q0,12.88,5.06,20.79T250,174.82q8.1,0,13.25-7.91T268.4,146.12Z" transform-origin="250px 146.03px"/><path d="M350.84,223l4-24.88L304.93,190l4.21-26,71.5-66.33,19.8,3.21-12.27,75.74,16,2.59-4.23,26.15-16-2.59-4,24.88Zm-13-54.47,24.7,4,5.21-32.15Z" transform-origin="354.55px 162.66px"/><path d="M208.68 72.46a13 13 0 0 1-5.68-1.23 13.94 13.94 0 0 1-4.4-3.27 15.19 15.19 0 0 1-3.86-10 14.37 14.37 0 0 1 1.07-5.5 15.16 15.16 0 0 1 2.95-4.64 13.94 13.94 0 0 1 4.46-3.21 13.18 13.18 0 0 1 5.62-1.19 12.56 12.56 0 0 1 5.67 1.27 14.22 14.22 0 0 1 4.34 3.31 15.11 15.11 0 0 1 2.83 4.69 14.67 14.67 0 0 1 0 10.8 14.91 14.91 0 0 1-2.91 4.61 13.89 13.89 0 0 1-4.44 3.19 13.31 13.31 0 0 1-5.65 1.17zm-8.33-14.54a11.38 11.38 0 0 0 .57 3.59 9.53 9.53 0 0 0 1.64 3.07 7.91 7.91 0 0 0 2.62 2.14 7.57 7.57 0 0 0 3.54.81 7.41 7.41 0 0 0 3.57-.83 8.1 8.1 0 0 0 2.63-2.2 9.68 9.68 0 0 0 1.61-3.09 11.31 11.31 0 0 0 0-7.09 10 10 0 0 0-1.65-3.07 8 8 0 0 0-2.63-2.12 8.16 8.16 0 0 0-7.09 0 8 8 0 0 0-2.63 2.18 9.85 9.85 0 0 0-1.59 3.07 11.63 11.63 0 0 0-.59 3.54z" transform-origin="208.725px 57.9401px"/><path d="M236.23 72.66a11.48 11.48 0 0 1-4.65-.89 10.34 10.34 0 0 1-3.49-2.4 10.68 10.68 0 0 1-2.21-3.49 11.9 11.9 0 0 1 0-8.37 10.68 10.68 0 0 1 2.21-3.51 10.34 10.34 0 0 1 3.49-2.4 11.48 11.48 0 0 1 4.65-.89 11.33 11.33 0 0 1 4.62.89 10.36 10.36 0 0 1 3.47 2.4 10.68 10.68 0 0 1 2.21 3.49 11.9 11.9 0 0 1 0 8.37 10.94 10.94 0 0 1-2.18 3.49 10.3 10.3 0 0 1-3.48 2.4 11.46 11.46 0 0 1-4.64.91zm-5.54-10.94a7.2 7.2 0 0 0 .43 2.56 6.2 6.2 0 0 0 1.17 2 5.1 5.1 0 0 0 1.71 1.31 5.31 5.31 0 0 0 4.37 0 5.1 5.1 0 0 0 1.75-1.31 6.4 6.4 0 0 0 1.18-2 7.61 7.61 0 0 0 .42-2.59 7.48 7.48 0 0 0-.42-2.54 6.4 6.4 0 0 0-1.18-2 5.1 5.1 0 0 0-1.75-1.31 5.17 5.17 0 0 0-2.18-.47 4.92 4.92 0 0 0-2.19.49 5.42 5.42 0 0 0-1.75 1.33 6.2 6.2 0 0 0-1.17 2 7.26 7.26 0 0 0-.39 2.53z" transform-origin="236.205px 61.685px"/><path d="M263.61 72.66a8.34 8.34 0 0 1-4.36-1.11 7.86 7.86 0 0 1-2.91-3v12.31h-5.41V51.09h4.73v3.64a8.58 8.58 0 0 1 3-2.93 8.42 8.42 0 0 1 4.34-1.07 9.1 9.1 0 0 1 4 .87 9.93 9.93 0 0 1 3.13 2.34 11 11 0 0 1 2.06 3.47 11.94 11.94 0 0 1 .74 4.22 13.59 13.59 0 0 1-.68 4.33 11.11 11.11 0 0 1-1.92 3.51 8.82 8.82 0 0 1-2.93 2.34 8.14 8.14 0 0 1-3.79.85zm-1.81-4.6a4.89 4.89 0 0 0 2.24-.53 5.45 5.45 0 0 0 1.75-1.41 6.55 6.55 0 0 0 1.14-2.06 7.37 7.37 0 0 0 .4-2.43 7 7 0 0 0-.44-2.48 6.19 6.19 0 0 0-1.24-2 5.65 5.65 0 0 0-1.86-1.33 5.42 5.42 0 0 0-2.32-.49 4.94 4.94 0 0 0-1.57.27 5.52 5.52 0 0 0-1.5.74 6.61 6.61 0 0 0-1.23 1.13 4.85 4.85 0 0 0-.83 1.42v5a7.34 7.34 0 0 0 2.22 3 5.13 5.13 0 0 0 3.24 1.17z" transform-origin="261.93px 65.7935px"/><path d="M284.54 72.66a16.21 16.21 0 0 1-5.21-.85 12.69 12.69 0 0 1-4.33-2.42l2-3.39a17.91 17.91 0 0 0 3.78 2.08 10.19 10.19 0 0 0 3.66.7 4.66 4.66 0 0 0 2.54-.6 2 2 0 0 0 .93-1.74 1.73 1.73 0 0 0-1.09-1.65 23.75 23.75 0 0 0-3.55-1.22l-3.52-1.09a8.78 8.78 0 0 1-2.34-1.19 4 4 0 0 1-1.29-1.53 4.91 4.91 0 0 1-.41-2.08 6.54 6.54 0 0 1 .63-2.91 6.26 6.26 0 0 1 1.76-2.2 8.13 8.13 0 0 1 2.64-1.4 10.86 10.86 0 0 1 3.29-.48 14.43 14.43 0 0 1 4.47.68 10.79 10.79 0 0 1 3.81 2.23l-2.18 3.27a12.59 12.59 0 0 0-3.13-1.78 8.49 8.49 0 0 0-3-.57 4.33 4.33 0 0 0-2.3.57 2 2 0 0 0-.93 1.82 1.85 1.85 0 0 0 .22.93 1.94 1.94 0 0 0 .71.64 7.15 7.15 0 0 0 1.27.55l2 .54 3.74 1.14a9.69 9.69 0 0 1 2.47 1.29 4.59 4.59 0 0 1 1.46 1.67 5.2 5.2 0 0 1 .46 2.33 5.91 5.91 0 0 1-2.3 4.91 10 10 0 0 1-6.26 1.75z" transform-origin="284.052px 61.6833px"/><path d="M297.67,61.47V43.29h5.41V61.47Zm0,10.79v-6.1h5.41v6.1Z" transform-origin="300.375px 57.775px"/></g><g id="G" class="B" transform-origin="271.035px 326.685px"><path class="I" d="M235.09 313.85h35.51v2.91h-35.51z" transform-origin="252.845px 315.305px"/><path class="I" d="M235.09 317.63h35.51v2.91h-35.51z" transform-origin="252.845px 319.085px"/><path class="I" d="M235.09 321.42h35.51v2.91h-35.51z" transform-origin="252.845px 322.875px"/><path class="I" d="M235.09 325.21h35.51v2.91h-35.51z" transform-origin="252.845px 326.665px"/><path class="I" d="M235.09 329h35.51v2.91h-35.51z" transform-origin="252.845px 330.455px"/><path class="I" d="M218.46 404.59h67.52v2.91h-67.52z" transform-origin="252.22px 406.045px"/><path class="I" d="M218.46 408.38h67.52v2.91h-67.52z" transform-origin="252.22px 409.835px"/><path class="I" d="M218.46 412.17h67.52v2.91h-67.52z" transform-origin="252.22px 413.625px"/><path class="I" d="M218.46 415.96h67.52v2.91h-67.52z" transform-origin="252.22px 417.415px"/><path class="I" d="M218.46 419.75h67.52v2.91h-67.52z" transform-origin="252.22px 421.205px"/><path d="M188.83,289.8c0-.39-14.77-5.36-14.77-5.36l.87-50.88,19.64-4.22Z" class="D" transform-origin="184.315px 259.57px"/><g><path d="M188.83,289.8c0-.39-14.77-5.36-14.77-5.36l.87-50.88,19.64-4.22Z" class="G" transform-origin="184.315px 259.57px"/></g><path d="M324.49,309.77c.1-.38,15.72.06,15.72.06l16.69-48.08-17-10.71Z" class="D" transform-origin="340.695px 280.435px"/><g><path d="M324.49,309.77c.1-.38,15.72.06,15.72.06l16.69-48.08-17-10.71Z" class="G" transform-origin="340.695px 280.435px"/></g><path d="M186 308.54s5.49-82.3 10.31-109.38c0 0 99.42 7.52 153.09 28l-29.1 100.89c-.02.04-70.03-13.75-134.3-19.51z" class="D" transform-origin="267.7px 263.605px"/><g><path d="M274.72 210.15q-2.42 14.86-4.94 29.72l-5.13 29.67-.27-.41 33.31 7.87 16.64 4 16.61 4.11-16.7-3.74-16.69-3.81-33.34-7.79-.34-.08.06-.34 5.31-29.65q2.67-14.7 5.48-29.55z" class="E" transform-origin="297.405px 247.63px"/></g><g><path d="M271.07 215.8a2 2 0 0 1-1.75 1.94 2 2 0 0 1-2.12-1.94 2 2 0 0 1 .66-1.46 1.94 1.94 0 0 1 3.21 1.46zm0 0a1.6 1.6 0 0 0-.55-1.19 1.57 1.57 0 1 0 0 2.39 1.64 1.64 0 0 0 .55-1.2z" class="E" transform-origin="269.135px 215.806px"/></g><g><path d="M269.32 228.05a1.93 1.93 0 0 1-1.74 1.93 1.92 1.92 0 0 1-2.12-1.93 1.94 1.94 0 0 1 .65-1.46 2 2 0 0 1 1.47-.48 2 2 0 0 1 1.74 1.94zm0 0a1.6 1.6 0 0 0-.55-1.2 1.57 1.57 0 1 0-1.19 2.76 1.56 1.56 0 0 0 1.74-1.56z" class="E" transform-origin="267.39px 228.047px"/></g><g><path d="M267.17 241a1.93 1.93 0 0 1-1.74 1.93 2 2 0 0 1-1.47-3.4 2 2 0 0 1 1.47-.47 1.94 1.94 0 0 1 1.74 1.94zm0 0a1.6 1.6 0 0 0-.55-1.2 1.57 1.57 0 1 0-1.19 2.76 1.62 1.62 0 0 0 1.19-.37 1.56 1.56 0 0 0 .55-1.19z" class="E" transform-origin="265.279px 240.991px"/></g><g><path d="M265 253.93a1.94 1.94 0 0 1-1.74 1.93 1.94 1.94 0 1 1 0-3.87 1.94 1.94 0 0 1 1.74 1.94zm0 0a1.6 1.6 0 0 0-.55-1.2 1.57 1.57 0 1 0-1.19 2.76 1.62 1.62 0 0 0 1.19-.37 1.6 1.6 0 0 0 .55-1.19z" class="E" transform-origin="263.09px 253.925px"/></g><g><path d="M272.35 274.56a1.94 1.94 0 1 1-1.75-1.93 1.94 1.94 0 0 1 1.75 1.93zm0 0a1.64 1.64 0 0 0-.55-1.2 1.62 1.62 0 0 0-1.2-.36 1.57 1.57 0 1 0 1.2 2.76 1.64 1.64 0 0 0 .55-1.2z" class="E" transform-origin="270.41px 274.561px"/></g><g><path d="M284.56 277.54a1.94 1.94 0 1 1-3.21-1.46 2 2 0 0 1 1.46-.47 1.93 1.93 0 0 1 1.75 1.93zm0 0a1.6 1.6 0 0 0-.55-1.2 1.62 1.62 0 0 0-1.2-.36 1.57 1.57 0 1 0 1.2 2.76 1.6 1.6 0 0 0 .55-1.2z" class="E" transform-origin="282.624px 277.538px"/></g><g><path d="M296.77 280.52a1.93 1.93 0 0 1-3.2 1.46 2 2 0 0 1-.66-1.46 1.94 1.94 0 0 1 .65-1.46 2 2 0 0 1 1.47-.47 1.93 1.93 0 0 1 1.74 1.93zm0 0a1.59 1.59 0 0 0-.54-1.2A1.64 1.64 0 0 0 295 279a1.57 1.57 0 0 0 0 3.12 1.63 1.63 0 0 0 1.2-.36 1.59 1.59 0 0 0 .57-1.24z" class="E" transform-origin="294.84px 280.52px"/></g><g><path d="M309 283.5a1.94 1.94 0 0 1-3.21 1.46 2 2 0 0 1-.66-1.46 2 2 0 0 1 2.12-1.94 2 2 0 0 1 1.75 1.94zm0 0a1.64 1.64 0 0 0-.55-1.2 1.57 1.57 0 1 0-1.2 2.76 1.62 1.62 0 0 0 1.2-.36 1.64 1.64 0 0 0 .55-1.2z" class="E" transform-origin="307.065px 283.494px"/></g><g><path d="M321.2 286.61a2 2 0 0 1-1.89 1.79 2 2 0 0 1-1.43-.58 1.95 1.95 0 0 1 .23-2.91 1.92 1.92 0 0 1 1.49-.36 2 2 0 0 1 1.6 2.06zm0 0a1.6 1.6 0 0 0-.46-1.23 1.57 1.57 0 1 0-.18 2.38 1.6 1.6 0 0 0 .64-1.15z" class="E" transform-origin="319.269px 286.461px"/></g><g><path d="M262.87 266.86a1.94 1.94 0 0 1-1.74 1.94 2.05 2.05 0 0 1-1.47-.47 1.94 1.94 0 1 1 3.21-1.47zm0 0a1.6 1.6 0 0 0-.55-1.19 1.57 1.57 0 1 0 0 2.39 1.6 1.6 0 0 0 .55-1.2z" class="E" transform-origin="260.927px 266.863px"/></g><g><circle cx="223.43" cy="267.31" r="28.23" class="G" transform-origin="223.43px 267.31px" transform="rotate(318.04)"/></g><g class="C"><circle cx="223.43" cy="267.31" r="22.64" transform-origin="223.43px 267.31px" transform="rotate(290.73)"/></g><g class="D"><path d="M216.31 258.54h5.36v5.36h-5.36z" transform-origin="218.99px 261.22px" transform="rotate(9.2)"/></g><g class="D"><path d="M211.87 252.39h5.36v5.36h-5.36z" transform-origin="214.55px 255.07px" transform="rotate(9.2)"/></g><g class="D"><path d="M233.04 255.82h5.36v5.36h-5.36z" transform-origin="235.72px 258.5px" transform="rotate(9.2)"/></g><g class="D"><path d="M208.46 273.44h5.36v5.36h-5.36z" transform-origin="211.14px 276.12px" transform="rotate(9.2)"/></g><g class="D"><path d="M229.63 276.87h5.36v5.36h-5.36z" transform-origin="232.31px 279.55px" transform="rotate(9.2)"/></g><g class="D"><path d="M214.61 269h5.36v5.36h-5.36z" transform-origin="217.29px 271.68px" transform="rotate(9.2)"/></g><g class="D"><path d="M220.75 264.63h5.36v5.36h-5.36z" transform-origin="223.43px 267.31px" transform="rotate(9.2)"/></g><g class="D"><path d="M226.89 260.25h5.36v5.36h-5.36z" transform-origin="229.57px 262.93px" transform="rotate(9.2)"/></g><g class="D"><path d="M225.2 270.72h5.36v5.36h-5.36z" transform-origin="227.88px 273.4px" transform="rotate(9.2)"/></g><g class="D"><circle cx="299.19" cy="279.14" r="28.23" transform-origin="299.19px 279.14px" transform="rotate(309.33)"/></g><g><circle cx="299.19" cy="279.14" r="28.23" class="G" transform-origin="299.19px 279.14px" transform="rotate(309.33)"/></g><g><path d="M326.66 285.67l-.44 1.63-55-11.74.53-2.95a28.24 28.24 0 1 1 54.94 13.06z" class="G" transform-origin="299.398px 268.854px"/></g><g class="C"><circle cx="299.19" cy="279.14" r="22.64" transform-origin="299.19px 279.14px" transform="rotate(337.32)"/></g><g class="D"><path d="M296.51 265.8h5.36v26.69h-5.36z" transform-origin="299.19px 279.145px" transform="rotate(13.37)"/></g><path d="M328.3,285.14,270.5,271.4a29.71,29.71,0,0,1,57.8,13.74Z" class="D" transform-origin="299.744px 267.106px"/><g><path d="M328.3,285.14,270.5,271.4a29.71,29.71,0,0,1,57.8,13.74Z" class="G" transform-origin="299.744px 267.106px"/></g><g><path d="M250.07 295.92a10.51 10.51 0 0 1 2.61-6.35 7.67 7.67 0 0 1 3.07-2.07 8.66 8.66 0 0 1 3.7-.41 6.9 6.9 0 0 1 5.8 4.33 11.49 11.49 0 0 1 .59 6.85 18 18 0 0 0-2-6.14 5.88 5.88 0 0 0-4.61-3.06 7.06 7.06 0 0 0-5.49 1.61 14.78 14.78 0 0 0-3.67 5.24z" class="E" transform-origin="258.091px 292.656px"/></g><path d="M193.72 238.34l.86-9 1-9 1.12-9 1.22-9 .1-.8.81.05q9.78.61 19.51 1.61l9.72 1.12 9.68 1.48-19.52-1.2-19.49-1.27.91-.74-1.32 9-1.42 8.95-1.52 8.93-1.66 8.87z" class="H" transform-origin="215.73px 219.94px"/><path d="M198.41 261.16a24.55 24.55 0 0 1 4.52-10.09c.55-.76 1.18-1.46 1.78-2.18s1.33-1.33 2-2 1.47-1.18 2.22-1.75 1.58-1 2.39-1.52 1.71-.83 2.57-1.22l2.68-.93 2.78-.57c.93-.14 1.87-.17 2.81-.24a27.3 27.3 0 0 1 10.84 2.1 38.59 38.59 0 0 0-10.78-.72 25.22 25.22 0 0 0-10.07 3.13 29.14 29.14 0 0 0-8.18 6.75 33.21 33.21 0 0 0-5.56 9.24z" class="H" transform-origin="215.705px 250.909px"/><path d="M276.29 268.78a24.78 24.78 0 0 1 5.86-9.37c.65-.67 1.37-1.28 2.07-1.91s1.5-1.13 2.26-1.69 1.61-1 2.44-1.43 1.71-.8 2.58-1.17 1.8-.59 2.7-.86l2.79-.55 2.83-.18c.94 0 1.88.1 2.82.16a27.19 27.19 0 0 1 10.47 3.56 38.91 38.91 0 0 0-10.58-2.2 25.25 25.25 0 0 0-10.4 1.71 29.45 29.45 0 0 0-9 5.55 33.57 33.57 0 0 0-6.84 8.38z" class="H" transform-origin="294.7px 260.2px"/><path d="M189.14 359.25c-7.23 0-23.06-1.62-33.25-14.72-13-16.76-8.32-48.92-8.12-50.28l5.66.86c0 .31-4.54 31.09 7 45.9 11.26 14.48 31.69 12.41 31.89 12.38l.65 5.69c-.25.02-1.65.17-3.83.17z" class="D" transform-origin="169.879px 326.75px"/><g class="H"><path d="M189.14 359.25c-7.23 0-23.06-1.62-33.25-14.72-13-16.76-8.32-48.92-8.12-50.28l5.66.86c0 .31-4.54 31.09 7 45.9 11.26 14.48 31.69 12.41 31.89 12.38l.65 5.69c-.25.02-1.65.17-3.83.17z" class="L" transform-origin="169.879px 326.75px"/></g><path d="M155.1,299a19,19,0,0,1-3.16-.25c-9.55-1.55-13.77-7.26-15.64-11.78S134,277,135,270.68l12.1,2c-.63,3.89-.44,7.32.52,9.65.69,1.66,2,3.66,6.26,4.35,1.94.31,4,.15,6.23-3.16a22.84,22.84,0,0,0,3.06-8.23l12.11,2a35.47,35.47,0,0,1-5,13C166.56,296,161.22,299,155.1,299Z" class="D" transform-origin="154.878px 284.84px"/><path d="M201.1,375.63c0-.26-10.26-1.89-10.26-1.89l-5-33.41,12.39-4.9Z" class="D" transform-origin="193.47px 355.53px"/><g><path d="M201.1,375.63c0-.26-10.26-1.89-10.26-1.89l-5-33.41,12.39-4.9Z" class="G" transform-origin="193.47px 355.53px"/></g><path d="M302.3 375.69c0-.26 10.29-1.66 10.29-1.66l5.71-33.29-12.3-5.17z" class="D" transform-origin="310.3px 355.63px"/><g><path d="M302.3 375.69c0-.26 10.29-1.66 10.29-1.66l5.71-33.29-12.3-5.17z" class="G" transform-origin="310.3px 355.63px"/></g><path d="M196.84 328s82.79-3.53 110.75 1.13l-8.65 81.66s-82.36-.23-95.23 0c0-.05-6.97-53.32-6.87-82.79z" class="D" transform-origin="252.214px 368.755px"/><g><path d="M222 349.91s45.19-1.79 60.46.56l-4.73 41.18s-45-.11-52 0c.01 0-3.08-27.65-3.73-41.74z" class="G" transform-origin="252.23px 370.454px"/></g><g><path d="M228.16 391.63h-2.43S222.65 364 222 349.9l2.83-.1z" class="G" transform-origin="225.08px 370.715px"/></g><path d="M241.49 359.87a4.81 4.81 0 1 0 3.14 6 4.81 4.81 0 0 0-3.14-6zm2.58 5.86a4.22 4.22 0 1 1-2.75-5.3 4.22 4.22 0 0 1 2.75 5.3zm-2.58-5.86a4.81 4.81 0 1 0 3.14 6 4.81 4.81 0 0 0-3.14-6zm2.58 5.86a4.22 4.22 0 1 1-2.75-5.3 4.22 4.22 0 0 1 2.75 5.3zm-2.58-5.86a4.81 4.81 0 1 0 3.14 6 4.81 4.81 0 0 0-3.14-6zm2.58 5.86a4.22 4.22 0 1 1-2.75-5.3 4.22 4.22 0 0 1 2.75 5.3zm-1-10.94a10.13 10.13 0 1 0 6.61 12.71 10.14 10.14 0 0 0-6.58-12.71zm2.25 11.34a5.56 5.56 0 1 1-3.63-7 5.57 5.57 0 0 1 3.66 7zm-.72-.23a4.81 4.81 0 1 0-6 3.14 4.8 4.8 0 0 0 6.03-3.14zm-.56-.17a4.22 4.22 0 1 1-2.75-5.3 4.22 4.22 0 0 1 2.78 5.3zm-2.58-5.86a4.81 4.81 0 1 0 .03 0zm2.58 5.86a4.22 4.22 0 1 1-2.75-5.3 4.22 4.22 0 0 1 2.78 5.3zm-2.58-5.86a4.81 4.81 0 1 0 .03 0zm2.58 5.86a4.22 4.22 0 1 1-2.75-5.3 4.22 4.22 0 0 1 2.78 5.3z" class="D" transform-origin="240.02px 364.45px"/><path class="D" d="M238.99 374.31l-3.72-1.18-.62 2.7 3.3 1.04 1.04-2.56z" transform-origin="236.82px 375px"/><path class="D" d="M232.31 370.82l-1.8-3.45-2.35 1.46 1.6 3.08 2.55-1.09z" transform-origin="230.235px 369.64px"/><path class="D" d="M230.05 363.64l1.17-3.71-2.69-.63-1.05 3.31 2.57 1.03z" transform-origin="229.35px 361.47px"/><path class="D" d="M233.53 356.96l3.46-1.79-1.47-2.35-3.07 1.6 1.08 2.54z" transform-origin="234.72px 354.89px"/><path class="D" d="M240.71 354.7l3.72 1.18.62-2.7-3.3-1.04-1.04 2.56z" transform-origin="242.88px 354.01px"/><path class="D" d="M247.39 358.18l1.8 3.46 2.35-1.46-1.6-3.08-2.55 1.08z" transform-origin="249.465px 359.37px"/><path class="D" d="M249.65 365.37l-1.17 3.71 2.7.63 1.04-3.31-2.57-1.03z" transform-origin="250.35px 367.54px"/><path class="D" d="M246.17 372.04l-3.45 1.8 1.46 2.35 3.07-1.6-1.08-2.55z" transform-origin="244.985px 374.115px"/><path d="M257.84 374a3.24 3.24 0 1 0 .94 4.48 3.24 3.24 0 0 0-.94-4.48zm.61 4.26a2.84 2.84 0 1 1-.83-3.93 2.84 2.84 0 0 1 .83 3.94zm-.61-4.26a3.24 3.24 0 1 0 .94 4.48 3.24 3.24 0 0 0-.94-4.48zm.61 4.26a2.84 2.84 0 1 1-.83-3.93 2.84 2.84 0 0 1 .83 3.94zm-.61-4.26a3.24 3.24 0 1 0 .94 4.48 3.24 3.24 0 0 0-.94-4.48zm.61 4.26a2.84 2.84 0 1 1-.83-3.93 2.84 2.84 0 0 1 .83 3.94zm1.34-7.26a6.82 6.82 0 1 0 2 9.44 6.82 6.82 0 0 0-2-9.44zm-.59 7.75a3.74 3.74 0 1 1-1.09-5.17 3.74 3.74 0 0 1 1.09 5.18zm-.42-.27a3.23 3.23 0 1 0-4.48.95 3.25 3.25 0 0 0 4.48-.94zm-.33-.22a2.84 2.84 0 1 1-.83-3.93 2.84 2.84 0 0 1 .83 3.94zm-.61-4.26a3.24 3.24 0 1 0 .94 4.48 3.24 3.24 0 0 0-.94-4.48zm.61 4.26a2.84 2.84 0 1 1-.83-3.93 2.84 2.84 0 0 1 .83 3.94zm-.61-4.26a3.24 3.24 0 1 0 .94 4.48 3.24 3.24 0 0 0-.94-4.48zm.61 4.26a2.84 2.84 0 1 1-.83-3.93 2.84 2.84 0 0 1 .83 3.94z" class="J" transform-origin="256.074px 376.719px"/><path class="J" d="M253.6 382.92l-2.2-1.43-.89 1.63 1.96 1.27 1.13-1.47z" transform-origin="252.055px 382.94px"/><path class="J" d="M249.9 379.45l-.54-2.56-1.79.52.48 2.29 1.85-.25z" transform-origin="248.735px 378.295px"/><path class="J" d="M249.73 374.39l1.43-2.2-1.63-.89-1.28 1.95 1.48 1.14z" transform-origin="249.705px 372.845px"/><path class="J" d="M253.2 370.69l2.56-.55-.52-1.78-2.29.48.25 1.85z" transform-origin="254.355px 369.525px"/><path class="J" d="M258.26 370.52l2.2 1.43.89-1.64-1.95-1.27-1.14 1.48z" transform-origin="259.805px 370.495px"/><path class="J" d="M261.96 373.98l.55 2.57 1.78-.53-.48-2.28-1.85.24z" transform-origin="263.125px 375.145px"/><path class="J" d="M262.13 379.05l-1.43 2.2 1.63.89 1.28-1.96-1.48-1.13z" transform-origin="262.155px 380.595px"/><path class="J" d="M258.67 382.75l-2.57.54.53 1.79 2.28-.48-.24-1.85z" transform-origin="257.505px 383.915px"/><path class="D" d="M305.59 401.41l3.19.6 9.1-61.63-3.63-.67-8.66 61.7z" transform-origin="311.735px 370.86px"/><path d="M277.72 391.65l4.73-41.18 31.8-10.76-8.66 61.7z" class="D" transform-origin="295.985px 370.563px"/><g class="H"><path d="M277.72 391.65l4.73-41.18 31.8-10.76-8.66 61.7z" class="L" transform-origin="295.985px 370.563px"/></g><path d="M200.64 352.14c-.52-3.41-.8-6.85-1-10.29-.1-1.72-.14-3.45-.18-5.17s-.06-3.45 0-5.18v-.45h.44l19-1 19-.8-18.92 1.52-18.94 1.27.46-.47v5.15l.06 5.15c0 1.72 0 3.44.09 5.15z" class="H" transform-origin="218.661px 340.695px"/><path d="M286.88 351.08q3-1.41 6-2.61 3-1.2 6.12-2.32l6.24-2a57.54 57.54 0 0 1 6.39-1.49l.53-.09-.09.51-1.64 8 .9-8.1.44.43-6.26 1.7-6.21 1.94z" class="H" transform-origin="299.52px 346.825px"/><g><path class="E" d="M214.4 328.12l.54 10.3.46 10.3.79 20.61.62 20.61.25 10.31.17 10.32-.54-10.3-.45-10.31-.8-20.6-.62-20.62-.25-10.31-.17-10.31z" transform-origin="215.815px 369.345px"/></g><g><path d="M211.45 334.33a1.93 1.93 0 0 1-2.85 2.07 2 2 0 0 1-.94-1.31 2 2 0 0 1 1.7-2.31 1.94 1.94 0 0 1 2.09 1.55zm0 0a1.56 1.56 0 1 0-.3 1.28 1.56 1.56 0 0 0 .3-1.28z" class="E" transform-origin="209.559px 334.714px"/></g><g><path d="M212.16 346.68a2 2 0 0 1-1.33 2.24 1.93 1.93 0 0 1-2.46-1.48 2 2 0 0 1 1.7-2.31 1.94 1.94 0 0 1 2.09 1.55zm0 0a1.54 1.54 0 0 0-2-1.18 1.57 1.57 0 1 0 2 1.18z" class="E" transform-origin="210.264px 347.063px"/></g><g><path d="M212.61 359.79a2 2 0 0 1-1.33 2.24 2 2 0 0 1-2.46-1.48 2 2 0 0 1 .36-1.56 1.93 1.93 0 0 1 3.43.8zm0 0a1.54 1.54 0 0 0-2-1.18 1.57 1.57 0 1 0 2 1.18z" class="E" transform-origin="210.714px 360.169px"/></g><g><path d="M213.06 372.9a2 2 0 0 1-1.33 2.24 2 2 0 0 1-2.46-1.48 2 2 0 0 1 .36-1.56 1.93 1.93 0 0 1 3.43.8zm0 0a1.6 1.6 0 0 0-.77-1.07 1.66 1.66 0 0 0-1.25-.12 1.57 1.57 0 0 0 .62 3.06 1.61 1.61 0 0 0 1.1-.59 1.58 1.58 0 0 0 .3-1.28z" class="E" transform-origin="211.163px 373.273px"/></g><g><path d="M213.51 386a1.93 1.93 0 0 1-2.85 2.07 2 2 0 0 1-.94-1.3 2 2 0 0 1 1.7-2.32 2 2 0 0 1 2.09 1.55zm0 0a1.56 1.56 0 0 0-2-1.18 1.57 1.57 0 0 0 .62 3.06 1.56 1.56 0 0 0 1.4-1.88z" class="E" transform-origin="211.624px 386.386px"/></g><g><path d="M214 399.11a1.93 1.93 0 1 1-3.79.77 1.94 1.94 0 0 1 1.7-2.32 2 2 0 0 1 2.09 1.55zm0 0a1.58 1.58 0 0 0-.77-1.06 1.62 1.62 0 0 0-1.25-.12 1.57 1.57 0 0 0 .62 3.06 1.56 1.56 0 0 0 1.4-1.88z" class="E" transform-origin="212.105px 399.492px"/></g><g class="D"><path d="M170.93 426.13h48.98v5.72h-48.98z" transform-origin="195.42px 428.99px" transform="rotate(343.14)"/></g><g class="H"><path class="L" d="M170.93 426.13h48.98v5.72h-48.98z" transform-origin="195.42px 428.99px" transform="rotate(343.14)"/></g><g class="D"><path d="M191.27 424.75h5.72v8.5h-5.72z" transform-origin="194.13px 429px" transform="rotate(342.36)"/></g><path class="D" d="M172.43 446.86l-12.1-52.38-36.51 8.66 17.98 51.05 30.63-7.33z" transform-origin="148.125px 424.335px"/><path class="D" d="M180.53 444.2l-8.1 2.66-12.1-52.38 11.65 2.78 8.55 46.94z" transform-origin="170.43px 420.67px"/><g><path class="G" d="M180.53 444.2l-8.1 2.66-12.1-52.38 11.65 2.78 8.55 46.94z" transform-origin="170.43px 420.67px"/></g><circle cx="218.86" cy="421.89" r="6.21" class="D" transform-origin="218.86px 421.89px"/><g class="D"><path d="M302.54 404.41h5.72v48.98h-5.72z" transform-origin="305.4px 428.9px" transform="rotate(286.98)"/></g><g class="H"><path class="L" d="M302.54 404.41h5.72v48.98h-5.72z" transform-origin="305.4px 428.9px" transform="rotate(286.98)"/></g><g class="D"><path d="M302.44 426.04h8.5v5.72h-8.5z" transform-origin="306.69px 428.9px" transform="rotate(287.77)"/></g><path class="D" d="M328.36 446.82l12.2-52.36 36.5 8.74-18.09 51.01-30.61-7.39z" transform-origin="352.71px 424.335px"/><path class="D" d="M320.26 444.14l8.1 2.68 12.2-52.36-11.65 2.75-8.65 46.93z" transform-origin="330.41px 420.64px"/><g><path class="G" d="M320.26 444.14l8.1 2.68 12.2-52.36-11.65 2.75-8.65 46.93z" transform-origin="330.41px 420.64px"/></g><path d="M275.76 421.74a6.22 6.22 0 1 0 6.23-6.2 6.21 6.21 0 0 0-6.23 6.2z" class="D" transform-origin="281.98px 421.76px"/><path d="M322.66,357.13c.15-.14,15.21-14.1,32.92-9.32,18.11,4.88,33.06,32.16,33.21,32.44l5-2.72c-.66-1.21-16.26-29.73-36.76-35.25-20.86-5.62-37.65,10-38.35,10.7Z" class="D" transform-origin="356.235px 360.656px"/><g class="H"><path d="M322.66,357.13c.15-.14,15.21-14.1,32.92-9.32,18.11,4.88,33.06,32.16,33.21,32.44l5-2.72c-.66-1.21-16.26-29.73-36.76-35.25-20.86-5.62-37.65,10-38.35,10.7Z" class="L" transform-origin="356.235px 360.656px"/></g><path d="M382.12 407.71L393 402a23 23 0 0 1-2.51-8.42c-.24-4 1.34-5.36 3.07-6.28 3.8-2 6.07-1.21 7.62-.3 2.17 1.29 4.38 3.91 6.22 7.4l10.85-5.73c-3-5.62-6.62-9.74-10.84-12.23s-11-4.5-19.57 0c-6.67 3.52-10.07 9.86-9.59 17.86a35.5 35.5 0 0 0 3.87 13.41z" class="D" transform-origin="398.228px 390.738px"/><path d="M325 338l7.17-4.67 7.31-4.44 7.42-4.24 3.76-2.05 3.81-2-3.56 2.38-3.62 2.29-7.3 4.44-7.43 4.24L325 338z" class="C" transform-origin="339.735px 329.3px"/><path d="M318.72 361.42c3.37 1.92 6.56 4.09 9.71 6.31s6.21 4.56 9.12 7.12a115.22 115.22 0 0 1-9.71-6.31c-3.12-2.25-6.21-4.54-9.12-7.12z" class="C" transform-origin="328.135px 368.135px"/><path d="M324.25 358.54l7.71 2.59 7.61 2.87 7.52 3 3.74 1.6 3.69 1.7-3.87-1.24-3.83-1.34-7.61-2.84-7.53-3-7.43-3.34z" class="C" transform-origin="339.385px 364.42px"/><path d="M331.63 340.22l7.51-1.71 7.56-1.45 7.59-1.22 3.81-.53 3.84-.42-3.75.91-3.76.8-7.56 1.45-7.6 1.21-7.64.96z" class="C" transform-origin="346.785px 337.555px"/></g><g id="H" class="B" transform-origin="214.53px 238.785px"><path d="M271.62 355.79a26.61 26.61 0 0 1 2-5.88 23.77 23.77 0 0 1 3.31-5.28 12.8 12.8 0 0 1 5-3.75 8.85 8.85 0 0 1 6.31.06 8.4 8.4 0 0 1 4.51 4.47 9.83 9.83 0 0 1 .84 3.11 7 7 0 0 1-.37 3.27 2.94 2.94 0 0 1-1.1 1.41 2.14 2.14 0 0 1-.91.34 2 2 0 0 1-1-.09 2.81 2.81 0 0 1-1.29-1.31 7.28 7.28 0 0 1-.59-1.54 20.11 20.11 0 0 1-.52-6.31 25.87 25.87 0 0 1 3.64-12 15.64 15.64 0 0 1 4.34-4.61 13.14 13.14 0 0 1 5.89-2.28 16.51 16.51 0 0 1 3.14-.27 9.25 9.25 0 0 1 1.58.1 10.26 10.26 0 0 1 1.56.21 19.16 19.16 0 0 1 5.86 2.21 24.69 24.69 0 0 1 4.9 3.85 26.13 26.13 0 0 1 3.86 4.85 27 27 0 0 0-9-8.27 18.75 18.75 0 0 0-5.73-2 20.94 20.94 0 0 0-3-.23 15.94 15.94 0 0 0-3 .33 13 13 0 0 0-5.53 2.23 14.65 14.65 0 0 0-4.06 4.38 25 25 0 0 0-3.43 11.54 19.31 19.31 0 0 0 .45 6c.24.92.67 2 1.3 2.24a1.32 1.32 0 0 0 .23.05 1 1 0 0 0 .3 0 1.25 1.25 0 0 0 .53-.19 2.08 2.08 0 0 0 .76-1 6 6 0 0 0 .33-2.83 9.38 9.38 0 0 0-.75-2.85 7.82 7.82 0 0 0-4-4.11 8.16 8.16 0 0 0-5.8-.18 12.46 12.46 0 0 0-4.88 3.48 27 27 0 0 0-5.68 10.85z" class="C" transform-origin="297.1px 340.459px"/><path d="M179.22 381.7a14 14 0 0 1 4-4.63 15 15 0 0 1 5.6-2.69 12.05 12.05 0 0 1 6.25.13 12.48 12.48 0 0 1 5.34 3.32 15.79 15.79 0 0 1 3.34 5.33 14.64 14.64 0 0 1 1 6.23 5.24 5.24 0 0 1-1.16 3.12 2.44 2.44 0 0 1-1.69.76 3.7 3.7 0 0 1-1.72-.39 2.83 2.83 0 0 1-1.24-1.32 4.37 4.37 0 0 1-.38-1.68 9.17 9.17 0 0 1 .53-3.19 18.58 18.58 0 0 1 3.06-5.51 22 22 0 0 1 4.53-4.35 16.9 16.9 0 0 1 11.92-3.28 16 16 0 0 1 5.95 1.94 16.39 16.39 0 0 1 4.73 4.07 22.32 22.32 0 0 1 3.08 5.38 25.27 25.27 0 0 1 1.64 5.95 25 25 0 0 0-5.12-11 15.51 15.51 0 0 0-4.64-3.82 15.23 15.23 0 0 0-5.73-1.72 16.27 16.27 0 0 0-11.29 3.22 20.52 20.52 0 0 0-7.19 9.43 8.13 8.13 0 0 0-.51 2.85 2.42 2.42 0 0 0 1.1 2.2 2.53 2.53 0 0 0 1.25.29 1.49 1.49 0 0 0 1.06-.47 4.36 4.36 0 0 0 .92-2.56 13.7 13.7 0 0 0-1-5.84 15.56 15.56 0 0 0-3.12-5.08 11.8 11.8 0 0 0-5-3.22 11.43 11.43 0 0 0-5.92-.26 15.39 15.39 0 0 0-9.59 6.79z" class="C" transform-origin="206.61px 383.363px"/><path d="M133 140.21a26.83 26.83 0 0 0-2.9-11.87 12.38 12.38 0 0 0-3.9-4.55 8.21 8.21 0 0 0-5.68-1.21 7.77 7.77 0 0 0-4.87 3 9 9 0 0 0-1.41 2.58 6 6 0 0 0-.36 2.83 2.1 2.1 0 0 0 .5 1.14 1.23 1.23 0 0 0 .47.32 1.57 1.57 0 0 0 .29.08 1.92 1.92 0 0 0 .24 0c.68-.13 1.35-1 1.8-1.86A19.62 19.62 0 0 0 119 125a25.06 25.06 0 0 0-.57-12 14.76 14.76 0 0 0-2.9-5.23 12.94 12.94 0 0 0-4.84-3.48 15.83 15.83 0 0 0-2.84-1 19.17 19.17 0 0 0-3-.5 18.38 18.38 0 0 0-6 .6 26.77 26.77 0 0 0-10.72 5.88 25.89 25.89 0 0 1 4.91-3.8 24.76 24.76 0 0 1 5.67-2.56 19.17 19.17 0 0 1 6.22-.75 22.84 22.84 0 0 1 3.12.45 17.14 17.14 0 0 1 3 1 13.2 13.2 0 0 1 5.18 3.62 15.53 15.53 0 0 1 3.11 5.51 25.92 25.92 0 0 1 .69 12.49 20.32 20.32 0 0 1-2 6 7.61 7.61 0 0 1-.94 1.35 2.81 2.81 0 0 1-1.57 1 2.11 2.11 0 0 1-1-.15 2.14 2.14 0 0 1-.79-.54 3.05 3.05 0 0 1-.74-1.64 7 7 0 0 1 .42-3.26 10 10 0 0 1 1.57-2.82 8.38 8.38 0 0 1 5.44-3.27 8.88 8.88 0 0 1 6.14 1.45 12.77 12.77 0 0 1 4 4.84 23.63 23.63 0 0 1 2 5.92 26.22 26.22 0 0 1 .44 6.1z" class="C" transform-origin="110.578px 121.176px"/><path d="M353.77 192.37a27 27 0 0 0-12.22 0 12.4 12.4 0 0 0-5.33 2.74 8.09 8.09 0 0 0-2.5 5.23 7.8 7.8 0 0 0 1.81 5.45 9.17 9.17 0 0 0 2.19 2 6.12 6.12 0 0 0 2.66 1 2.15 2.15 0 0 0 1.23-.23 1.19 1.19 0 0 0 .42-.38c.06-.07.09-.18.15-.26s0-.16.05-.23c0-.69-.68-1.55-1.39-2.19a19.79 19.79 0 0 0-5.12-3.14 25 25 0 0 0-11.82-2.25 14.76 14.76 0 0 0-5.76 1.6 12.88 12.88 0 0 0-4.51 3.89 16.25 16.25 0 0 0-1.68 2.52 9.62 9.62 0 0 0-.64 1.38 9.3 9.3 0 0 0-.54 1.41 18.53 18.53 0 0 0-.83 6 26.82 26.82 0 0 0 3.22 11.79 25.89 25.89 0 0 1-2.55-5.65 24.89 24.89 0 0 1-1.16-6.12 19.27 19.27 0 0 1 .71-6.22 11.49 11.49 0 0 1 .53-1.49 10.88 10.88 0 0 1 .64-1.44 16.42 16.42 0 0 1 1.68-2.67 13.26 13.26 0 0 1 4.73-4.19 15.81 15.81 0 0 1 6.08-1.74 25.86 25.86 0 0 1 12.3 2.25 20.31 20.31 0 0 1 5.37 3.35 8.11 8.11 0 0 1 1.1 1.23 2.84 2.84 0 0 1 .57 1.75 2 2 0 0 1-.37.93 2.14 2.14 0 0 1-.72.65 3 3 0 0 1-1.76.33 6.91 6.91 0 0 1-3.07-1.17 10.09 10.09 0 0 1-2.38-2.18 8.41 8.41 0 0 1-1.91-6 8.88 8.88 0 0 1 2.84-5.64 13 13 0 0 1 5.64-2.74 23.64 23.64 0 0 1 6.21-.51 27 27 0 0 1 6.13.94z" class="C" transform-origin="331.598px 210.05px"/><path d="M291.86 127.67a17 17 0 0 1-.39-7.35 17.89 17.89 0 0 1 2.57-7 14.26 14.26 0 0 1 5.44-5.1 14.87 14.87 0 0 1 7.32-1.6 18.91 18.91 0 0 1 7.29 1.76 17.4 17.4 0 0 1 6.07 4.45 6.12 6.12 0 0 1 1.6 3.59 2.83 2.83 0 0 1-.78 2 4.3 4.3 0 0 1-1.77 1.08 3.28 3.28 0 0 1-2.1-.09 5.22 5.22 0 0 1-1.7-1.11 10.93 10.93 0 0 1-2.2-3.15 22.22 22.22 0 0 1-2-7.25 26.49 26.49 0 0 1 .23-7.49 20.22 20.22 0 0 1 7.42-12.74 19.21 19.21 0 0 1 6.7-3.32 19.42 19.42 0 0 1 7.43-.48 26.15 26.15 0 0 1 7.14 2 29.89 29.89 0 0 1 6.39 3.7A29.77 29.77 0 0 0 333 84.42a18.83 18.83 0 0 0-7.21.6 18.81 18.81 0 0 0-11 8.79 21.46 21.46 0 0 0-2.35 6.8 24.58 24.58 0 0 0 1.73 14.15 10.06 10.06 0 0 0 2 2.89 3 3 0 0 0 2.88 1 3.32 3.32 0 0 0 1.36-.83 1.86 1.86 0 0 0 .53-1.35 5.25 5.25 0 0 0-1.38-3 16.52 16.52 0 0 0-5.73-4.23 18.69 18.69 0 0 0-7-1.74 14.34 14.34 0 0 0-7 1.41 13.7 13.7 0 0 0-5.31 4.77 18.39 18.39 0 0 0-2.66 13.99z" class="C" transform-origin="318.879px 105.69px"/><path d="M175.87 381.92a4.25 4.25 0 1 0 2.78 5.34 4.26 4.26 0 0 0-2.78-5.34zm2.29 5.18a3.73 3.73 0 1 1-2.44-4.68 3.74 3.74 0 0 1 2.44 4.68zm-2.29-5.18a4.25 4.25 0 1 0 2.78 5.34 4.26 4.26 0 0 0-2.78-5.34zm2.29 5.18a3.73 3.73 0 1 1-2.44-4.68 3.74 3.74 0 0 1 2.44 4.68zm-2.29-5.18a4.25 4.25 0 1 0 2.78 5.34 4.26 4.26 0 0 0-2.78-5.34zm2.29 5.18a3.73 3.73 0 1 1-2.44-4.68 3.74 3.74 0 0 1 2.44 4.68zm-.87-9.67a9 9 0 1 0 5.85 11.24 9 9 0 0 0-5.85-11.24zm2 10a4.91 4.91 0 1 1-3.21-6.16 4.91 4.91 0 0 1 3.2 6.18zm-.63-.19a4.25 4.25 0 1 0-5.33 2.77 4.26 4.26 0 0 0 5.32-2.75zm-.49-.16a3.73 3.73 0 1 1-2.44-4.68 3.74 3.74 0 0 1 2.43 4.7zm-2.29-5.18a4.25 4.25 0 1 0 2.78 5.34 4.26 4.26 0 0 0-2.79-5.32zm2.29 5.18a3.73 3.73 0 1 1-2.44-4.68 3.74 3.74 0 0 1 2.43 4.7zm-2.29-5.18a4.25 4.25 0 1 0 2.78 5.34 4.26 4.26 0 0 0-2.79-5.32zm2.29 5.18a3.73 3.73 0 1 1-2.44-4.68 3.74 3.74 0 0 1 2.43 4.7z" class="K" transform-origin="174.545px 386.001px"/><path class="K" d="M173.66 394.69l-3.29-1.04-.55 2.39 2.92.92.92-2.27z" transform-origin="171.74px 395.305px"/><path class="K" d="M167.75 391.61l-1.59-3.06-2.08 1.3 1.42 2.72 2.25-.96z" transform-origin="165.915px 390.56px"/><path class="K" d="M165.75 385.26l1.04-3.29-2.39-.55-.92 2.92 2.27.92z" transform-origin="165.135px 383.34px"/><path class="K" d="M168.83 379.35l3.05-1.59-1.29-2.08-2.72 1.42.96 2.25z" transform-origin="169.875px 377.515px"/><path class="K" d="M175.18 377.35l3.29 1.03.55-2.38-2.92-.92-.92 2.27z" transform-origin="177.1px 376.73px"/><path class="K" d="M181.09 380.43l1.59 3.05 2.08-1.29-1.42-2.72-2.25.96z" transform-origin="182.925px 381.475px"/><path class="K" d="M183.09 386.78l-1.04 3.29 2.39.55.92-2.92-2.27-.92z" transform-origin="183.705px 388.7px"/><path class="K" d="M180.01 392.69l-3.06 1.59 1.3 2.08 2.72-1.42-.96-2.25z" transform-origin="178.96px 394.525px"/><path d="M341.67 353.35a13.7 13.7 0 1 0-19.16 2.84 13.7 13.7 0 0 0 19.16-2.84zm-5.86-4.35a6.4 6.4 0 1 1-1.32-8.95 6.39 6.39 0 0 1 1.32 8.95z" class="C" transform-origin="330.669px 345.185px"/><path class="C" d="M324.96 357.3l-4.23-3.14-1.98 3.17 3.76 2.79 2.45-2.82z" transform-origin="321.855px 357.14px"/><path class="C" d="M317.97 349.9l-.77-5.21-3.65.83.69 4.64 3.73-.26z" transform-origin="315.76px 347.425px"/><path class="C" d="M318.26 339.72l3.14-4.23-3.17-1.99-2.79 3.76 2.82 2.46z" transform-origin="318.42px 336.61px"/><path class="C" d="M325.66 332.73l5.21-.77-.83-3.65-4.64.69.26 3.73z" transform-origin="328.135px 330.52px"/><path class="C" d="M335.84 333.01l4.23 3.14 1.98-3.16-3.76-2.8-2.45 2.82z" transform-origin="338.945px 333.17px"/><path class="C" d="M342.83 340.42l.77 5.21 3.65-.84-.69-4.63-3.73.26z" transform-origin="345.04px 342.895px"/><path class="C" d="M342.54 350.59l-3.14 4.23 3.17 1.99 2.79-3.76-2.82-2.46z" transform-origin="342.38px 353.7px"/><path class="C" d="M335.14 357.59l-5.21.77.83 3.64 4.64-.68-.26-3.73z" transform-origin="332.665px 359.795px"/><path d="M325.77 345.84l2.91 3.67 4.63-.69 1.72-4.35-2.91-3.67-4.63.69zm5.51-1.87a1.48 1.48 0 1 1-1.77 2.38 1.49 1.49 0 0 1-.3-2.08 1.47 1.47 0 0 1 2.07-.27z" class="C" transform-origin="330.4px 345.155px"/><path d="M351.94 86.6a3.72 3.72 0 1 0 2.43 4.67 3.71 3.71 0 0 0-2.43-4.67zm2 4.53a3.27 3.27 0 1 1-2.13-4.1 3.27 3.27 0 0 1 2.13 4.1zm-2-4.53a3.72 3.72 0 1 0 2.43 4.67 3.71 3.71 0 0 0-2.43-4.67zm2 4.53a3.27 3.27 0 1 1-2.13-4.1 3.27 3.27 0 0 1 2.13 4.1zm-2-4.53a3.72 3.72 0 1 0 2.43 4.67 3.71 3.71 0 0 0-2.43-4.67zm2 4.53a3.27 3.27 0 1 1-2.13-4.1 3.27 3.27 0 0 1 2.13 4.1zm-.76-8.46a7.84 7.84 0 1 0 5.12 9.84 7.85 7.85 0 0 0-5.12-9.84zm1.74 8.77a4.3 4.3 0 1 1-2.8-5.39 4.3 4.3 0 0 1 2.8 5.39zm-.55-.17a3.72 3.72 0 1 0-4.66 2.43 3.72 3.72 0 0 0 4.66-2.43zm-.43-.14a3.27 3.27 0 1 1-2.13-4.1 3.27 3.27 0 0 1 2.13 4.1zm-2-4.53a3.72 3.72 0 1 0 2.43 4.67 3.71 3.71 0 0 0-2.43-4.67zm2 4.53a3.27 3.27 0 1 1-2.13-4.1 3.27 3.27 0 0 1 2.13 4.1zm-2-4.53a3.72 3.72 0 1 0 2.43 4.67 3.71 3.71 0 0 0-2.43-4.67zm2 4.53a3.27 3.27 0 1 1-2.13-4.1 3.27 3.27 0 0 1 2.13 4.1z" class="C" transform-origin="350.823px 90.1477px"/><path class="C" d="M350 97.77l-2.87-.9-.49 2.08 2.56.81.8-1.99z" transform-origin="348.32px 98.315px"/><path class="C" d="M344.83 95.08l-1.39-2.68-1.81 1.14 1.23 2.38 1.97-.84z" transform-origin="343.23px 94.16px"/><path class="C" d="M343.08 89.52l.91-2.88-2.09-.48-.8 2.56 1.98.8z" transform-origin="342.545px 87.84px"/><path class="C" d="M345.78 84.35l2.67-1.39-1.13-1.82-2.38 1.24.84 1.97z" transform-origin="346.695px 82.745px"/><path class="C" d="M351.34 82.6l2.87.9.49-2.08-2.56-.81-.8 1.99z" transform-origin="353.02px 82.055px"/><path class="C" d="M356.51 85.29l1.39 2.68 1.82-1.14-1.24-2.38-1.97.84z" transform-origin="358.115px 86.21px"/><path class="C" d="M358.26 90.85l-.91 2.88 2.09.48.8-2.56-1.98-.8z" transform-origin="358.795px 92.53px"/><path class="C" d="M355.56 96.02l-2.67 1.4 1.13 1.81 2.38-1.24-.84-1.97z" transform-origin="354.645px 97.625px"/><path d="M313.73 229.47a3.72 3.72 0 1 0 2.43 4.66 3.72 3.72 0 0 0-2.43-4.66zm2 4.53a3.27 3.27 0 1 1-2.13-4.1 3.26 3.26 0 0 1 2.12 4.1zm-2-4.53a3.72 3.72 0 1 0 2.43 4.66 3.72 3.72 0 0 0-2.43-4.66zm2 4.53a3.27 3.27 0 1 1-2.13-4.1 3.26 3.26 0 0 1 2.12 4.1zm-2-4.53a3.72 3.72 0 1 0 2.43 4.66 3.72 3.72 0 0 0-2.43-4.66zm2 4.53a3.27 3.27 0 1 1-2.13-4.1 3.26 3.26 0 0 1 2.12 4.1zm-.75-8.47a7.84 7.84 0 1 0 5.12 9.84 7.85 7.85 0 0 0-5.1-9.84zm1.74 8.78a4.3 4.3 0 1 1-2.81-5.39 4.3 4.3 0 0 1 2.8 5.39zm-.55-.18a3.72 3.72 0 1 0-4.67 2.43 3.72 3.72 0 0 0 4.66-2.43zm-.44-.13a3.27 3.27 0 1 1-2.13-4.1 3.26 3.26 0 0 1 2.12 4.1zm-2-4.53a3.72 3.72 0 1 0 2.43 4.66 3.72 3.72 0 0 0-2.43-4.66zm2 4.53a3.27 3.27 0 1 1-2.13-4.1 3.26 3.26 0 0 1 2.12 4.1zm-2-4.53a3.72 3.72 0 1 0 2.43 4.66 3.72 3.72 0 0 0-2.43-4.66zm2 4.53a3.27 3.27 0 1 1-2.13-4.1 3.26 3.26 0 0 1 2.12 4.1z" class="C" transform-origin="312.624px 233.008px"/><path class="C" d="M311.79 240.64l-2.88-.91-.48 2.09 2.56.8.8-1.98z" transform-origin="310.11px 241.175px"/><path class="C" d="M306.62 237.94l-1.39-2.67-1.82 1.13 1.24 2.38 1.97-.84z" transform-origin="305.015px 237.025px"/><path class="C" d="M304.87 232.38l.9-2.87-2.08-.48-.81 2.55 1.99.8z" transform-origin="304.325px 230.705px"/><path class="C" d="M307.56 227.21l2.68-1.39-1.14-1.82-2.38 1.24.84 1.97z" transform-origin="308.48px 225.605px"/><path class="C" d="M313.12 225.46l2.88.91.48-2.09-2.56-.8-.8 1.98z" transform-origin="314.8px 224.925px"/><path class="C" d="M318.29 228.16l1.39 2.67 1.82-1.13-1.24-2.38-1.97.84z" transform-origin="319.895px 229.075px"/><path class="C" d="M320.04 233.72l-.91 2.87 2.09.49.81-2.56-1.99-.8z" transform-origin="320.58px 235.4px"/><path class="C" d="M317.35 238.89l-2.68 1.39 1.14 1.82 2.38-1.24-.84-1.97z" transform-origin="316.43px 240.495px"/><path d="M95 117a11.79 11.79 0 1 0-14.25 8.67A11.8 11.8 0 0 0 95 117zm-6.11-1.49a5.51 5.51 0 1 1-4-6.65 5.5 5.5 0 0 1 4.02 6.64z" class="C" transform-origin="83.5435px 114.215px"/><path class="C" d="M83.09 125.72l-4.41-1.07-.51 3.18 3.91.95 1.01-3.06z" transform-origin="80.63px 126.715px"/><path class="C" d="M75.06 122.19l-2.36-3.87-2.61 1.88 2.1 3.45 2.87-1.46z" transform-origin="72.575px 120.985px"/><path class="C" d="M71.88 114.02l1.07-4.4-3.17-.52-.96 3.92 3.06 1z" transform-origin="70.885px 111.56px"/><path class="C" d="M75.41 106l3.87-2.36-1.88-2.61-3.44 2.1 1.45 2.87z" transform-origin="76.62px 103.515px"/><path class="C" d="M83.58 102.82l4.41 1.07.51-3.18-3.92-.95-1 3.06z" transform-origin="86.04px 101.825px"/><path class="C" d="M91.61 106.35l2.35 3.87 2.62-1.88-2.1-3.45-2.87 1.46z" transform-origin="94.095px 107.555px"/><path class="C" d="M94.79 114.52l-1.08 4.4 3.18.52.96-3.92-3.06-1z" transform-origin="95.78px 116.98px"/><path class="C" d="M91.26 122.54l-3.88 2.36 1.89 2.61 3.44-2.09-1.45-2.88z" transform-origin="90.045px 125.025px"/><path d="M79.89 116.37l3.54 1.93 3.44-2.1-.09-4-3.54-1.94-3.44 2.09zm3.75-3.37a1.28 1.28 0 1 1-1.55.94 1.29 1.29 0 0 1 1.55-.94z" class="C" transform-origin="83.335px 114.28px"/></g><g id="I" class="B" transform-origin="398.976px 225.406px"><path d="M361.59,238.94a24.58,24.58,0,0,1-4.2-13.58c0-17.19,18.88-31.13,42.16-31.13s42.14,13.94,42.14,31.13-18.86,31.14-42.14,31.14c-11.29,0-21.52-3.27-29.08-8.61L356,251.58Z" class="H" transform-origin="398.845px 225.365px"/><path d="M361.59 238.94a24 24 0 0 1-.94-26 33 33 0 0 1 9.27-10.06 43.87 43.87 0 0 1 12.23-6.23 57.17 57.17 0 0 1 13.47-2.65 58.39 58.39 0 0 1 13.72.7l3.38.68 3.33.9 3.25 1.14c1.08.39 2.11.92 3.17 1.37a41 41 0 0 1 11.32 7.83 28.92 28.92 0 0 1 7.29 11.68 23.71 23.71 0 0 1 .14 13.76 28.74 28.74 0 0 1-7.11 11.79 40.4 40.4 0 0 1-11.22 8 49.49 49.49 0 0 1-13.1 4.2 57.79 57.79 0 0 1-13.71.78 53.82 53.82 0 0 1-13.48-2.56 45.26 45.26 0 0 1-12.26-6.12h.18L356 251.69l-.22.05.1-.2zm0 0l-5.54 12.68-.13-.15 14.49-3.8h.1l.09.06a49.68 49.68 0 0 0 25.52 8.27 56.68 56.68 0 0 0 13.52-.89A48.74 48.74 0 0 0 422.5 251a39.59 39.59 0 0 0 10.95-7.82 27.66 27.66 0 0 0 6.84-11.41 22.71 22.71 0 0 0-.16-13.19 27.86 27.86 0 0 0-7-11.3 39.74 39.74 0 0 0-11-7.68c-1-.44-2-1-3.11-1.35l-3.19-1.14-3.27-.89c-1.09-.29-2.21-.45-3.32-.68a58.83 58.83 0 0 0-13.52-.74 55.85 55.85 0 0 0-13.3 2.54 43.43 43.43 0 0 0-12.11 6 33.34 33.34 0 0 0-9.24 9.8 24.28 24.28 0 0 0-3.51 12.95 24.68 24.68 0 0 0 4.03 12.85z" class="C" transform-origin="398.976px 225.406px"/><path d="M377.86,230.46v2.32h-9.43V219.19h9.26v2.32h-6.62v3.27h5.72v2.14h-5.72v3.54Z" class="C" transform-origin="373.145px 225.985px"/><path d="M379.93,232.78V219.19h6a3.88,3.88,0,0,1,1.73.39,4.56,4.56,0,0,1,1.37,1,4.91,4.91,0,0,1,.9,1.45,4.56,4.56,0,0,1-.34,4,3.77,3.77,0,0,1-1.79,1.56l3.1,5.11h-3l-2.78-4.56h-2.6v4.56Zm2.64-6.87h3.31a1.46,1.46,0,0,0,.68-.17,1.89,1.89,0,0,0,.55-.47,2.43,2.43,0,0,0,.36-.7,2.71,2.71,0,0,0,.13-.86,2.5,2.5,0,0,0-.15-.88,2.31,2.31,0,0,0-.41-.7,1.85,1.85,0,0,0-.59-.46,1.54,1.54,0,0,0-.68-.16h-3.2Z" class="C" transform-origin="385.415px 225.985px"/><path d="M392.65,232.78V219.19h6a3.9,3.9,0,0,1,1.74.39,4.65,4.65,0,0,1,1.36,1,4.53,4.53,0,0,1,.9,1.45,4.33,4.33,0,0,1,.33,1.64,4.51,4.51,0,0,1-.66,2.4,3.81,3.81,0,0,1-1.79,1.56l3.1,5.11h-3l-2.77-4.56h-2.6v4.56Zm2.65-6.87h3.31a1.46,1.46,0,0,0,.68-.17,1.73,1.73,0,0,0,.54-.47,2.21,2.21,0,0,0,.36-.7,2.72,2.72,0,0,0,.14-.86,2.5,2.5,0,0,0-.15-.88,2.33,2.33,0,0,0-.42-.7,1.85,1.85,0,0,0-.59-.46,1.51,1.51,0,0,0-.68-.16H395.3Z" class="C" transform-origin="398.14px 225.985px"/><path d="M411.18 232.87a6.15 6.15 0 0 1-2.71-.58 6.55 6.55 0 0 1-2.08-1.55 6.85 6.85 0 0 1-1.35-2.21 7 7 0 0 1-.48-2.55 6.81 6.81 0 0 1 .51-2.6 7.09 7.09 0 0 1 1.39-2.2 6.74 6.74 0 0 1 2.12-1.52 6.19 6.19 0 0 1 2.66-.56 6 6 0 0 1 2.69.6 6.63 6.63 0 0 1 2.07 1.58 7.16 7.16 0 0 1 1.34 2.22 6.93 6.93 0 0 1 0 5.12 7.12 7.12 0 0 1-1.34 2.18 6.72 6.72 0 0 1-2.11 1.51 6.22 6.22 0 0 1-2.71.56zm-3.94-6.87a5.76 5.76 0 0 0 .26 1.71 4.5 4.5 0 0 0 .78 1.45 4 4 0 0 0 1.24 1 3.68 3.68 0 0 0 1.68.38 3.54 3.54 0 0 0 1.69-.39 3.84 3.84 0 0 0 1.25-1.05 4.72 4.72 0 0 0 .76-1.46 5.48 5.48 0 0 0 .26-1.66 5.18 5.18 0 0 0-.28-1.7 4.5 4.5 0 0 0-.78-1.45 3.74 3.74 0 0 0-1.25-1 3.88 3.88 0 0 0-3.35 0 3.73 3.73 0 0 0-1.25 1 4.54 4.54 0 0 0-.75 1.45 5.17 5.17 0 0 0-.26 1.72z" class="C" transform-origin="411.195px 225.985px"/><path d="M419.85,232.78V219.19h6a3.88,3.88,0,0,1,1.73.39,4.56,4.56,0,0,1,1.37,1,4.91,4.91,0,0,1,.9,1.45,4.56,4.56,0,0,1-.34,4,3.77,3.77,0,0,1-1.79,1.56l3.1,5.11h-3l-2.78-4.56h-2.6v4.56Zm2.64-6.87h3.31a1.46,1.46,0,0,0,.68-.17,1.89,1.89,0,0,0,.55-.47,2.43,2.43,0,0,0,.36-.7,2.71,2.71,0,0,0,.13-.86,2.5,2.5,0,0,0-.15-.88,2.31,2.31,0,0,0-.41-.7,1.85,1.85,0,0,0-.59-.46,1.54,1.54,0,0,0-.68-.16h-3.2Z" class="C" transform-origin="425.335px 225.985px"/></g></svg>